<svg height="16" width="22" id="a" xmlns="http://www.w3.org/2000/svg" viewBox="0 0 20.1 15.75"><defs><style>.b{fill:#58595b;}</style></defs>
<path class="b" d="M14,13c0,.69-.56,1.25-1.25,1.25H2.75c-.69,0-1.25-.56-1.25-1.25V3c0-.69,.56-1.25,1.25-1.25H12.75c.69,0,1.25,.56,1.25,1.25v.64l1.39-1.38c-.33-1.16-1.38-2.01-2.64-2.01H2.75C1.23,.25,0,1.48,0,3V13c0,1.52,1.23,2.75,2.75,2.75H12.75c1.52,0,2.75-1.23,2.75-2.75V7.04l-1.5,1.5v4.46Z"/>
<path d="M19.99,.34c-.15-.22-.39-.34-.63-.34-.14,0-.28,.04-.41,.12l-3.45,3.44-1.5,1.5-5.52,5.51L4.01,6.12c-.06-.11-.14-.19-.24-.26-.13-.08-.27-.12-.41-.12-.24,0-.48,.12-.63,.34-.23,.35-.13,.81,.22,1.04l5,5c.13,.15,.33,.25,.53,.25,.2-.01,.4-.1,.53-.25l4.99-4.99,1.5-1.5L20.01,1.12c.14-.24,.13-.55-.02-.78Z"/>
</svg>