<svg id="a" height="16" width="16" xmlns="http://www.w3.org/2000/svg" viewBox="0 0 15.42 15.47"><defs>
<style>.b{fill:#010101;}.c{fill:#00a14b;}.d{fill:#ffde17;}.e{fill:#7f3f98;}.f{fill:#be1e2d;}.g{fill:#21409a;}</style>
</defs>
<path class="b" d="M15.32,6.58C14.72,2.87,11.65,.05,7.89,0h-.22C3.87,.02,.64,2.77,.02,6.51c-.08,.5,.06,1.02,.4,1.4,.31,.37,.77,.6,1.25,.61h.1c1.41-.13,2.82,.31,3.9,1.23,.94,1.11,1.39,2.55,1.23,4,0,.5,.21,.98,.6,1.3,.31,.27,.71,.42,1.13,.42h.28c4.23-.68,7.1-4.66,6.41-8.89Zm-6.65,7.34c-.07,.01-.15-.01-.2-.06-.05-.04-.07-.09-.07-.15,.12-1.82-.51-3.61-1.73-4.96-1.34-1.21-3.12-1.83-4.93-1.7h-.07c-.06,0-.11-.03-.15-.08-.05-.05-.07-.13-.06-.2C1.96,3.73,4.59,1.5,7.67,1.5h.09c3.35,.11,6.05,2.81,6.16,6.16,.03,3.09-2.2,5.75-5.25,6.26Z"/>
<path class="f" d="M4.67,3.5c-.69,0-1.25,.56-1.25,1.25s.56,1.25,1.25,1.25,1.25-.56,1.25-1.25-.56-1.25-1.25-1.25Zm0,1.5c-.14,0-.25-.11-.25-.25s.11-.25,.25-.25,.25,.11,.25,.25-.11,.25-.25,.25Z"/>
<path class="d" d="M7.67,2.25c-.69,0-1.25,.56-1.25,1.25s.56,1.25,1.25,1.25,1.25-.56,1.25-1.25-.56-1.25-1.25-1.25Zm0,1.5c-.14,0-.25-.11-.25-.25s.11-.25,.25-.25,.25,.11,.25,.25-.11,.25-.25,.25Z"/>
<path class="c" d="M10.67,6c.69,0,1.25-.56,1.25-1.25s-.56-1.25-1.25-1.25-1.25,.56-1.25,1.25,.56,1.25,1.25,1.25Zm0-1.5c.14,0,.25,.11,.25,.25s-.11,.25-.25,.25-.25-.11-.25-.25,.11-.25,.25-.25Z"/>
<path class="g" d="M10.67,7.75c0,.69,.56,1.25,1.25,1.25s1.25-.56,1.25-1.25-.56-1.25-1.25-1.25-1.25,.56-1.25,1.25Zm1.5,0c0,.14-.11,.25-.25,.25s-.25-.11-.25-.25,.11-.25,.25-.25,.25,.11,.25,.25Z"/>
<path class="e" d="M10.67,9.5c-.69,0-1.25,.56-1.25,1.25s.56,1.25,1.25,1.25,1.25-.56,1.25-1.25-.56-1.25-1.25-1.25Zm0,1.5c-.14,0-.25-.11-.25-.25s.11-.25,.25-.25,.25,.11,.25,.25-.11,.25-.25,.25Z"/>
</svg>