<?xml version="1.0" encoding="UTF-8"?><svg id="a" xmlns="http://www.w3.org/2000/svg" viewBox="0 0 24 24"><g id="b"><path d="M12.11,4.25h-.11c-3.8,.02-7.03,2.77-7.65,6.51-.08,.5,.06,1.02,.4,1.4,.31,.37,.77,.6,1.25,.61h.1c1.41-.13,2.82,.31,3.9,1.23,.94,1.11,1.39,2.55,1.23,4,0,.5,.21,.98,.6,1.3,.31,.27,.71,.42,1.13,.42,.09,0,.19,0,.28,0,4.23-.68,7.1-4.66,6.41-8.89-.6-3.71-3.78-6.46-7.54-6.51v-.07Zm.89,13.92c-.07,.01-.15-.01-.2-.06-.05-.04-.07-.09-.07-.15,.12-1.82-.51-3.61-1.73-4.96-1.34-1.21-3.12-1.83-4.93-1.7h-.07c-.06,0-.11-.03-.15-.08-.05-.05-.07-.13-.06-.2,.5-3.04,3.13-5.27,6.21-5.27h.09c3.35,.11,6.05,2.81,6.16,6.16,.03,3.09-2.2,5.75-5.25,6.26Z"/><path d="M9,7.75c-.69,0-1.25,.56-1.25,1.25s.56,1.25,1.25,1.25,1.25-.56,1.25-1.25-.56-1.25-1.25-1.25Zm0,1.5c-.14,0-.25-.11-.25-.25s.11-.25,.25-.25,.25,.11,.25,.25-.11,.25-.25,.25Z"/><path d="M12,6.5c-.69,0-1.25,.56-1.25,1.25s.56,1.25,1.25,1.25,1.25-.56,1.25-1.25-.56-1.25-1.25-1.25Zm0,1.5c-.14,0-.25-.11-.25-.25s.11-.25,.25-.25,.25,.11,.25,.25-.11,.25-.25,.25Z"/><path d="M15,10.25c.69,0,1.25-.56,1.25-1.25s-.56-1.25-1.25-1.25-1.25,.56-1.25,1.25,.56,1.25,1.25,1.25Zm0-1c-.14,0-.25-.11-.25-.25s.11-.25,.25-.25,.25,.11,.25,.25-.11,.25-.25,.25Z"/><path d="M16.25,10.75c-.69,0-1.25,.56-1.25,1.25s.56,1.25,1.25,1.25,1.25-.56,1.25-1.25-.56-1.25-1.25-1.25Zm0,1.5c-.14,0-.25-.11-.25-.25s.11-.25,.25-.25,.25,.11,.25,.25-.11,.25-.25,.25Z"/><path d="M15,13.75c-.69,0-1.25,.56-1.25,1.25s.56,1.25,1.25,1.25,1.25-.56,1.25-1.25-.56-1.25-1.25-1.25Zm0,1.5c-.14,0-.25-.11-.25-.25s.11-.25,.25-.25,.25,.11,.25,.25-.11,.25-.25,.25Z"/></g></svg>