<?xml version="1.0" encoding="UTF-8"?><svg id="a" xmlns="http://www.w3.org/2000/svg" viewBox="0 0 100 90"><defs><style>.b{fill:#231f20;}</style></defs><path class="b" d="M99.79,30.16c-.03-.25-.07-.5-.1-.75-.03-.25-.07-.5-.1-.75-.37-2.57-.99-5.07-1.91-7.51-1.55-4.1-3.79-7.71-6.71-10.85-2.92-3.14-6.47-5.63-10.66-7.5-4.19-1.86-8.93-2.79-14.2-2.79-4.15,0-8.11,.62-11.92,1.78,.08,.03,.17,.06,.24,.1,1.01,.44,1.88,.85,2.65,1.25,1.65-.72,3.43-1.18,5.36-1.4,.33-.04,.67-.07,1.01-.1,.51-.03,1.02-.05,1.55-.05,.29,0,.58,.02,.86,.03,.25,0,.51,.02,.75,.03,3.3,.23,6.2,1.19,8.72,2.87,2.92,1.96,5.35,4.5,7.31,7.64,1.96,3.14,3.41,6.63,4.38,10.48,.5,2.02,.83,4.02,1.06,6.02,.03,.25,.07,.5,.09,.75,.03,.25,.07,.5,.09,.75,.11,1.31,.19,2.62,.19,3.93,0,3.91-.48,7.82-1.44,11.73-.96,3.91-2.41,7.43-4.33,10.57-1.92,3.13-4.33,5.7-7.22,7.68-2.89,1.99-6.29,2.98-10.2,2.98-.54,0-1.05-.06-1.58-.09,0,0-.03,0-.09,0-2.82-.2-5.38-.9-7.66-2.1-.32-.17-.66-.31-.97-.5-.79-.48-1.53-1.01-2.25-1.57-1.97-1.55-3.67-3.41-5.11-5.6-1.96-2.98-3.43-6.43-4.42-10.34-.99-3.91-1.49-7.98-1.49-12.2,0-1.5,.08-3,.21-4.49,.02-.25,.06-.5,.09-.75,.02-.25,.06-.5,.09-.75,.22-2,.51-4,.97-5.97,.9-3.94,2.3-7.46,4.19-10.57,1.14-1.87,2.49-3.5,4.01-4.95-1.34-.91-2.77-1.7-4.29-2.34-2.22,1.24-4.28,2.67-6.14,4.35-3.26,2.95-5.85,6.55-7.78,10.8-1.21,2.67-2.01,5.57-2.46,8.67-.04,.25-.07,.5-.11,.75-.03,.25-.08,.5-.11,.75-.14,1.36-.22,2.76-.22,4.21,0,5.03,.92,9.64,2.75,13.83,1.83,4.19,4.33,7.79,7.5,10.8,2.54,2.42,5.44,4.37,8.65,5.91,.79,.38,1.59,.75,2.43,1.08,.34,.13,.68,.22,1.02,.34,3.92,1.39,8.04,2.12,12.39,2.12,4.78,0,9.3-.84,13.55-2.51,4.25-1.68,7.98-4.07,11.18-7.17,3.2-3.1,5.73-6.77,7.59-10.99,1.86-4.22,2.79-8.82,2.79-13.78,0-1.3-.08-2.57-.21-3.83Z"/><path class="b" d="M60.76,54.24c-1.52,2.51-3.38,4.74-5.59,6.66-.38,.33-.78,.64-1.18,.94,.57,.43,1.15,.84,1.76,1.21,.57,.35,1.17,.64,1.78,.91,.13-.08,.27-.16,.38-.23,.99-.65,1.55-.98,1.68-.98,.31,0,.87,.43,1.68,1.3,.37,.4,.73,.83,1.09,1.27,.13,.16,.26,.34,.39,.51,.31,.04,.62,.09,.94,.11h.05c.16,.01,.32,.03,.47,.04,.17,.01,.34,.02,.51,.03v-.51l.27-19.04h-1.12c-.56,2.67-1.6,5.26-3.12,7.78Z"/><path class="b" d="M37.62,68.82c3.48,0,6.55-.3,9.22-.89,1.22-.27,2.34-.56,3.38-.87-1.02-.42-2.01-.87-2.97-1.38-2.72,1.08-5.62,1.64-8.71,1.64-4.1,0-7.82-.84-11.18-2.51-3.35-1.68-6.21-3.96-8.57-6.84-2.36-2.89-4.18-6.29-5.45-10.2-.11-.34-.19-.69-.29-1.03-.07-.25-.14-.5-.21-.75-.07-.25-.15-.5-.21-.75-.79-3.17-1.2-6.51-1.2-10.03,0-4.22,.6-8.34,1.82-12.34,.5-1.67,1.12-3.24,1.81-4.77,.96-2.13,2.08-4.14,3.41-5.99,2.27-3.17,5.08-5.71,8.43-7.64,3.35-1.92,7.17-2.89,11.45-2.89,3.1,0,6.04,.56,8.8,1.68,.51,.2,.99,.44,1.48,.67,1.31,.63,2.56,1.35,3.74,2.17,.77,.54,1.52,1.1,2.23,1.72,2.2,1.92,4.11,4.19,5.73,6.8,1.61,2.61,2.82,5.4,3.63,8.38l1.12-.09V2.05h-1.03c-.13,.2-.29,.38-.43,.58-.25,.35-.5,.71-.78,1.05-.44,.53-.85,.99-1.26,1.4-.4,.4-.78,.75-1.12,1.02-.34,.28-.57,.42-.7,.42s-.68-.34-1.68-1.02c-.69-.47-1.61-.98-2.72-1.52-.49-.23-1-.47-1.57-.72-.58-.25-1.23-.5-1.91-.74-1.48-.53-3.16-1.03-5.08-1.5-2.79-.68-6.05-1.02-9.78-1.02-4.1,0-7.79,.43-11.08,1.3-3.29,.87-6.24,2.03-8.85,3.49-2.61,1.46-4.87,3.15-6.8,5.08-1.66,1.66-3.08,3.4-4.28,5.21-.19,.28-.38,.56-.56,.85-1.12,1.8-2.03,3.59-2.75,5.36-.71,1.77-1.27,3.46-1.68,5.08-.4,1.62-.68,3.14-.84,4.56C.08,32.35,0,33.62,0,34.73,0,38.47,.48,41.96,1.44,45.23c.07,.25,.16,.5,.24,.75,.08,.25,.16,.51,.24,.75,.21,.62,.44,1.22,.68,1.82,1.74,4.19,4.24,7.79,7.5,10.8,3.26,3.01,7.22,5.34,11.87,6.98,4.66,1.65,9.87,2.47,15.65,2.47Z"/><rect class="b" x="12" y="73.7" width="76" height=".5"/><rect class="b" x="12" y="89.38" width="76" height=".5"/><path class="b" d="M24.54,79.23c.28-.31,.63-.57,1.04-.75,.6-.27,1.44-.37,2.09-.19,.22,.06,.42,.14,.61,.23,.18,.09,.33,.2,.46,.31,.13,.12,.23,.23,.3,.35l.29,.44,1.6-1.17-.28-.4c-.19-.27-.42-.51-.69-.72-.26-.2-.56-.38-.88-.52-.32-.14-.66-.25-1.01-.33-1.08-.23-2.23-.11-3.2,.29-.64,.27-1.21,.64-1.68,1.12-.47,.47-.85,1.04-1.12,1.69-.27,.65-.4,1.36-.4,2.13s.13,1.48,.39,2.12c.26,.65,.63,1.22,1.1,1.69,.47,.47,1.04,.85,1.69,1.12,.65,.27,1.36,.4,2.11,.4,.46,0,.89-.05,1.28-.15,.39-.1,.75-.24,1.07-.42,.33-.18,.62-.39,.87-.63,.25-.23,.46-.48,.64-.75l.28-.42-1.57-1.01-.27,.41c-.27,.4-.59,.68-.99,.86-.87,.4-1.92,.35-2.69,0-.41-.19-.76-.44-1.04-.75-.29-.32-.51-.69-.66-1.11-.16-.43-.24-.88-.24-1.36s.08-.93,.23-1.36c.15-.42,.37-.79,.66-1.11Z"/><path class="b" d="M35.72,86.68c.46,.18,.96,.28,1.49,.28s1.04-.09,1.5-.28c.46-.18,.86-.45,1.19-.78,.33-.33,.59-.73,.78-1.18,.18-.45,.28-.94,.28-1.46s-.09-1.02-.28-1.46c-.19-.45-.45-.85-.78-1.18-.33-.33-.73-.59-1.19-.78-.91-.36-2.06-.37-2.99,0-.46,.19-.86,.45-1.19,.78-.33,.33-.59,.73-.78,1.18-.18,.45-.28,.94-.28,1.46s.09,1.02,.28,1.46c.19,.45,.45,.85,.78,1.18,.33,.33,.73,.6,1.19,.78Zm1.49-5.38c.28,0,.54,.05,.75,.15,.23,.1,.41,.24,.56,.41,.16,.17,.27,.37,.36,.61,.09,.24,.13,.51,.13,.79s-.04,.54-.13,.78c-.09,.24-.21,.44-.36,.62-.15,.17-.33,.3-.56,.4-.44,.19-1.08,.19-1.51,0-.22-.1-.4-.23-.55-.4-.15-.17-.28-.38-.36-.61-.09-.24-.13-.51-.13-.79s.04-.54,.13-.79c.09-.24,.21-.44,.36-.62,.15-.17,.34-.3,.56-.41,.21-.1,.47-.15,.75-.15Z"/><path class="b" d="M44.46,76.6v6.27c0,.42,.05,.86,.16,1.33,.11,.49,.32,.95,.62,1.37,.3,.42,.72,.78,1.22,1.05,.51,.28,1.17,.42,1.94,.42s1.41-.14,1.93-.42c.51-.27,.93-.63,1.23-1.05,.3-.42,.5-.88,.62-1.37,.11-.46,.16-.91,.16-1.33v-6.27h-1.94v6.17c0,.33-.04,.66-.12,.97-.07,.29-.19,.55-.34,.77-.15,.21-.35,.38-.6,.51-.49,.26-1.41,.26-1.9,0-.25-.13-.45-.3-.6-.51-.16-.22-.27-.48-.34-.76-.08-.31-.12-.64-.12-.97v-6.17h-1.94Z"/><polygon class="b" points="66.41 86.8 66.41 76.6 64.15 76.6 61.39 83.41 58.61 76.6 56.34 76.6 56.34 86.8 58.28 86.8 58.28 80.75 60.8 86.8 61.96 86.8 64.48 80.75 64.48 86.8 66.41 86.8"/><polygon class="b" points="70.46 76.6 70.46 86.8 76.68 86.8 76.68 84.97 72.39 84.97 72.39 76.6 70.46 76.6"/></svg>