<?xml version="1.0" encoding="UTF-8" standalone="no"?>
<svg
   width="151.919998pt"
   height="41.040001pt"
   viewBox="0 0 151.919998 41.040001"
   version="1.2"
   id="svg30"
   xmlns="http://www.w3.org/2000/svg"
   xmlns:svg="http://www.w3.org/2000/svg">
  <defs
     id="defs11">
    <clipPath
       id="clip1">
      <path
         d="M 0 0 L 151.921875 0 L 151.921875 32 L 0 32 Z M 0 0 "
         id="path2" />
    </clipPath>
    <clipPath
       id="clip2">
      <path
         d="M 0 30 L 151.921875 30 L 151.921875 39 L 0 39 Z M 0 30 "
         id="path5" />
    </clipPath>
    <clipPath
       id="clip3">
      <path
         d="M 0 30 L 151.921875 30 L 151.921875 32 L 0 32 Z M 0 30 "
         id="path8" />
    </clipPath>
  </defs>
  <g
     id="surface1">
    <path
       style="fill:#ffffff;fill-opacity:0;fill-rule:nonzero;stroke:none"
       d="M 1.125,31.074219 V 1.125 h 149.75 v 29.949219"
       id="path13" />
    <g
       clip-path="url(#clip1)"
       clip-rule="nonzero"
       id="g17">
      <path
         style="fill:none;stroke:#000000;stroke-width:1;stroke-linecap:butt;stroke-linejoin:miter;stroke-miterlimit:10;stroke-opacity:1"
         d="M 1.002467,41.00044 V 1.002467 H 200.99755 V 41.00044"
         transform="matrix(0.748768,0,0,0.748768,0.374384,0.374384)"
         id="path15" />
    </g>
    <g
       clip-path="url(#clip2)"
       clip-rule="nonzero"
       id="g21">
      <path
         style="fill:none;stroke:#000000;stroke-width:1;stroke-linecap:butt;stroke-linejoin:miter;stroke-miterlimit:10;stroke-opacity:1"
         d="M 1.002467,41.00044 V 51.001238 H 200.99755 V 41.00044"
         transform="matrix(0.748768,0,0,0.748768,0.374384,0.374384)"
         id="path19" />
    </g>
    <g
       clip-path="url(#clip3)"
       clip-rule="nonzero"
       id="g25">
      <path
         style="fill:none;stroke:#000000;stroke-width:1;stroke-linecap:butt;stroke-linejoin:miter;stroke-miterlimit:10;stroke-opacity:1"
         d="M 1.002467,41.00044 H 200.99755"
         transform="matrix(0.748768,0,0,0.748768,0.374384,0.374384)"
         id="path23" />
    </g>
    <path
       style="fill:#000000;fill-opacity:1;fill-rule:nonzero;stroke:none"
       d="m 27.25,18.277344 0.105469,1.929687 -0.164063,0.0078 v -0.160156 h 0.941406 v 0.160156 l -0.164062,0.01172 -0.5,-7.453124 0.164062,-0.0078 v 0.164063 h -0.792968 v -0.164063 l 0.140625,0.07813 -4.269531,7.453125 -0.140626,-0.08203 v -0.160156 h 0.945313 v 0.160156 L 23.375,20.136719 24.5,18.125 h 2.742188 z m -0.328125,0.01953 0.164063,-0.01172 v 0.164063 h -2.488282 v -0.164063 l 0.144532,0.08203 -1.128907,2.011718 h -1.328125 l 4.457032,-7.777344 h 1.042968 l 0.523438,7.777344 H 27.035156 Z M 24.917969,17.382812 27,13.652344 27.214844,17.625 H 24.78125 Z m 0.285156,0.160157 -0.144531,-0.07813 v -0.164063 h 1.980468 v 0.164063 l -0.164062,0.0078 -0.171875,-3.234375 0.164063,-0.01172 0.140624,0.08203 z m 1.835937,-0.07813 -0.171874,-3.238282 -1.808594,3.238282 z m -2.441406,0.820312 -1.082031,1.929688 h -0.945313 l 4.269532,-7.449219 h 0.792968 l 0.5,7.449219 h -0.941406 l -0.105468,-1.929688 z m 9.949219,-0.816406 0.02734,-0.105469 c 0.07031,-0.28125 0.113281,-0.546875 0.132812,-0.800781 0.01563,-0.246094 0.0039,-0.472656 -0.03125,-0.671875 l 0.160157,-0.03125 -0.160157,0.03516 c -0.03516,-0.175781 -0.08984,-0.335937 -0.164062,-0.480469 -0.06641,-0.136718 -0.152344,-0.253906 -0.257813,-0.347656 l 0.109375,-0.121094 -0.105469,0.125 c -0.117187,-0.105468 -0.261718,-0.183593 -0.425781,-0.242187 -0.167969,-0.05859 -0.363281,-0.08984 -0.582031,-0.08984 -0.179688,0 -0.351562,0.01953 -0.511719,0.05469 -0.160156,0.03516 -0.3125,0.08594 -0.457031,0.152343 C 32.164062,15 32.054688,15.0625 31.945312,15.136719 c -0.109374,0.07813 -0.210937,0.160156 -0.308593,0.253906 l -0.410157,0.394531 0.867188,-3.46875 0.160156,0.03906 v 0.164062 h -0.945312 v -0.164062 l 0.15625,0.03906 L 29.5,20.257812 29.339844,20.214844 v -0.160156 h 0.871094 v 0.160156 l -0.15625,-0.04687 0.324218,-1 0.179688,0.34375 c 0.03906,0.06641 0.07813,0.132812 0.125,0.1875 0.04687,0.05859 0.09766,0.109375 0.152344,0.160156 l -0.109376,0.121094 0.105469,-0.125 c 0.113281,0.09766 0.25,0.167969 0.410157,0.21875 0.167968,0.05469 0.359374,0.08203 0.582031,0.08203 0.195312,0 0.378906,-0.02344 0.558593,-0.07031 0.179688,-0.05078 0.351563,-0.117188 0.511719,-0.203126 0.226563,-0.125 0.433594,-0.28125 0.621094,-0.472656 0.191406,-0.195312 0.359375,-0.414062 0.511719,-0.660156 0.109375,-0.1875 0.210937,-0.386719 0.300781,-0.605469 0.08594,-0.214843 0.160156,-0.441406 0.21875,-0.675781 z m 0.320313,0.07813 c -0.0625,0.25 -0.144532,0.492187 -0.238282,0.722656 C 34.535156,18.5 34.425781,18.71875 34.304688,18.921875 34.144531,19.1875 33.957031,19.425781 33.75,19.636719 c -0.210938,0.214843 -0.445312,0.394531 -0.703125,0.535156 -0.183594,0.09766 -0.375,0.175781 -0.582031,0.230469 -0.203125,0.05469 -0.417969,0.08203 -0.640625,0.08203 -0.257813,0 -0.484375,-0.03125 -0.679688,-0.09766 -0.203125,-0.0625 -0.378906,-0.15625 -0.523437,-0.28125 h -0.0039 c -0.07031,-0.0625 -0.132813,-0.128907 -0.1875,-0.199219 -0.05859,-0.07422 -0.113282,-0.15625 -0.160157,-0.242188 l 0.144531,-0.07812 0.15625,0.05078 -0.238281,0.742187 h -1.199219 l 2.046876,-8.1875 h 1.285156 l -0.78125,3.121094 -0.160156,-0.03906 -0.113282,-0.121094 c 0.109375,-0.101563 0.226563,-0.199219 0.347656,-0.285156 0.125,-0.08203 0.253907,-0.15625 0.382813,-0.21875 0.167969,-0.07813 0.34375,-0.136719 0.527344,-0.175782 0.183593,-0.03906 0.378906,-0.05859 0.582031,-0.05859 0.257812,0 0.488281,0.03516 0.6875,0.105469 0.207031,0.07031 0.382812,0.171875 0.535156,0.300781 l 0.0039,0.0039 c 0.132813,0.121093 0.242188,0.269531 0.332032,0.445312 0.08203,0.167969 0.144531,0.351563 0.1875,0.558594 L 35,15.832031 c 0.03906,0.226563 0.05078,0.480469 0.03125,0.753907 -0.01563,0.269531 -0.0625,0.554687 -0.140625,0.855468 z m -0.921876,-0.105469 -0.02734,0.105469 c -0.04297,0.171875 -0.09375,0.339844 -0.15625,0.5 -0.0625,0.167969 -0.136719,0.320313 -0.21875,0.464844 -0.105469,0.191406 -0.226563,0.363281 -0.359375,0.519531 -0.140625,0.160156 -0.300782,0.289062 -0.476563,0.394531 -0.132812,0.08203 -0.273437,0.144531 -0.429687,0.1875 -0.152344,0.04297 -0.316406,0.06641 -0.488282,0.06641 -0.183593,0 -0.34375,-0.02344 -0.488281,-0.07422 -0.144531,-0.04687 -0.269531,-0.121094 -0.378906,-0.210938 -0.101563,-0.09375 -0.1875,-0.199219 -0.253906,-0.320312 -0.06641,-0.117188 -0.113281,-0.242188 -0.148438,-0.378907 l -0.01172,-0.03906 0.625,-2.492188 0.01953,-0.02734 c 0.09375,-0.128907 0.199218,-0.25 0.316406,-0.363281 0.117188,-0.109376 0.246094,-0.207032 0.386719,-0.292969 0.136719,-0.08203 0.285156,-0.148438 0.445312,-0.195313 0.164063,-0.04687 0.332031,-0.07031 0.511719,-0.07031 0.167969,0 0.3125,0.01953 0.445312,0.05859 0.132813,0.03906 0.246094,0.09766 0.34375,0.167968 l -0.09375,0.132813 0.09375,-0.132813 c 0.148438,0.101563 0.257813,0.242188 0.332032,0.425782 0.06641,0.164062 0.109375,0.34375 0.128906,0.542968 v 0.0039 c 0.0078,0.15625 0,0.324219 -0.01953,0.496094 -0.01953,0.171875 -0.05078,0.351563 -0.09766,0.53125 z m -0.316406,-0.07813 c 0.03906,-0.167969 0.07031,-0.332031 0.08984,-0.488281 0.01563,-0.15625 0.02344,-0.304688 0.01563,-0.441406 l 0.164063,-0.0078 -0.164063,0.01172 c -0.01563,-0.164062 -0.05078,-0.3125 -0.105469,-0.449219 -0.04687,-0.121093 -0.121094,-0.214843 -0.214844,-0.28125 h -0.0039 c -0.07031,-0.05078 -0.152344,-0.08984 -0.246094,-0.121093 -0.101562,-0.02734 -0.21875,-0.04297 -0.351562,-0.04297 -0.148438,0 -0.289062,0.01953 -0.421875,0.05859 -0.132813,0.03906 -0.253906,0.08984 -0.367187,0.160157 -0.117188,0.07031 -0.226563,0.15625 -0.328126,0.25 -0.101562,0.09766 -0.195312,0.203125 -0.277343,0.320312 l -0.132813,-0.09766 0.15625,0.03906 -0.605468,2.421874 -0.15625,-0.03906 0.15625,-0.03906 c 0.02734,0.109374 0.06641,0.207031 0.117187,0.300781 0.05078,0.08594 0.109375,0.164062 0.1875,0.230469 0.07031,0.0625 0.160156,0.113281 0.265625,0.148437 0.109375,0.03516 0.238281,0.05469 0.382812,0.05469 0.140626,0 0.277344,-0.01562 0.402344,-0.05078 0.121094,-0.03516 0.238282,-0.08984 0.347656,-0.15625 0.148438,-0.08594 0.277344,-0.195312 0.394532,-0.332031 0.121094,-0.136719 0.230468,-0.292969 0.324218,-0.464844 0.07422,-0.128906 0.140626,-0.265625 0.199219,-0.414062 0.05468,-0.15235 0.105462,-0.3086 0.144524,-0.46485 z m 0.15625,0.03906 c 0.04687,-0.175782 0.07813,-0.34375 0.09375,-0.511719 0.01953,-0.164063 0.02734,-0.320313 0.01953,-0.464844 -0.01563,-0.183593 -0.05469,-0.347656 -0.117188,-0.5 -0.0625,-0.148437 -0.152344,-0.265625 -0.273438,-0.351562 -0.08594,-0.0625 -0.183593,-0.109375 -0.296874,-0.144531 -0.117188,-0.03125 -0.246094,-0.05078 -0.398438,-0.05078 -0.164062,0 -0.320312,0.02344 -0.464844,0.06641 -0.148437,0.04297 -0.285156,0.101563 -0.410156,0.175782 -0.128906,0.07813 -0.246094,0.167968 -0.355469,0.273437 C 31.472656,16 31.371094,16.113281 31.285156,16.234375 l -0.605468,2.421875 c 0.03125,0.121094 0.07422,0.234375 0.132812,0.339844 0.05469,0.105468 0.128906,0.195312 0.21875,0.273437 0.08984,0.07813 0.199219,0.140625 0.324219,0.183594 0.125,0.04297 0.269531,0.0625 0.433593,0.0625 0.15625,0 0.304688,-0.01953 0.445313,-0.05859 0.140625,-0.03906 0.269531,-0.09766 0.390625,-0.171875 0.160156,-0.09375 0.304688,-0.214844 0.433594,-0.363281 0.128906,-0.148437 0.242187,-0.3125 0.34375,-0.492187 0.07813,-0.136719 0.148437,-0.28125 0.207031,-0.441407 0.05859,-0.15625 0.109375,-0.316406 0.152344,-0.480469 z m 0.921875,0.105468 c -0.0625,0.242188 -0.136719,0.476563 -0.230469,0.699219 -0.08984,0.222657 -0.195312,0.433594 -0.3125,0.628907 -0.15625,0.253906 -0.332031,0.484374 -0.53125,0.6875 -0.199218,0.203124 -0.417968,0.371093 -0.660156,0.503906 -0.175781,0.09375 -0.355468,0.164062 -0.546875,0.214844 -0.195312,0.05078 -0.394531,0.07812 -0.601562,0.07812 -0.238281,0 -0.449219,-0.03125 -0.632813,-0.08984 -0.179687,-0.05469 -0.335937,-0.140625 -0.464844,-0.25 -0.0625,-0.05469 -0.117187,-0.113281 -0.171874,-0.179688 -0.05078,-0.0625 -0.09766,-0.136719 -0.140626,-0.214843 l -0.203124,0.628906 h -0.871094 l 1.96875,-7.859375 h 0.945312 l -0.730468,2.917969 c 0.105468,-0.101563 0.214843,-0.191407 0.328124,-0.269532 0.117188,-0.08203 0.234376,-0.148437 0.359376,-0.207031 0.15625,-0.07422 0.320312,-0.125 0.492187,-0.164063 0.171875,-0.03906 0.355469,-0.05859 0.546875,-0.05859 0.238281,0 0.449219,0.03516 0.636719,0.09766 0.183593,0.06641 0.34375,0.15625 0.476562,0.273437 0.121094,0.109376 0.21875,0.242188 0.296875,0.394532 0.07813,0.15625 0.136719,0.328125 0.175782,0.519531 0.03906,0.214844 0.05078,0.453125 0.03125,0.714844 -0.01563,0.261719 -0.0625,0.539062 -0.132813,0.828125 z m 5.125,1.28125 c -0.02734,0.105469 -0.07031,0.207032 -0.136719,0.300782 -0.0625,0.09375 -0.140624,0.175781 -0.234374,0.25 C 39.3125,19.46093 39.125,19.55468 38.902344,19.61718 c -0.21875,0.06641 -0.460938,0.09766 -0.730469,0.09766 -0.171875,0 -0.339844,-0.01953 -0.507813,-0.05469 -0.175781,-0.03906 -0.332031,-0.105468 -0.460937,-0.203125 -0.140625,-0.09766 -0.246094,-0.226562 -0.316406,-0.390625 -0.07031,-0.160156 -0.08203,-0.355468 -0.04297,-0.582031 l 0.160156,0.02734 v 0.164062 h -0.945312 v -0.164062 l 0.160156,0.03906 c -0.05469,0.210938 -0.05859,0.410157 -0.01172,0.605469 0.04687,0.1875 0.140625,0.351562 0.28125,0.496094 h 0.0039 c 0.144531,0.148437 0.335937,0.269531 0.582031,0.363281 0.25,0.09375 0.550781,0.140625 0.90625,0.140625 0.3125,0 0.613281,-0.03906 0.894531,-0.113281 0.28125,-0.07422 0.53125,-0.179688 0.75,-0.3125 0.21875,-0.136719 0.402344,-0.292969 0.550781,-0.480469 0.148438,-0.183594 0.246094,-0.386719 0.304688,-0.609375 0.04687,-0.199219 0.05078,-0.371094 0.0078,-0.515625 -0.04687,-0.144531 -0.132812,-0.273438 -0.261719,-0.386719 -0.136718,-0.113281 -0.316406,-0.21875 -0.546874,-0.304687 -0.238282,-0.08984 -0.515626,-0.171875 -0.832032,-0.242188 -0.25,-0.05078 -0.457031,-0.105468 -0.621094,-0.164062 -0.171874,-0.05859 -0.308593,-0.128906 -0.40625,-0.210938 -0.113281,-0.08984 -0.183593,-0.199218 -0.210937,-0.320312 -0.02734,-0.109375 -0.01953,-0.234375 0.01172,-0.367188 0.03125,-0.128906 0.09375,-0.25 0.183594,-0.367187 0.08594,-0.117188 0.199218,-0.214844 0.339843,-0.300781 0.128907,-0.08203 0.285157,-0.148438 0.464844,-0.199219 0.175781,-0.04687 0.371094,-0.07031 0.585937,-0.07031 0.214844,0 0.402344,0.03125 0.566407,0.09375 0.160156,0.0625 0.296875,0.144532 0.398437,0.25 0.105469,0.109375 0.179688,0.234375 0.222656,0.375 0.03906,0.144532 0.04297,0.289063 0.0039,0.4375 l -0.160157,-0.04297 v -0.164063 h 0.949219 v 0.164063 l -0.160156,-0.03906 c 0.05469,-0.214844 0.05859,-0.414063 0.01563,-0.597656 -0.04687,-0.183594 -0.132812,-0.339844 -0.265625,-0.476563 -0.132813,-0.136718 -0.3125,-0.246094 -0.539063,-0.328125 -0.234374,-0.08203 -0.511718,-0.125 -0.835937,-0.125 -0.300781,0 -0.585937,0.04297 -0.855469,0.121094 -0.273437,0.08203 -0.515625,0.191406 -0.730468,0.332031 -0.210938,0.136719 -0.390626,0.292969 -0.535157,0.476563 -0.140625,0.179687 -0.234375,0.367187 -0.285156,0.570312 -0.05078,0.199219 -0.05078,0.367188 0,0.507813 0.04687,0.144531 0.140625,0.269531 0.269531,0.375 h 0.0039 v 0.0039 c 0.136719,0.117188 0.316407,0.21875 0.539063,0.304688 0.230469,0.08594 0.492187,0.164062 0.785156,0.226562 0.253907,0.05469 0.464844,0.113281 0.632813,0.179688 0.175781,0.07031 0.3125,0.148437 0.414062,0.234374 0.113282,0.09766 0.183594,0.210938 0.214844,0.335938 0.02734,0.113281 0.02344,0.242188 -0.01172,0.382812 z m -0.316406,-0.08203 c 0.01953,-0.08594 0.02344,-0.160156 0.0078,-0.226562 -0.01172,-0.05469 -0.05078,-0.109375 -0.109376,-0.160157 -0.07422,-0.06641 -0.179687,-0.125 -0.320312,-0.179687 -0.152344,-0.05859 -0.34375,-0.113281 -0.582031,-0.164063 -0.308594,-0.06641 -0.585938,-0.148437 -0.832031,-0.242187 -0.257813,-0.101563 -0.46875,-0.21875 -0.632813,-0.363281 l 0.105469,-0.125 -0.101563,0.128906 c -0.183593,-0.144531 -0.308593,-0.320312 -0.375,-0.523438 -0.07031,-0.199218 -0.07422,-0.433593 -0.0078,-0.691406 0.0625,-0.25 0.175781,-0.480468 0.347656,-0.695312 0.164063,-0.210938 0.367187,-0.394532 0.613281,-0.550782 0.238282,-0.15625 0.511719,-0.277343 0.8125,-0.367187 0.300782,-0.08984 0.617188,-0.132813 0.949219,-0.132813 0.359375,0 0.675781,0.04688 0.945313,0.140626 0.273437,0.09766 0.496093,0.234374 0.664062,0.410156 0.171875,0.175781 0.289062,0.386718 0.347656,0.625 0.05859,0.234375 0.05469,0.488281 -0.01172,0.757812 l -0.03125,0.121094 h -1.285157 l 0.05078,-0.203125 c 0.02344,-0.08984 0.01953,-0.179687 -0.0039,-0.265625 -0.02344,-0.08594 -0.07031,-0.164062 -0.140625,-0.234375 -0.07031,-0.07031 -0.164062,-0.128906 -0.285156,-0.175781 -0.121094,-0.04687 -0.269531,-0.07031 -0.445313,-0.07031 -0.183593,0 -0.351562,0.01953 -0.5,0.05859 -0.148437,0.03906 -0.273437,0.09375 -0.378906,0.160156 -0.105468,0.06641 -0.1875,0.140625 -0.253906,0.222657 -0.0625,0.08203 -0.101562,0.164062 -0.125,0.246093 -0.01953,0.08594 -0.02344,0.15625 -0.0078,0.214844 0.01172,0.05078 0.04297,0.09766 0.101562,0.140625 0.06641,0.05859 0.167969,0.109375 0.304688,0.15625 0.148437,0.05469 0.34375,0.105469 0.585937,0.15625 0.328125,0.07031 0.621094,0.15625 0.875,0.253906 0.265625,0.101563 0.480469,0.222656 0.648437,0.363282 0.171876,0.15625 0.292969,0.332031 0.355469,0.535156 0.0625,0.203125 0.05859,0.433594 -0.0039,0.695312 -0.06641,0.265625 -0.1875,0.511719 -0.363281,0.730469 -0.175782,0.21875 -0.386719,0.402344 -0.636719,0.554687 -0.246094,0.152344 -0.527344,0.269532 -0.839844,0.351563 -0.308593,0.08203 -0.632812,0.125 -0.976562,0.125 -0.394531,0 -0.734375,-0.05469 -1.023438,-0.164063 -0.289062,-0.109374 -0.523437,-0.253906 -0.703125,-0.441406 L 36.375,19.765625 36.257812,19.882812 c -0.183593,-0.1875 -0.308593,-0.402343 -0.367187,-0.652343 -0.05859,-0.242188 -0.05859,-0.496094 0.0078,-0.757813 l 0.03125,-0.125 h 1.269531 l -0.03125,0.195313 c -0.03125,0.160156 -0.02344,0.292969 0.01953,0.394531 0.04687,0.105469 0.113281,0.191406 0.207031,0.257812 0.09375,0.06641 0.207031,0.117188 0.339844,0.144532 0.144531,0.03125 0.289063,0.04687 0.4375,0.04687 0.238281,0 0.449219,-0.02734 0.636719,-0.08203 0.183594,-0.05469 0.332031,-0.125 0.449218,-0.21875 0.06641,-0.05469 0.121094,-0.113282 0.167969,-0.179688 0.04297,-0.0625 0.07031,-0.128906 0.08984,-0.199219 z m 0.160156,0.03906 c 0.02734,-0.109375 0.03125,-0.210938 0.0078,-0.304688 -0.01953,-0.08984 -0.07422,-0.171875 -0.164063,-0.246094 -0.08594,-0.07422 -0.207031,-0.144531 -0.367187,-0.207031 -0.15625,-0.0625 -0.359375,-0.121093 -0.605469,-0.171875 -0.300768,-0.0664 -0.5703,-0.144521 -0.808581,-0.234365 -0.238281,-0.09375 -0.433593,-0.203125 -0.585937,-0.335937 -0.15625,-0.125 -0.265625,-0.273438 -0.324219,-0.445313 -0.05859,-0.171875 -0.05859,-0.375 -0.0039,-0.601562 0.05859,-0.226563 0.164062,-0.4375 0.316406,-0.632813 0.15625,-0.195312 0.347656,-0.367187 0.574219,-0.515625 0.230468,-0.144531 0.484375,-0.261719 0.773437,-0.347656 0.285157,-0.08594 0.585938,-0.128906 0.902344,-0.128906 0.34375,0 0.636719,0.04687 0.890625,0.136719 0.25,0.08594 0.449219,0.210937 0.601562,0.367187 0.152344,0.15625 0.253907,0.339844 0.304688,0.550781 0.05469,0.207032 0.04687,0.433594 -0.01172,0.675782 h -0.949219 c 0.03125,-0.117188 0.03125,-0.234376 -0.0039,-0.347657 -0.03125,-0.117187 -0.08984,-0.21875 -0.179687,-0.304687 -0.08594,-0.08984 -0.199219,-0.160156 -0.339844,-0.214844 -0.144531,-0.05469 -0.3125,-0.08203 -0.507813,-0.08203 -0.199218,0 -0.382812,0.01953 -0.542968,0.06641 -0.164063,0.04297 -0.304688,0.101563 -0.421875,0.179687 -0.121094,0.07422 -0.21875,0.160157 -0.296875,0.257813 -0.07422,0.101563 -0.125,0.203125 -0.152344,0.308594 -0.02734,0.109375 -0.03125,0.207031 -0.01172,0.292969 0.01953,0.08594 0.07031,0.160156 0.15625,0.230468 0.08203,0.06641 0.199219,0.128906 0.355469,0.183594 0.15625,0.05469 0.355469,0.105469 0.605469,0.15625 0.320312,0.07422 0.605469,0.15625 0.851562,0.25 0.246094,0.09375 0.445313,0.207031 0.597657,0.335938 0.152343,0.132812 0.253906,0.285156 0.308593,0.460937 0.05078,0.171875 0.05078,0.375 -0.0078,0.601563 -0.05859,0.246093 -0.171875,0.46875 -0.332031,0.671874 -0.160157,0.203126 -0.359376,0.375 -0.59375,0.515626 -0.234376,0.144531 -0.5,0.253906 -0.792969,0.335937 -0.296875,0.07813 -0.609375,0.117187 -0.9375,0.117187 -0.375,0 -0.695313,-0.05078 -0.964844,-0.152343 C 36.746094,20.066406 36.535156,19.933594 36.375,19.765625 36.210938,19.601562 36.101562,19.410156 36.050781,19.191406 35.996094,18.976562 36,18.746094 36.058594,18.511719 h 0.945312 c -0.03516,0.195312 -0.02344,0.359375 0.03516,0.492187 0.05469,0.132813 0.144532,0.242188 0.257813,0.320313 0.113281,0.08203 0.246094,0.140625 0.402344,0.175781 0.15625,0.03516 0.3125,0.05078 0.472656,0.05078 0.253906,0 0.480469,-0.03125 0.683594,-0.08984 0.203125,-0.05859 0.371093,-0.140626 0.503906,-0.246094 0.07813,-0.06641 0.148437,-0.136719 0.199219,-0.214844 0.05469,-0.07813 0.09375,-0.164062 0.117187,-0.253906 z M 45.878906,13.5 h -0.953125 v -0.164062 l 0.160157,0.04297 -0.367188,1.464844 H 43.136719 V 14.67969 l 0.160156,0.03906 -0.183594,0.730469 -0.15625,-0.03906 v -0.164062 h 1.660157 l -0.800782,3.214844 c -0.08203,0.320312 -0.109375,0.589843 -0.07813,0.8125 0.02344,0.210937 0.08984,0.378906 0.1875,0.503906 0.101563,0.128906 0.234375,0.222656 0.398438,0.28125 0.179687,0.06641 0.382812,0.09766 0.609375,0.09766 0.140625,0 0.285156,-0.0078 0.433594,-0.01953 0.144531,-0.01563 0.285156,-0.03516 0.417968,-0.05859 l 0.0039,-0.0039 c 0.132813,-0.01953 0.257813,-0.05078 0.375,-0.08203 0.109376,-0.03516 0.207032,-0.07031 0.285157,-0.113282 l 0.07813,0.144532 -0.164063,-0.0078 0.03516,-0.671875 0.164062,0.0078 0.03516,0.160157 c -0.0625,0.01563 -0.144531,0.03125 -0.238281,0.05078 -0.09766,0.01953 -0.199219,0.03516 -0.308594,0.05469 -0.113281,0.01562 -0.226562,0.03125 -0.34375,0.04297 -0.117187,0.01172 -0.230469,0.01953 -0.339843,0.01953 -0.152344,0 -0.296876,-0.01953 -0.429688,-0.05859 -0.144531,-0.04297 -0.265625,-0.117188 -0.363281,-0.226563 l 0.125,-0.109375 -0.121094,0.109375 c -0.09766,-0.105469 -0.160156,-0.246093 -0.183594,-0.417969 -0.02344,-0.164062 -0.0039,-0.359374 0.05469,-0.597656 l 0.785156,-3.132812 h 2.234375 v 0.164062 l -0.15625,-0.03906 0.179688,-0.730469 0.160156,0.03906 v 0.164062 h -2.316406 l 0.382812,-1.546875 0.160156,0.03906 z m 0.210938,-0.328125 -0.386719,1.546875 -0.160156,-0.03906 v -0.164063 h 2.320312 l -0.265625,1.058594 h -2.238281 v -0.164063 l 0.160156,0.03906 -0.753906,3.011719 c -0.04687,0.191406 -0.0625,0.351562 -0.04687,0.46875 0.01563,0.105468 0.05078,0.1875 0.101562,0.246093 h 0.0039 c 0.05078,0.0625 0.121093,0.105469 0.207031,0.132813 0.101562,0.02734 0.214844,0.04297 0.335938,0.04297 0.09766,0 0.199218,-0.0039 0.304687,-0.01562 0.109375,-0.01172 0.21875,-0.02734 0.324219,-0.04297 0.105468,-0.01563 0.207031,-0.03516 0.296875,-0.05469 0.09375,-0.01563 0.171875,-0.03125 0.234375,-0.04687 l 0.207031,-0.04687 -0.05078,0.980469 -0.08203,0.04297 c -0.09766,0.05078 -0.214843,0.09766 -0.347656,0.136719 -0.125,0.03906 -0.261718,0.07031 -0.410156,0.09375 l -0.02734,-0.160157 0.03125,0.160157 c -0.144531,0.02734 -0.296875,0.05078 -0.453125,0.0625 -0.15625,0.01562 -0.3125,0.02344 -0.460937,0.02344 -0.265625,0 -0.503906,-0.03906 -0.71875,-0.117187 -0.226563,-0.07813 -0.40625,-0.207032 -0.542969,-0.386719 -0.140625,-0.171875 -0.226563,-0.394531 -0.261719,-0.667969 -0.03125,-0.261719 -0.0039,-0.570312 0.08594,-0.933594 L 44.25,15.371094 l 0.160156,0.03906 v 0.164063 h -1.664062 l 0.265625,-1.058594 h 1.582031 v 0.164063 l -0.160156,-0.03906 0.367187,-1.46875 z m -0.546875,1.507813 h 2.109375 l -0.183594,0.730468 h -2.109375 l -0.75,3.011719 c -0.05469,0.214844 -0.07031,0.390625 -0.05078,0.53125 0.01953,0.140625 0.06641,0.25 0.140625,0.332031 0.07422,0.08594 0.167969,0.144532 0.285156,0.179688 0.117187,0.03516 0.246094,0.05078 0.382813,0.05078 0.105468,0 0.210937,-0.0078 0.324218,-0.01953 0.109375,-0.01172 0.222656,-0.02344 0.332032,-0.04297 0.105468,-0.01563 0.207031,-0.03516 0.304687,-0.05469 0.09375,-0.01563 0.171875,-0.03125 0.234375,-0.04688 l -0.03516,0.671876 c -0.08984,0.04687 -0.195313,0.08984 -0.320313,0.125 -0.121093,0.03516 -0.25,0.06641 -0.390625,0.08984 -0.136718,0.02734 -0.285156,0.04687 -0.4375,0.05859 -0.152344,0.01563 -0.300781,0.02344 -0.445312,0.02344 -0.246094,0 -0.46875,-0.03516 -0.664063,-0.105468 -0.195312,-0.07031 -0.351562,-0.183594 -0.472656,-0.335938 -0.117187,-0.148437 -0.191406,-0.34375 -0.222656,-0.585937 -0.03125,-0.242188 -0.0039,-0.53125 0.08203,-0.871094 l 0.753906,-3.011719 h -1.453125 l 0.179688,-0.730468 h 1.457031 l 0.332031,-1.34375 h 0.953125 z m 7.703125,0.05859 c -0.375,0 -0.734375,0.08203 -1.070313,0.25 -0.34375,0.167969 -0.660156,0.394531 -0.945312,0.6875 l -0.394531,0.394531 0.144531,-0.683593 0.144531,-0.738281 0.160156,0.03125 v 0.164062 h -0.898437 v -0.164062 l 0.160156,0.03906 -1.386719,5.539062 L 49,20.214844 v -0.160156 h 0.953125 v 0.160156 l -0.160156,-0.03906 0.894531,-3.574219 0.01563,-0.02344 c 0.109375,-0.179687 0.230469,-0.34375 0.367187,-0.488281 0.136719,-0.148438 0.289063,-0.273438 0.449219,-0.378906 0.179688,-0.117188 0.378907,-0.207032 0.597657,-0.265626 0.214843,-0.0625 0.449218,-0.08984 0.695312,-0.08984 0.1875,0 0.363281,0.0078 0.53125,0.02734 0.167969,0.01953 0.339844,0.05078 0.519531,0.09375 l -0.03516,0.160157 -0.152344,-0.05859 0.359375,-0.929687 0.152344,0.0625 -0.07031,0.144531 c -0.07031,-0.03125 -0.1875,-0.05859 -0.355469,-0.08203 -0.175781,-0.02344 -0.347657,-0.03516 -0.515625,-0.03516 z m 0,-0.324219 c 0.183594,0 0.367187,0.01172 0.558594,0.03516 0.199218,0.02734 0.351562,0.0625 0.453124,0.113281 l 0.136719,0.06641 -0.464843,1.199219 -0.140626,-0.03125 c -0.167968,-0.04297 -0.328124,-0.07031 -0.484374,-0.08984 -0.152344,-0.01563 -0.316407,-0.02344 -0.492188,-0.02344 -0.21875,0 -0.417969,0.02344 -0.605469,0.07813 -0.1875,0.05078 -0.355469,0.125 -0.511719,0.226562 -0.136718,0.08984 -0.265624,0.195313 -0.386718,0.324219 -0.117188,0.128906 -0.230469,0.277344 -0.328125,0.4375 L 50.839844,16.664062 51,16.703125 50.082031,20.378906 h -1.289062 l 1.464843,-5.863281 h 1.226563 l -0.183594,0.9375 -0.02734,0.140625 -0.160157,-0.03516 -0.117187,-0.113282 C 51.3125,15.125 51.65625,14.875 52.03125,14.691406 c 0.382812,-0.1875 0.789062,-0.277344 1.214844,-0.277344 z m 0,0.160157 c 0.175781,0 0.355468,0.01563 0.539062,0.03906 0.183594,0.02344 0.316406,0.05469 0.402344,0.09766 l -0.359375,0.925781 c -0.175781,-0.04297 -0.34375,-0.07031 -0.503906,-0.08984 -0.160157,-0.01953 -0.332031,-0.02734 -0.511719,-0.02734 -0.230469,0 -0.449219,0.02734 -0.652344,0.08203 -0.199218,0.05859 -0.386718,0.140626 -0.550781,0.25 -0.152344,0.09375 -0.289063,0.210938 -0.417969,0.351563 -0.128906,0.136719 -0.246094,0.289063 -0.351562,0.460937 l -0.886719,3.550782 H 49 l 1.386719,-5.535156 h 0.898437 l -0.144531,0.742187 -0.02734,0.136719 c 0.300781,-0.304688 0.632813,-0.542969 0.992188,-0.71875 0.359375,-0.175782 0.738281,-0.265625 1.140625,-0.265625 z m 4.890625,5.480469 H 59.125 v 0.160156 l -0.15625,-0.03906 0.01953,-0.08203 0.160157,0.04297 -0.164063,0.02344 c -0.02344,-0.167968 -0.02734,-0.359375 -0.0078,-0.578125 0.01563,-0.214843 0.05078,-0.421875 0.09766,-0.613281 l 0.644531,-2.574219 c 0.07031,-0.285156 0.08203,-0.53125 0.03516,-0.738281 -0.05078,-0.199219 -0.140625,-0.371094 -0.273437,-0.503906 l 0.117187,-0.117188 -0.113281,0.121094 c -0.140625,-0.136719 -0.324219,-0.238281 -0.550781,-0.308594 -0.234375,-0.07031 -0.5,-0.109375 -0.796875,-0.109375 -0.328125,0 -0.632813,0.04687 -0.910157,0.136719 -0.28125,0.08984 -0.527343,0.207031 -0.742187,0.355469 -0.214844,0.144531 -0.390625,0.308593 -0.53125,0.488281 -0.132813,0.179688 -0.226563,0.355469 -0.273437,0.539062 l -0.160157,-0.04297 v -0.164063 h 0.953125 v 0.164063 L 56.3125,16.175781 c 0.03516,-0.140625 0.101562,-0.273437 0.199219,-0.398437 0.09375,-0.121094 0.210937,-0.226563 0.347656,-0.316406 0.136719,-0.08594 0.289063,-0.15625 0.464844,-0.207032 0.175781,-0.05469 0.367187,-0.07813 0.570312,-0.07813 0.21875,0 0.410157,0.02734 0.578125,0.08594 0.175782,0.05859 0.316406,0.144531 0.421875,0.253906 l 0.0039,0.0039 c 0.109374,0.117188 0.179687,0.257813 0.214843,0.421875 0.03516,0.15625 0.02734,0.332032 -0.02344,0.523438 l -0.136719,0.558594 h -1.164063 c -0.371093,0 -0.71875,0.03516 -1.039062,0.109374 -0.3125,0.07031 -0.59375,0.175782 -0.839844,0.316407 -0.238281,0.144531 -0.445312,0.320312 -0.609375,0.535156 -0.164062,0.210937 -0.28125,0.457031 -0.351562,0.738281 -0.05078,0.207032 -0.05859,0.398438 -0.02344,0.574219 0.03516,0.167969 0.105469,0.316406 0.21875,0.433594 v 0.0039 c 0.109375,0.128906 0.261719,0.230469 0.453125,0.304687 0.195313,0.07813 0.429688,0.117188 0.703125,0.117188 0.167969,0 0.332031,-0.01953 0.492188,-0.05469 0.160156,-0.03516 0.316406,-0.08203 0.464843,-0.144531 0.148438,-0.0625 0.289063,-0.132812 0.417969,-0.210937 0.136719,-0.08203 0.257813,-0.171875 0.371094,-0.261719 l 0.332031,-0.265625 -0.06641,0.421875 c -0.01953,0.109375 -0.02734,0.214844 -0.03125,0.316406 -0.0039,0.08984 0,0.160157 0.01563,0.214844 l -0.160156,0.04297 z m 0,0.324218 h -0.125 l -0.03125,-0.117187 c -0.02344,-0.08984 -0.03516,-0.195313 -0.02734,-0.320313 0.0039,-0.113281 0.01563,-0.234375 0.03516,-0.355468 l 0.164063,0.02734 0.101562,0.128907 c -0.125,0.09766 -0.261718,0.191406 -0.40625,0.28125 -0.144531,0.08984 -0.300781,0.167968 -0.464844,0.238281 -0.167968,0.06641 -0.34375,0.121093 -0.519531,0.160156 -0.183593,0.03906 -0.371093,0.0625 -0.5625,0.0625 -0.316406,0 -0.589843,-0.04687 -0.824219,-0.140625 C 55.234375,20.25 55.042969,20.117188 54.898438,19.949219 l 0.125,-0.105469 -0.121094,0.109375 c -0.152344,-0.164063 -0.25,-0.363281 -0.296875,-0.59375 -0.04687,-0.222656 -0.03906,-0.460937 0.02734,-0.71875 0.08203,-0.324219 0.21875,-0.613281 0.410157,-0.859375 0.191406,-0.246094 0.425781,-0.449219 0.703125,-0.613281 0.273437,-0.160157 0.585937,-0.277344 0.933594,-0.355469 0.34375,-0.07813 0.710937,-0.117188 1.109374,-0.117188 h 1.035157 v 0.164063 l -0.160157,-0.03906 0.109376,-0.4375 c 0.03516,-0.140624 0.04297,-0.265624 0.01953,-0.375 -0.02344,-0.105468 -0.06641,-0.191406 -0.136719,-0.265624 l 0.121094,-0.113282 -0.117188,0.117188 c -0.07031,-0.07422 -0.167968,-0.132813 -0.292968,-0.175782 -0.132813,-0.04687 -0.289063,-0.06641 -0.472657,-0.06641 -0.171875,0 -0.332031,0.01953 -0.476562,0.0625 -0.144531,0.04297 -0.273438,0.101563 -0.382813,0.171875 -0.105468,0.06641 -0.195312,0.148438 -0.265625,0.242188 -0.07031,0.08984 -0.113281,0.179687 -0.136719,0.273437 l -0.03125,0.125 H 55.30859 l 0.05469,-0.207031 c 0.05859,-0.222656 0.167969,-0.441406 0.332031,-0.652344 0.160157,-0.207031 0.363282,-0.394531 0.605469,-0.5625 0.238281,-0.160156 0.515625,-0.292969 0.824219,-0.394531 0.3125,-0.101562 0.648438,-0.148438 1.011719,-0.148438 0.328125,0 0.628906,0.03906 0.894531,0.121094 0.273438,0.08203 0.5,0.210938 0.679688,0.382813 v 0.0039 h 0.0039 c 0.175781,0.179687 0.292968,0.398437 0.355468,0.660156 0.0625,0.257813 0.05078,0.554688 -0.03516,0.890625 l -0.644531,2.574219 c -0.04297,0.175781 -0.07422,0.363281 -0.08984,0.5625 -0.01563,0.191406 -0.01172,0.359375 0.0078,0.5 l 0.0039,0.03516 -0.05859,0.234375 z m -1.492188,-0.71875 c -0.203125,0 -0.378906,-0.02734 -0.523437,-0.08203 -0.15625,-0.05859 -0.28125,-0.140625 -0.367188,-0.25 l 0.125,-0.105469 -0.125,0.109375 c -0.08984,-0.105469 -0.148437,-0.234375 -0.171875,-0.382812 -0.01953,-0.136719 -0.0078,-0.285157 0.03125,-0.441407 0.03906,-0.164062 0.105469,-0.308593 0.199219,-0.4375 0.09375,-0.128906 0.210938,-0.242187 0.347656,-0.335937 0.191406,-0.125 0.425782,-0.21875 0.703125,-0.28125 0.269531,-0.05859 0.574219,-0.08594 0.914063,-0.08594 h 1.089844 l -0.339844,1.355468 -0.01953,0.02734 c -0.08984,0.117188 -0.199218,0.230469 -0.332031,0.339844 -0.128906,0.109375 -0.273437,0.207031 -0.433593,0.289062 -0.164063,0.08594 -0.335938,0.152344 -0.519532,0.203125 -0.1875,0.05078 -0.378906,0.07813 -0.578125,0.07813 z m 0,-0.328125 c 0.167969,0 0.332031,-0.02344 0.492188,-0.06641 0.160156,-0.04297 0.3125,-0.105469 0.453125,-0.175781 0.140625,-0.07422 0.265625,-0.15625 0.378906,-0.25 0.109375,-0.09375 0.203125,-0.1875 0.277344,-0.289063 l 0.128906,0.101563 -0.15625,-0.04297 0.277344,-1.121094 0.160156,0.04297 v 0.160156 h -0.878906 c -0.316406,0 -0.597656,0.02734 -0.84375,0.08203 -0.238282,0.05078 -0.433594,0.128906 -0.589844,0.234374 -0.105469,0.07031 -0.195312,0.15625 -0.265625,0.253907 -0.06641,0.09375 -0.117187,0.203125 -0.148437,0.324219 -0.02734,0.117187 -0.03516,0.222656 -0.02344,0.316406 0.01172,0.08594 0.04297,0.15625 0.09375,0.214844 h 0.0039 v 0.0039 c 0.05078,0.0625 0.128906,0.109375 0.230469,0.148437 0.109375,0.04297 0.246094,0.0625 0.410156,0.0625 z m 0,0.164063 c 0.183594,0 0.363281,-0.02344 0.535157,-0.07422 0.171874,-0.04687 0.335937,-0.109375 0.488281,-0.1875 0.148437,-0.07813 0.285156,-0.167969 0.402343,-0.269531 0.121094,-0.101563 0.222657,-0.207032 0.304688,-0.3125 l 0.28125,-1.121094 h -0.878906 c -0.328125,0 -0.621094,0.02734 -0.878906,0.08203 -0.257813,0.05859 -0.472657,0.144531 -0.644532,0.257813 -0.125,0.08203 -0.226562,0.179687 -0.308594,0.292968 -0.08203,0.113282 -0.136718,0.242188 -0.175781,0.382813 -0.03125,0.136719 -0.04297,0.265625 -0.02344,0.378906 0.01563,0.117188 0.0625,0.214844 0.132812,0.296875 0.07031,0.08594 0.167969,0.152344 0.296875,0.199219 0.128907,0.05078 0.285157,0.07422 0.46875,0.07422 z m 1.492188,0.71875 c -0.01953,-0.07031 -0.02734,-0.160156 -0.01953,-0.265625 0.0039,-0.109375 0.01562,-0.21875 0.03516,-0.335938 -0.121094,0.09375 -0.25,0.183594 -0.390625,0.269531 -0.136719,0.08594 -0.285157,0.160157 -0.441407,0.226563 -0.160156,0.06641 -0.324218,0.117187 -0.492187,0.152344 -0.171875,0.03906 -0.347656,0.05859 -0.527344,0.05859 -0.292969,0 -0.546875,-0.04297 -0.765625,-0.128906 -0.214844,-0.08594 -0.386718,-0.203125 -0.511718,-0.347656 -0.132813,-0.144531 -0.21875,-0.316406 -0.257813,-0.515625 -0.04297,-0.199219 -0.03125,-0.414063 0.02344,-0.648437 0.07813,-0.300782 0.203126,-0.570313 0.382813,-0.796876 0.179687,-0.230468 0.398437,-0.417968 0.65625,-0.574218 0.261719,-0.148438 0.554687,-0.261719 0.886719,-0.335938 0.332031,-0.07422 0.691406,-0.113281 1.074218,-0.113281 h 1.035157 l 0.109375,-0.433594 c 0.03906,-0.167969 0.04687,-0.320312 0.01953,-0.453125 -0.02734,-0.132812 -0.08594,-0.246094 -0.175781,-0.34375 -0.08984,-0.08984 -0.207032,-0.164062 -0.359375,-0.214844 -0.148438,-0.05078 -0.324219,-0.07422 -0.523438,-0.07422 -0.1875,0 -0.363281,0.02344 -0.523437,0.07031 -0.160156,0.04687 -0.300782,0.109375 -0.421875,0.191406 -0.125,0.07813 -0.226563,0.167969 -0.308594,0.277344 -0.08203,0.105469 -0.140625,0.21875 -0.167969,0.335938 h -0.953125 c 0.05469,-0.203125 0.15625,-0.398438 0.304688,-0.59375 0.148437,-0.195313 0.339843,-0.371094 0.570312,-0.527344 0.226563,-0.152344 0.484375,-0.277344 0.78125,-0.375 0.296875,-0.09375 0.613281,-0.144531 0.960938,-0.144531 0.3125,0 0.59375,0.03906 0.84375,0.117187 0.253906,0.07813 0.457031,0.191406 0.617187,0.34375 0.15625,0.160156 0.257813,0.351563 0.3125,0.585938 0.05469,0.230468 0.04297,0.503906 -0.03125,0.8125 l -0.644531,2.574218 c -0.04687,0.183594 -0.07813,0.378907 -0.09766,0.585938 -0.01563,0.207031 -0.01172,0.386719 0.01172,0.542969 l -0.02344,0.07813 z m 5.179687,-0.5 c -0.332031,0 -0.597656,-0.06641 -0.792968,-0.207032 -0.199219,-0.136718 -0.339844,-0.316406 -0.425782,-0.539062 l 0.15625,-0.05859 -0.152344,0.0625 c -0.08594,-0.207031 -0.125,-0.441406 -0.117187,-0.703125 0.0078,-0.25 0.04297,-0.5 0.105469,-0.753906 l 0.05469,-0.214844 c 0.0625,-0.25 0.148438,-0.496093 0.265625,-0.742187 0.121094,-0.25 0.269532,-0.476563 0.449219,-0.679688 0.183594,-0.203125 0.398437,-0.367187 0.648437,-0.492187 0.25,-0.132813 0.539063,-0.195313 0.855469,-0.195313 0.214844,0 0.40625,0.03516 0.578125,0.109375 0.171875,0.07422 0.3125,0.179688 0.421875,0.3125 0.109375,0.132813 0.179688,0.285157 0.21875,0.460938 0.03906,0.171875 0.03516,0.355469 -0.0078,0.546875 l -0.160157,-0.03906 v -0.164062 h 0.894532 v 0.164062 l -0.15625,-0.03906 c 0.0625,-0.253907 0.07031,-0.492188 0.02344,-0.714844 -0.04297,-0.21875 -0.132812,-0.40625 -0.269531,-0.566406 l 0.125,-0.105469 -0.121094,0.105469 c -0.140625,-0.15625 -0.324218,-0.285157 -0.550781,-0.378907 -0.226563,-0.09375 -0.496094,-0.144531 -0.800781,-0.144531 -0.398438,0 -0.761719,0.07422 -1.089844,0.214844 -0.335938,0.140625 -0.632812,0.332031 -0.890625,0.570313 -0.261719,0.246093 -0.484375,0.527343 -0.664063,0.847656 -0.183593,0.320312 -0.316406,0.65625 -0.40625,1.007812 l -0.05078,0.214844 c -0.08984,0.351562 -0.125,0.6875 -0.101562,1.003906 0.01953,0.304688 0.09766,0.574219 0.234375,0.804688 0.128906,0.230468 0.320312,0.414062 0.566406,0.546875 0.253906,0.136719 0.574219,0.207031 0.96875,0.207031 0.273438,0 0.550781,-0.04687 0.828125,-0.144531 0.28125,-0.09375 0.539063,-0.222657 0.777344,-0.386719 0.238281,-0.15625 0.441406,-0.34375 0.613281,-0.554688 0.164062,-0.203124 0.277344,-0.417968 0.335938,-0.640624 l 0.15625,0.04297 v 0.164063 h -0.894532 v -0.164063 l 0.160156,0.04297 c -0.05078,0.175781 -0.136718,0.339844 -0.261718,0.488281 -0.121094,0.144532 -0.261719,0.269532 -0.425782,0.375 -0.164062,0.105469 -0.339843,0.1875 -0.53125,0.246094 -0.191406,0.05859 -0.378906,0.08984 -0.566406,0.08984 z m 0,-0.328125 c 0.152344,0 0.308594,-0.02344 0.46875,-0.07422 0.164063,-0.05078 0.3125,-0.121094 0.453125,-0.210938 0.132813,-0.08594 0.253907,-0.1875 0.351563,-0.308593 0.09375,-0.113281 0.160156,-0.234375 0.195312,-0.363281 l 0.03125,-0.121094 h 1.234375 l -0.05469,0.203125 c -0.07031,0.269531 -0.203125,0.523437 -0.398438,0.765625 -0.191406,0.238281 -0.417968,0.441406 -0.679687,0.621094 -0.265625,0.175781 -0.550781,0.320312 -0.859375,0.425781 -0.3125,0.105469 -0.625,0.160156 -0.933594,0.160156 -0.449219,0 -0.824219,-0.08203 -1.125,-0.246094 -0.304688,-0.164062 -0.535156,-0.390625 -0.691406,-0.671875 -0.164063,-0.273437 -0.253906,-0.589844 -0.28125,-0.949218 -0.02344,-0.347657 0.01563,-0.714844 0.109375,-1.101563 l 0.05469,-0.214844 c 0.09375,-0.378906 0.242188,-0.742187 0.4375,-1.089843 0.199219,-0.351563 0.441406,-0.65625 0.726563,-0.925782 0.285156,-0.265625 0.613281,-0.476562 0.984375,-0.632812 0.371094,-0.160156 0.777344,-0.238282 1.21875,-0.238282 0.351562,0 0.660156,0.05469 0.929687,0.167969 0.269531,0.113281 0.492188,0.269531 0.667969,0.464844 v 0.0039 c 0.171875,0.199219 0.285156,0.4375 0.34375,0.710938 0.05469,0.269531 0.04297,0.554687 -0.03125,0.859375 l -0.03125,0.125 h -1.230469 l 0.04687,-0.199219 c 0.03516,-0.144531 0.03516,-0.277344 0.0078,-0.402344 -0.02734,-0.125 -0.07813,-0.230469 -0.152344,-0.324219 -0.07422,-0.08984 -0.175781,-0.164062 -0.300781,-0.21875 -0.125,-0.05469 -0.273438,-0.08203 -0.445313,-0.08203 -0.265625,0 -0.5,0.05078 -0.707031,0.15625 -0.210938,0.109375 -0.394531,0.25 -0.550781,0.421875 -0.160157,0.179688 -0.292969,0.378906 -0.398438,0.601563 -0.105469,0.226562 -0.1875,0.453125 -0.246093,0.679687 l -0.05469,0.214844 c -0.05859,0.230469 -0.08984,0.460938 -0.09375,0.683594 -0.0078,0.214844 0.02344,0.40625 0.08984,0.574218 h 0.0039 v 0.0039 c 0.05859,0.15625 0.160156,0.285156 0.300781,0.382812 0.144531,0.101563 0.347657,0.148438 0.609375,0.148438 z m 0,0.164062 c 0.167969,0 0.34375,-0.02734 0.519532,-0.08203 0.175781,-0.05469 0.339843,-0.128906 0.488281,-0.230469 0.152343,-0.09375 0.28125,-0.207031 0.390625,-0.339843 0.109375,-0.132813 0.183594,-0.273438 0.226562,-0.425782 h 0.894532 c -0.0625,0.246094 -0.1875,0.480469 -0.367188,0.703125 -0.179688,0.222657 -0.394531,0.417969 -0.644531,0.585938 -0.25,0.171875 -0.523438,0.304687 -0.816407,0.40625 -0.296874,0.101562 -0.589843,0.152343 -0.882812,0.152343 -0.421875,0 -0.769531,-0.07812 -1.046875,-0.226562 -0.273437,-0.148438 -0.484375,-0.351562 -0.628906,-0.609375 -0.148438,-0.253906 -0.234375,-0.542969 -0.257813,-0.878906 -0.02344,-0.332031 0.01172,-0.683594 0.105469,-1.050781 l 0.05469,-0.214844 c 0.08984,-0.363282 0.230469,-0.714844 0.417969,-1.050782 0.191407,-0.332031 0.421875,-0.628906 0.699219,-0.882812 0.269531,-0.253906 0.582031,-0.453125 0.933594,-0.605469 0.351562,-0.148437 0.738281,-0.226562 1.15625,-0.226562 0.328125,0 0.617187,0.05469 0.863281,0.15625 0.25,0.105469 0.453125,0.246093 0.609375,0.425781 0.152344,0.179688 0.253906,0.390625 0.308594,0.636719 0.05078,0.246093 0.03906,0.511719 -0.03125,0.789062 h -0.894532 c 0.03906,-0.167969 0.04297,-0.324219 0.0078,-0.472656 -0.03125,-0.148437 -0.09375,-0.277344 -0.1875,-0.390625 -0.08984,-0.113281 -0.210937,-0.203125 -0.359375,-0.265625 -0.148438,-0.06641 -0.320312,-0.09766 -0.511719,-0.09766 -0.292969,0 -0.554687,0.05859 -0.78125,0.175781 -0.230469,0.117188 -0.429687,0.269531 -0.597656,0.457031 -0.171875,0.191407 -0.3125,0.40625 -0.425781,0.640625 -0.109375,0.234375 -0.195313,0.472656 -0.257813,0.710938 L 62.25,17.554688 c -0.0625,0.242187 -0.09766,0.480468 -0.101562,0.71875 -0.0078,0.238281 0.02734,0.449218 0.105468,0.636718 0.07031,0.191406 0.191406,0.347656 0.359375,0.464844 0.171875,0.117188 0.40625,0.175781 0.703125,0.175781 z M 71.042969,13.5 H 70.089844 V 13.335938 L 70.25,13.378906 69.882812,14.84375 h -1.582031 v -0.164062 l 0.160157,0.03906 -0.183594,0.730469 -0.160156,-0.03906 v -0.164062 h 1.664062 l -0.804688,3.214844 c -0.07812,0.320312 -0.105468,0.589843 -0.07812,0.8125 0.02734,0.210937 0.08984,0.378906 0.191406,0.503906 0.09766,0.128906 0.234375,0.222656 0.398437,0.28125 0.175781,0.06641 0.378907,0.09766 0.605469,0.09766 0.144531,0 0.289062,-0.0078 0.433594,-0.01953 0.148437,-0.01563 0.289062,-0.03516 0.421875,-0.05859 v -0.0039 h 0.0039 c 0.132813,-0.01953 0.257813,-0.05078 0.371094,-0.08203 0.113281,-0.03516 0.207031,-0.07031 0.289062,-0.113282 l 0.07813,0.144532 -0.164062,-0.0078 0.03125,-0.671875 0.164062,0.0078 0.03516,0.160157 c -0.0625,0.01563 -0.140624,0.03125 -0.238281,0.05078 -0.09375,0.01953 -0.199219,0.03516 -0.308593,0.05469 -0.113282,0.01562 -0.226563,0.03125 -0.339844,0.04297 -0.117188,0.01172 -0.230469,0.01953 -0.339844,0.01953 -0.15625,0 -0.300781,-0.01953 -0.429688,-0.05859 -0.148437,-0.04297 -0.269531,-0.117188 -0.363281,-0.226563 l 0.125,-0.109375 -0.121093,0.109375 c -0.09766,-0.105469 -0.160157,-0.246093 -0.183594,-0.417969 -0.02344,-0.164062 -0.0039,-0.359374 0.05469,-0.597656 l 0.78125,-3.132812 h 2.238281 v 0.164062 l -0.160156,-0.03906 0.183594,-0.730469 0.160156,0.03906 v 0.164062 h -2.320312 l 0.386718,-1.546875 0.160157,0.03906 z M 71.25,13.171875 70.867188,14.71875 70.707031,14.679688 v -0.164063 h 2.316407 l -0.261719,1.058594 h -2.238281 v -0.164063 l 0.160156,0.03906 -0.753906,3.011719 c -0.04688,0.191406 -0.0625,0.351562 -0.04688,0.46875 0.01563,0.105468 0.04688,0.1875 0.101563,0.246093 0.05469,0.0625 0.125,0.105469 0.210937,0.132813 0.09766,0.02734 0.210938,0.04297 0.335938,0.04297 0.09766,0 0.199219,-0.0039 0.304688,-0.01562 0.109374,-0.01172 0.21875,-0.02734 0.324218,-0.04297 0.105469,-0.01563 0.203125,-0.03516 0.296875,-0.05469 0.09375,-0.01563 0.171875,-0.03125 0.230469,-0.04687 l 0.210938,-0.04687 -0.05078,0.980469 -0.08203,0.04297 c -0.101563,0.05078 -0.214844,0.09766 -0.347656,0.136719 -0.128907,0.03906 -0.265625,0.07031 -0.410157,0.09375 l -0.02734,-0.160157 0.03125,0.160157 c -0.144531,0.02734 -0.296875,0.05078 -0.453125,0.0625 -0.15625,0.01562 -0.3125,0.02344 -0.464844,0.02344 -0.261719,0 -0.503906,-0.03906 -0.714844,-0.117187 -0.226562,-0.07813 -0.410156,-0.207032 -0.546875,-0.386719 -0.136719,-0.171875 -0.222656,-0.394531 -0.257812,-0.667969 -0.03125,-0.261719 -0.0039,-0.570312 0.08594,-0.933594 l 0.753906,-3.007812 0.15625,0.03906 v 0.164063 h -1.660156 l 0.261719,-1.058594 h 1.582031 V 14.6797 l -0.15625,-0.03906 0.363282,-1.46875 z m -0.542969,1.507813 h 2.109375 l -0.183594,0.730468 h -2.109374 l -0.753907,3.011719 c -0.05078,0.214844 -0.07031,0.390625 -0.05078,0.53125 0.01953,0.140625 0.06641,0.25 0.144531,0.332031 0.07422,0.08594 0.167969,0.144532 0.285157,0.179688 0.113281,0.03516 0.242187,0.05078 0.382812,0.05078 0.101562,0 0.210938,-0.0078 0.320312,-0.01953 0.113282,-0.01172 0.226563,-0.02344 0.335938,-0.04297 0.105469,-0.01563 0.207031,-0.03516 0.300781,-0.05469 0.09766,-0.01563 0.175781,-0.03125 0.234375,-0.04688 l -0.03125,0.671876 c -0.09375,0.04687 -0.199218,0.08984 -0.320312,0.125 -0.121094,0.03516 -0.25,0.06641 -0.390625,0.08984 -0.140625,0.02734 -0.285157,0.04687 -0.4375,0.05859 -0.152344,0.01563 -0.300781,0.02344 -0.449219,0.02344 -0.246094,0 -0.464844,-0.03516 -0.660156,-0.105468 -0.195313,-0.07031 -0.355469,-0.183594 -0.472656,-0.335938 -0.117188,-0.148437 -0.195313,-0.34375 -0.222657,-0.585937 -0.03125,-0.242188 -0.0039,-0.53125 0.08203,-0.871094 l 0.75,-3.011719 h -1.453124 l 0.183593,-0.730468 h 1.453125 l 0.335938,-1.34375 h 0.953125 z m 8.050781,3.457031 H 77.8125 v -0.160157 l 0.152344,0.05859 c -0.09375,0.234375 -0.203125,0.453125 -0.332032,0.65625 -0.128906,0.203125 -0.285156,0.382813 -0.457031,0.535156 -0.175781,0.152348 -0.375,0.273442 -0.59375,0.35938 -0.222656,0.08594 -0.464843,0.128906 -0.734375,0.128906 -0.253906,0 -0.46875,-0.04297 -0.644531,-0.125 -0.175781,-0.08594 -0.320313,-0.203125 -0.429687,-0.355469 -0.109376,-0.144531 -0.183594,-0.308594 -0.230469,-0.5 -0.04297,-0.179687 -0.06641,-0.371094 -0.07031,-0.574219 -0.0039,-0.195312 0.0078,-0.394531 0.03516,-0.597656 0.02734,-0.203125 0.06641,-0.398438 0.113282,-0.589844 l 0.261718,-1.050781 c 0.05078,-0.1875 0.109376,-0.382813 0.183594,-0.585937 0.07422,-0.203126 0.160156,-0.402344 0.261719,-0.59375 0.101563,-0.195313 0.21875,-0.382813 0.347656,-0.554688 0.136719,-0.179688 0.285157,-0.335938 0.457031,-0.472656 0.164063,-0.136719 0.351563,-0.242188 0.558594,-0.324219 0.210938,-0.07813 0.4375,-0.121094 0.683594,-0.121094 0.277344,0 0.507812,0.05078 0.691406,0.144531 0.1875,0.09766 0.335938,0.234376 0.441406,0.40625 0.101563,0.167969 0.167969,0.359376 0.195313,0.574219 0.03125,0.207031 0.03125,0.433594 0.0039,0.671875 l -0.164062,-0.01953 v -0.164063 h 0.945312 v 0.164063 l -0.160156,-0.02344 c 0.04687,-0.335938 0.04297,-0.644532 -0.0078,-0.917969 -0.05078,-0.269531 -0.148437,-0.5 -0.292968,-0.691407 -0.140625,-0.183593 -0.332032,-0.328124 -0.570313,-0.429687 -0.242187,-0.105469 -0.539062,-0.160156 -0.890625,-0.160156 -0.292968,0 -0.566406,0.04297 -0.820312,0.125 -0.257813,0.08203 -0.496094,0.195312 -0.714844,0.339843 -0.226562,0.148438 -0.429688,0.320313 -0.617188,0.519532 -0.1875,0.203125 -0.355468,0.421875 -0.5,0.660156 -0.15625,0.238281 -0.285156,0.488281 -0.394531,0.75 -0.109375,0.261719 -0.203125,0.527344 -0.273437,0.796875 l -0.257813,1.035156 c -0.0625,0.269531 -0.105469,0.53125 -0.125,0.792969 -0.02344,0.257812 -0.01563,0.503906 0.01563,0.738281 0.03125,0.230469 0.08594,0.445313 0.167969,0.636719 0.08203,0.191406 0.195313,0.351562 0.339844,0.492188 0.140625,0.136718 0.3125,0.246093 0.519531,0.324218 0.210938,0.08203 0.460938,0.121094 0.746094,0.121094 0.339844,0 0.660156,-0.05469 0.964844,-0.164062 0.304687,-0.105469 0.582031,-0.261719 0.835937,-0.457032 0.25,-0.195312 0.472656,-0.429687 0.667969,-0.707031 0.195312,-0.277344 0.359375,-0.578125 0.484375,-0.910156 l 0.152343,0.05859 z m 0,-0.324219 h 0.238282 l -0.08594,0.21875 c -0.132812,0.359375 -0.308594,0.6875 -0.523437,0.988281 -0.214844,0.300781 -0.457031,0.558594 -0.734375,0.773438 -0.28125,0.21875 -0.589844,0.390625 -0.925782,0.507812 -0.339843,0.121094 -0.695312,0.183594 -1.074218,0.183594 -0.324219,0 -0.613282,-0.04687 -0.859375,-0.144531 -0.253907,-0.09375 -0.464844,-0.226563 -0.636719,-0.394532 -0.171875,-0.167968 -0.308594,-0.367187 -0.410156,-0.59375 -0.09375,-0.222656 -0.160156,-0.464843 -0.191406,-0.726562 -0.03516,-0.253906 -0.04297,-0.523438 -0.01953,-0.804688 0.02344,-0.28125 0.06641,-0.5625 0.136719,-0.847656 l 0.257813,-1.039062 c 0.07422,-0.285156 0.171874,-0.566406 0.285156,-0.84375 0.117187,-0.277344 0.257812,-0.542969 0.417968,-0.796875 0.160157,-0.253907 0.339844,-0.488281 0.542969,-0.707031 0.203125,-0.21875 0.425781,-0.410157 0.675781,-0.570313 0.242188,-0.160156 0.507813,-0.289063 0.792969,-0.378906 0.289063,-0.09375 0.597657,-0.140625 0.921875,-0.140625 0.394532,0 0.734375,0.0625 1.023438,0.1875 0.289062,0.125 0.523437,0.304687 0.699218,0.535156 0.175782,0.230469 0.292969,0.507812 0.351563,0.824219 0.05859,0.3125 0.0625,0.652343 0.01172,1.027343 l -0.01953,0.140626 h -1.273437 l 0.01953,-0.183594 c 0.02734,-0.210938 0.02344,-0.40625 0,-0.585938 -0.02344,-0.171875 -0.07422,-0.324218 -0.152344,-0.449218 -0.07031,-0.121094 -0.175781,-0.21875 -0.3125,-0.285157 -0.136718,-0.07422 -0.316406,-0.109375 -0.539062,-0.109375 -0.203125,0 -0.394531,0.03516 -0.566406,0.101563 -0.171875,0.06641 -0.332032,0.15625 -0.472656,0.273437 -0.148438,0.117188 -0.277344,0.253906 -0.394532,0.410156 -0.121094,0.160157 -0.230468,0.328126 -0.324218,0.507813 -0.09375,0.183594 -0.175782,0.367187 -0.242188,0.558594 -0.07031,0.191406 -0.128906,0.375 -0.171875,0.554687 l -0.261719,1.046875 c -0.04687,0.179688 -0.08203,0.363281 -0.109375,0.554688 -0.02344,0.1875 -0.03516,0.371093 -0.03125,0.550781 0.0039,0.179688 0.02344,0.347656 0.0625,0.503906 0.03516,0.144532 0.09375,0.269532 0.175781,0.378906 0.07813,0.109376 0.179688,0.191407 0.304688,0.253907 0.132812,0.0625 0.296875,0.09375 0.503906,0.09375 0.226563,0 0.433594,-0.03516 0.617188,-0.105469 0.183594,-0.07031 0.347656,-0.171875 0.496094,-0.304688 0.148437,-0.128906 0.28125,-0.285156 0.398437,-0.464843 0.117187,-0.183594 0.214844,-0.382813 0.300781,-0.597657 l 0.03906,-0.101562 z m 0,0.164062 c -0.128906,0.34375 -0.296874,0.660157 -0.503906,0.949219 -0.203125,0.285157 -0.4375,0.535157 -0.699218,0.738281 -0.269532,0.207032 -0.5625,0.371094 -0.882813,0.484376 -0.320313,0.113281 -0.660156,0.171874 -1.019531,0.171874 -0.304688,0 -0.574219,-0.04297 -0.804688,-0.132812 -0.226562,-0.08594 -0.417968,-0.207031 -0.574218,-0.359375 -0.160157,-0.152344 -0.285157,-0.335937 -0.375,-0.542969 -0.08984,-0.207031 -0.148438,-0.433594 -0.179688,-0.679687 -0.03516,-0.246094 -0.04297,-0.503907 -0.01953,-0.773438 0.01953,-0.269531 0.0625,-0.542969 0.128906,-0.820312 l 0.261719,-1.039063 c 0.07031,-0.277344 0.164062,-0.546875 0.277344,-0.816406 0.113281,-0.269531 0.25,-0.527344 0.40625,-0.773438 0.152343,-0.246093 0.328124,-0.476562 0.519531,-0.683593 0.195312,-0.210938 0.410156,-0.390625 0.648437,-0.546875 0.230469,-0.152344 0.484375,-0.273438 0.753906,-0.359375 0.273438,-0.08594 0.5625,-0.132813 0.871094,-0.132813 0.375,0 0.691406,0.05859 0.957032,0.171875 0.265624,0.117188 0.476562,0.277344 0.636718,0.484375 0.160156,0.210938 0.265625,0.464844 0.320313,0.757813 0.05469,0.292969 0.05859,0.617187 0.0078,0.972656 h -0.945312 c 0.02734,-0.226563 0.02344,-0.433594 0,-0.628906 -0.02734,-0.195313 -0.08594,-0.367188 -0.175781,-0.511719 -0.08984,-0.148438 -0.214844,-0.261719 -0.375,-0.347656 -0.164063,-0.08203 -0.367188,-0.125 -0.617188,-0.125 -0.226562,0 -0.433594,0.03906 -0.625,0.109375 -0.191406,0.07422 -0.363281,0.175781 -0.515625,0.300781 -0.160156,0.125 -0.300781,0.273438 -0.425781,0.441406 -0.125,0.167969 -0.238282,0.34375 -0.335938,0.53125 -0.09766,0.1875 -0.183594,0.378906 -0.253906,0.574219 -0.07031,0.199219 -0.128906,0.386719 -0.175781,0.574219 l -0.261719,1.046875 c -0.04687,0.183593 -0.08203,0.375 -0.109375,0.570312 -0.02734,0.199219 -0.03906,0.390625 -0.03516,0.578125 0.0039,0.191406 0.02734,0.371094 0.06641,0.535156 0.03906,0.167969 0.105469,0.316407 0.203125,0.441407 0.09375,0.128906 0.214844,0.230469 0.367188,0.304687 0.152343,0.07422 0.34375,0.109375 0.574218,0.109375 0.246094,0 0.472656,-0.03906 0.675782,-0.117187 0.203124,-0.07813 0.382812,-0.1875 0.546874,-0.332032 0.160157,-0.140624 0.300782,-0.308593 0.425782,-0.5 0.121094,-0.191406 0.226562,-0.402343 0.316406,-0.625 z m 1.5,-0.539062 -0.02734,0.109375 c -0.09375,0.382813 -0.128907,0.734375 -0.09766,1.058594 0.02734,0.316406 0.113282,0.589843 0.253907,0.820312 0.136719,0.226563 0.328125,0.402344 0.578125,0.53125 0.253906,0.132813 0.5625,0.199219 0.929687,0.199219 0.367188,0 0.710938,-0.07031 1.039063,-0.203125 0.328125,-0.136719 0.628906,-0.324219 0.894531,-0.566406 0.265625,-0.238281 0.496094,-0.523438 0.6875,-0.851563 0.195313,-0.328125 0.339844,-0.683594 0.433594,-1.066406 l 0.02734,-0.113281 c 0.09766,-0.378907 0.128907,-0.734375 0.101563,-1.058594 -0.02734,-0.316406 -0.113281,-0.589844 -0.25,-0.824219 C 84.6875,15.25 84.496094,15.070312 84.246094,14.9375 c -0.253906,-0.132812 -0.5625,-0.199219 -0.925782,-0.199219 -0.367187,0 -0.714843,0.07031 -1.042968,0.207031 -0.328125,0.136719 -0.625,0.324219 -0.890625,0.566407 -0.269531,0.242187 -0.5,0.527343 -0.691407,0.855469 -0.195312,0.328124 -0.339843,0.683593 -0.4375,1.070312 z m -0.316406,-0.08203 c 0.105469,-0.414063 0.261719,-0.800781 0.46875,-1.15625 0.210938,-0.355469 0.464844,-0.667969 0.757813,-0.929688 0.292969,-0.265625 0.621093,-0.476562 0.984375,-0.628906 0.367187,-0.152344 0.753906,-0.226563 1.167968,-0.226563 0.417969,0 0.777344,0.07813 1.078126,0.234376 0.300781,0.160156 0.539062,0.378906 0.710937,0.65625 0.164063,0.273437 0.261719,0.597656 0.296875,0.964843 0.03125,0.359375 -0.0078,0.75 -0.109375,1.167969 l -0.02734,0.109375 c -0.105469,0.417969 -0.261719,0.800781 -0.472656,1.15625 -0.207031,0.355469 -0.457031,0.664063 -0.75,0.929687 -0.292969,0.265626 -0.625,0.472657 -0.988281,0.621094 -0.367188,0.152344 -0.753906,0.230469 -1.164063,0.230469 -0.421875,0 -0.78125,-0.07813 -1.078125,-0.234375 C 80.511719,20.09375 80.273438,19.875 80.109375,19.597656 79.9375,19.320312 79.839844,19 79.804688,18.632812 c -0.03125,-0.359374 0.0039,-0.746093 0.109374,-1.164062 z m 0.917969,0.113281 0.02734,-0.113281 c 0.07031,-0.28125 0.171875,-0.550781 0.304687,-0.808594 0.136719,-0.261719 0.296875,-0.492187 0.488282,-0.691406 0.191406,-0.203125 0.40625,-0.363281 0.644531,-0.480469 0.246093,-0.125 0.511719,-0.183594 0.800781,-0.183594 0.292969,0 0.539062,0.0625 0.734375,0.191406 0.195313,0.128907 0.34375,0.300782 0.441406,0.515626 0.09375,0.210937 0.140625,0.449218 0.148438,0.71875 0.0039,0.261718 -0.02734,0.535156 -0.101563,0.820312 l -0.02734,0.109375 c -0.07031,0.285156 -0.171874,0.558594 -0.304687,0.816406 -0.132813,0.261719 -0.292969,0.492188 -0.480469,0.691407 -0.195312,0.203124 -0.414062,0.363281 -0.652344,0.480468 -0.246093,0.121094 -0.511718,0.179688 -0.796874,0.179688 -0.296876,0 -0.542969,-0.0625 -0.738282,-0.1875 C 81.148438,19.398438 81,19.226562 80.90625,19.007812 80.808594,18.800781 80.761719,18.5625 80.757812,18.292969 c -0.0039,-0.261719 0.03125,-0.535157 0.101563,-0.824219 z m 0.320313,0.07813 c -0.06641,0.261719 -0.09766,0.507813 -0.09375,0.742187 0,0.222657 0.04297,0.417969 0.117187,0.585938 0.07031,0.160156 0.175781,0.28125 0.320313,0.375 0.144531,0.08984 0.332031,0.136719 0.5625,0.136719 0.234374,0 0.449218,-0.04687 0.652343,-0.144531 0.207031,-0.101563 0.390625,-0.238282 0.558594,-0.414063 0.164063,-0.175781 0.308594,-0.378906 0.425781,-0.613281 0.121094,-0.234375 0.214844,-0.484375 0.28125,-0.746094 l 0.02734,-0.113281 c 0.0625,-0.253907 0.09375,-0.5 0.08984,-0.730469 -0.0039,-0.226562 -0.04297,-0.421875 -0.117188,-0.589844 C 83.929688,15.878906 83.824219,15.75 83.679688,15.65625 83.539062,15.5625 83.355469,15.519531 83.125,15.519531 c -0.238281,0 -0.457031,0.04687 -0.65625,0.148438 -0.203125,0.101562 -0.386719,0.238281 -0.550781,0.414062 -0.171875,0.175781 -0.3125,0.378907 -0.433594,0.613281 -0.121094,0.238282 -0.214844,0.484376 -0.277344,0.742188 z m -0.160157,-0.03906 c -0.07031,0.273438 -0.101562,0.535157 -0.09766,0.78125 0.0039,0.246094 0.04687,0.464844 0.132813,0.652344 0.08203,0.1875 0.210937,0.335938 0.378906,0.445313 0.171875,0.109375 0.390625,0.164062 0.652344,0.164062 0.257812,0 0.5,-0.05469 0.722656,-0.164062 0.222656,-0.109375 0.425781,-0.257813 0.605468,-0.445313 0.175782,-0.1875 0.328126,-0.40625 0.457032,-0.652344 0.125,-0.246093 0.222656,-0.507812 0.289062,-0.78125 l 0.03125,-0.113281 c 0.06641,-0.269531 0.09766,-0.527343 0.09375,-0.773437 -0.0039,-0.246094 -0.05078,-0.464844 -0.132812,-0.652344 -0.08594,-0.1875 -0.210938,-0.335938 -0.382813,-0.449219 -0.167969,-0.109375 -0.382812,-0.164062 -0.644531,-0.164062 -0.261719,0 -0.507812,0.05469 -0.726562,0.164062 -0.222657,0.113281 -0.421876,0.261719 -0.601563,0.449219 -0.179687,0.1875 -0.332031,0.40625 -0.457031,0.652344 -0.128906,0.246094 -0.226563,0.503906 -0.292969,0.773437 z M 80.101562,17.39454 c 0.09766,-0.398437 0.25,-0.769531 0.453126,-1.113281 0.199218,-0.339844 0.441406,-0.640625 0.722656,-0.890625 0.277344,-0.253906 0.589844,-0.453125 0.9375,-0.597656 0.347656,-0.144531 0.714844,-0.21875 1.105468,-0.21875 0.390626,0 0.726563,0.07422 1,0.21875 0.277344,0.144531 0.492188,0.34375 0.648438,0.597656 0.152344,0.25 0.242188,0.550781 0.273438,0.890625 0.03125,0.34375 -0.0039,0.714844 -0.105469,1.113281 l -0.02734,0.113281 c -0.101563,0.402344 -0.25,0.769532 -0.453125,1.113282 -0.199219,0.339844 -0.441406,0.636718 -0.71875,0.890625 -0.28125,0.25 -0.59375,0.449219 -0.941406,0.59375 -0.347656,0.140625 -0.714844,0.214843 -1.101563,0.214843 -0.394531,0 -0.726562,-0.07422 -1.003906,-0.214843 -0.277344,-0.144531 -0.492187,-0.34375 -0.644531,-0.59375 C 80.09375,19.257812 80,18.960938 79.96875,18.621094 c -0.03125,-0.34375 0.0039,-0.710938 0.105469,-1.113282 z m 7.671876,-2.550781 h -0.851563 v -0.164062 l 0.160156,0.03906 -1.386719,5.539062 -0.15625,-0.04297 V 20.054688 H 86.4375 v 0.160156 l -0.15625,-0.03906 1.105469,-4.429687 0.01563,-0.02344 c 0.03906,-0.0625 0.08594,-0.121094 0.136718,-0.179687 0.05078,-0.05469 0.109376,-0.105469 0.171876,-0.148438 0.08594,-0.05859 0.183593,-0.101562 0.289062,-0.132812 0.105469,-0.03125 0.222656,-0.04687 0.347656,-0.04687 0.121094,0 0.226563,0.01563 0.316406,0.05078 0.101563,0.03516 0.183594,0.09766 0.242188,0.179687 0.05859,0.08594 0.08984,0.1875 0.09375,0.308594 0.0039,0.101563 -0.01172,0.21875 -0.04297,0.351563 l -1.039062,4.152343 -0.160157,-0.04297 v -0.160156 h 0.902344 v 0.160156 L 88.5,20.175781 l 1.039062,-4.144531 0.01172,-0.05469 0.01563,-0.05469 0.0039,-0.01172 c 0.03516,-0.09766 0.08203,-0.1875 0.136719,-0.269531 0.05859,-0.08203 0.125,-0.15625 0.207031,-0.21875 v -0.0039 h 0.0039 c 0.08203,-0.0625 0.175781,-0.109375 0.28125,-0.148438 0.105469,-0.03516 0.226562,-0.05469 0.355469,-0.05469 0.125,0 0.234374,0.01953 0.328124,0.05078 0.101563,0.03906 0.183594,0.09766 0.242188,0.179687 l 0.0039,0.0039 0.0039,0.0078 c 0.05078,0.08203 0.08203,0.179688 0.08984,0.296875 0.0039,0.105469 -0.0078,0.222656 -0.04297,0.355469 l -1.035157,4.148437 -0.160156,-0.04297 v -0.160156 h 0.902344 v 0.160156 l -0.160157,-0.03906 1.035157,-4.132812 c 0.0625,-0.25 0.08594,-0.464844 0.07813,-0.644531 -0.01172,-0.167969 -0.05078,-0.296876 -0.121094,-0.394532 -0.05859,-0.08203 -0.140625,-0.148437 -0.25,-0.191406 -0.121094,-0.04687 -0.265625,-0.07422 -0.4375,-0.07422 v -0.164062 l 0.0039,0.164062 c -0.125,0.0039 -0.246094,0.02344 -0.359375,0.05078 -0.117187,0.03125 -0.222656,0.07422 -0.320312,0.125 l -0.07813,-0.144531 0.08203,0.144531 c -0.07813,0.04297 -0.15625,0.09766 -0.230469,0.160157 -0.07813,0.0625 -0.144531,0.128906 -0.207031,0.203125 l -0.21875,0.257812 -0.06641,-0.335937 c -0.01172,-0.06641 -0.03125,-0.128907 -0.0625,-0.183594 -0.02344,-0.05078 -0.05859,-0.09375 -0.09766,-0.128906 l 0.109376,-0.121094 -0.101563,0.125 c -0.05859,-0.04687 -0.128906,-0.08203 -0.21875,-0.109375 -0.09375,-0.02734 -0.207031,-0.04297 -0.335937,-0.04297 -0.234376,0.0039 -0.445313,0.05469 -0.628907,0.152344 -0.191406,0.09766 -0.359375,0.238281 -0.507812,0.414063 l -0.285157,-0.136719 0.101563,-0.523438 0.164063,0.03516 z m 0.199218,-0.328125 -0.144531,0.71875 -0.160156,-0.03516 -0.128907,-0.101563 c 0.175782,-0.214844 0.378907,-0.378906 0.609376,-0.496094 0.234374,-0.121093 0.492187,-0.183593 0.78125,-0.1875 0.160156,0 0.304687,0.01563 0.429687,0.05469 0.132813,0.03906 0.242187,0.09375 0.332031,0.171875 h 0.0039 l 0.0039,0.0039 c 0.06641,0.05859 0.121093,0.132813 0.167969,0.21875 0.04297,0.08203 0.07422,0.175781 0.09375,0.277344 l -0.160157,0.02734 -0.125,-0.105469 c 0.07031,-0.08594 0.152344,-0.164062 0.242188,-0.238281 0.08984,-0.07422 0.179687,-0.140625 0.277343,-0.195313 h 0.0039 V 14.625 c 0.121093,-0.0625 0.253906,-0.113281 0.390625,-0.152344 0.136718,-0.03516 0.285156,-0.05469 0.4375,-0.05859 h 0.0039 c 0.214844,0 0.398438,0.03125 0.558594,0.09375 0.167968,0.07031 0.300781,0.171876 0.398437,0.308594 0.105469,0.148438 0.164063,0.335938 0.175781,0.5625 0.01563,0.210938 -0.01562,0.460938 -0.08594,0.742188 l -1.0625,4.257812 h -1.238281 l 1.085937,-4.347656 c 0.02344,-0.101562 0.03516,-0.1875 0.03125,-0.257812 -0.0039,-0.0625 -0.01563,-0.109376 -0.03906,-0.140626 l 0.140625,-0.08984 -0.132813,0.09766 c -0.01953,-0.02734 -0.05469,-0.05078 -0.09766,-0.06641 -0.05469,-0.01953 -0.125,-0.03125 -0.210937,-0.03125 -0.09375,0 -0.175782,0.01172 -0.25,0.03906 -0.07422,0.02344 -0.136719,0.05469 -0.1875,0.09766 l -0.101563,-0.132813 0.101563,0.128906 c -0.05469,0.04687 -0.101563,0.09766 -0.140626,0.152344 -0.03906,0.05859 -0.07422,0.125 -0.101562,0.195313 l -0.152344,-0.05469 0.160156,0.03906 -0.01562,0.05078 -0.01172,0.05078 -1.066407,4.269531 h -1.238281 l 1.085938,-4.351562 c 0.02734,-0.101563 0.03906,-0.1875 0.03516,-0.261719 -0.0039,-0.05859 -0.01563,-0.101563 -0.03516,-0.132813 -0.01953,-0.02734 -0.04687,-0.04687 -0.08594,-0.0625 -0.05078,-0.01562 -0.117187,-0.02734 -0.203125,-0.02734 -0.09766,0 -0.183594,0.01172 -0.257812,0.03125 -0.07422,0.02344 -0.136719,0.05078 -0.191406,0.08984 -0.04297,0.02734 -0.08203,0.0625 -0.121094,0.105469 -0.03516,0.03906 -0.07031,0.08203 -0.09766,0.128907 l -0.140626,-0.08984 0.160157,0.03906 -1.132813,4.53125 h -1.238281 l 1.464844,-5.863281 z m -0.304687,0.683594 c 0.160156,-0.191407 0.347656,-0.34375 0.554687,-0.453125 0.210938,-0.109375 0.445313,-0.167969 0.707032,-0.171875 0.144531,0 0.273437,0.01953 0.382812,0.05078 0.109375,0.03125 0.203125,0.07813 0.273438,0.140625 0.05469,0.04687 0.09766,0.105469 0.136718,0.175781 0.03516,0.06641 0.05859,0.144532 0.07813,0.226563 0.06641,-0.07813 0.140625,-0.148438 0.222657,-0.21875 0.08203,-0.06641 0.167968,-0.128907 0.253906,-0.179688 0.109375,-0.05859 0.226562,-0.101562 0.355468,-0.136719 0.125,-0.03516 0.257813,-0.05469 0.398438,-0.05859 0.191406,0 0.359375,0.03125 0.496094,0.08594 0.140625,0.05859 0.25,0.140625 0.328125,0.25 0.08594,0.121094 0.132812,0.28125 0.144531,0.476563 0.01563,0.195312 -0.01172,0.429687 -0.07813,0.695312 l -1.035156,4.132813 h -0.902344 l 1.039063,-4.144532 c 0.02734,-0.117187 0.03906,-0.21875 0.03516,-0.308593 -0.0039,-0.08594 -0.02734,-0.160157 -0.0625,-0.21875 -0.04297,-0.05469 -0.09766,-0.09375 -0.171875,-0.121094 -0.07422,-0.02734 -0.164063,-0.04297 -0.269531,-0.04297 -0.113282,0 -0.214844,0.01563 -0.304688,0.04687 -0.08594,0.03125 -0.167969,0.07031 -0.234375,0.121094 -0.06641,0.05469 -0.125,0.117187 -0.175781,0.1875 -0.04687,0.07031 -0.08594,0.148437 -0.117188,0.234375 -0.0039,0.01563 -0.0078,0.03125 -0.01172,0.04687 -0.0039,0.01563 -0.0078,0.03516 -0.01563,0.05469 L 88.660154,20.21485 H 87.75781 l 1.039063,-4.148438 c 0.02734,-0.117187 0.04297,-0.21875 0.03906,-0.308594 -0.0039,-0.08984 -0.02734,-0.160156 -0.06641,-0.21875 -0.03516,-0.05469 -0.08984,-0.09375 -0.160156,-0.121093 -0.07031,-0.02734 -0.15625,-0.03906 -0.261719,-0.03906 -0.109375,0 -0.210937,0.01172 -0.300781,0.03906 -0.08984,0.02734 -0.171875,0.0625 -0.242187,0.109375 -0.05469,0.03906 -0.101563,0.08203 -0.148438,0.128906 -0.04297,0.04687 -0.08203,0.09766 -0.117188,0.152344 l -1.101562,4.40625 h -0.898438 l 1.382813,-5.535156 h 0.851563 z m 4.039062,6.984375 h 0.945313 v 0.164062 L 92.492188,22.304688 93.25,19.28125 l 0.203125,0.3125 c 0.04687,0.06641 0.09375,0.128906 0.148437,0.183594 0.05469,0.05469 0.117188,0.105468 0.183594,0.148437 0.109375,0.07422 0.242188,0.128907 0.398438,0.167969 0.15625,0.04297 0.332031,0.0625 0.53125,0.0625 0.324218,0 0.628906,-0.06641 0.914062,-0.199219 0.289063,-0.136719 0.550782,-0.324219 0.785156,-0.5625 0.234376,-0.238281 0.441407,-0.523437 0.613282,-0.855469 0.175781,-0.328124 0.3125,-0.6875 0.40625,-1.070312 l 0.02734,-0.105469 c 0.101562,-0.398437 0.144531,-0.765625 0.136718,-1.097656 -0.0078,-0.320313 -0.06641,-0.597656 -0.179687,-0.824219 -0.109375,-0.21875 -0.265625,-0.390625 -0.476563,-0.515625 -0.210937,-0.125 -0.480468,-0.1875 -0.804687,-0.1875 -0.191407,0 -0.371094,0.02344 -0.546875,0.0625 -0.171875,0.03906 -0.335938,0.09766 -0.488282,0.171875 l -0.0039,0.0039 c -0.105468,0.05078 -0.210937,0.109376 -0.308594,0.179688 -0.101562,0.07422 -0.199218,0.152344 -0.292968,0.242188 L 94.136719,15.75 l 0.1875,-1.097656 0.164062,0.02734 v 0.164062 h -0.867187 v -0.164062 l 0.160156,0.03906 -1.917969,7.667969 -0.15625,-0.03906 z m -0.210937,0.328125 2,-7.996094 h 1.1875 l -0.140625,0.792969 -0.160157,-0.02734 -0.113281,-0.117188 c 0.105469,-0.101562 0.214844,-0.191406 0.328125,-0.273437 0.117188,-0.08203 0.238282,-0.152344 0.359375,-0.210937 l 0.07031,0.148437 -0.07031,-0.148437 c 0.175781,-0.08594 0.359375,-0.152344 0.558594,-0.199219 0.199219,-0.04687 0.40625,-0.06641 0.621094,-0.06641 0.382812,0 0.707031,0.07422 0.972656,0.230469 0.265625,0.15625 0.464844,0.375 0.601563,0.652344 0.132812,0.269531 0.203124,0.589844 0.214843,0.960937 0.0078,0.363282 -0.03906,0.757813 -0.148437,1.183594 l -0.02344,0.105469 c -0.105468,0.410156 -0.25,0.792969 -0.4375,1.148437 -0.1875,0.355469 -0.410156,0.664063 -0.667968,0.929688 -0.261719,0.265625 -0.554688,0.476562 -0.882813,0.628906 -0.328125,0.152344 -0.679687,0.230469 -1.050781,0.230469 -0.226563,0 -0.429688,-0.02344 -0.617188,-0.07422 -0.1875,-0.04687 -0.351562,-0.117187 -0.496094,-0.210937 -0.08203,-0.05859 -0.160156,-0.121094 -0.230468,-0.191407 -0.07031,-0.07031 -0.132813,-0.148437 -0.191406,-0.234374 l 0.136718,-0.08984 0.160156,0.03906 -0.695312,2.789063 z m 5.335937,-5.070313 -0.02734,0.105469 c -0.07031,0.28125 -0.167969,0.550781 -0.292969,0.808594 -0.128907,0.257812 -0.285157,0.488281 -0.464844,0.6875 -0.183594,0.203125 -0.390625,0.363281 -0.628906,0.484375 -0.242188,0.121094 -0.507813,0.183594 -0.796875,0.183594 -0.179688,0 -0.34375,-0.02344 -0.484375,-0.07031 -0.140625,-0.04687 -0.265625,-0.113281 -0.371094,-0.195313 -0.09766,-0.07422 -0.175781,-0.164062 -0.242187,-0.269531 -0.05859,-0.101562 -0.105469,-0.207031 -0.140626,-0.324219 l -0.01562,-0.04297 0.6875,-2.746094 0.02344,-0.02734 c 0.09766,-0.125 0.207031,-0.238281 0.324219,-0.339844 0.117187,-0.101562 0.246094,-0.191406 0.382812,-0.261718 l 0.07422,0.144531 -0.07813,-0.140625 c 0.128906,-0.07422 0.265625,-0.128906 0.410156,-0.164062 0.148438,-0.03906 0.300782,-0.05859 0.460938,-0.05859 0.300781,0 0.546875,0.06641 0.738281,0.191406 0.1875,0.128906 0.332031,0.296875 0.421875,0.511719 l 0.0039,0.0039 c 0.08203,0.207031 0.125,0.445313 0.125,0.710937 -0.0039,0.257813 -0.03906,0.527344 -0.109375,0.808594 z m -0.316406,-0.07813 c 0.0625,-0.257812 0.09375,-0.503906 0.09766,-0.734375 0,-0.222656 -0.03516,-0.417968 -0.101562,-0.582031 l 0.152343,-0.0625 -0.148437,0.06641 c -0.07031,-0.15625 -0.171875,-0.28125 -0.308594,-0.371093 -0.136719,-0.08984 -0.320312,-0.136719 -0.554687,-0.136719 -0.132813,0 -0.257813,0.01563 -0.378906,0.04687 -0.117188,0.03125 -0.230469,0.07422 -0.332032,0.132812 h -0.0039 v 0.0039 c -0.113281,0.05859 -0.222656,0.128907 -0.320312,0.214844 -0.101563,0.08984 -0.199219,0.191406 -0.285157,0.300782 l -0.128906,-0.105469 0.160156,0.03906 -0.667969,2.667969 -0.15625,-0.03906 0.15625,-0.05078 c 0.02734,0.08984 0.06641,0.175782 0.109376,0.253906 0.04297,0.07031 0.09766,0.128907 0.160156,0.179688 0.07813,0.05859 0.167968,0.105469 0.277344,0.140625 0.105468,0.03516 0.234374,0.05469 0.378906,0.05469 0.238281,0 0.453125,-0.05078 0.648437,-0.148437 0.203125,-0.101563 0.378907,-0.238281 0.535157,-0.414063 0.160156,-0.175781 0.296874,-0.378906 0.410156,-0.609374 0.117187,-0.238282 0.207031,-0.484376 0.273437,-0.742188 z m 0.15625,0.03906 c 0.07031,-0.269532 0.101563,-0.527344 0.105469,-0.769532 0,-0.246093 -0.03906,-0.460937 -0.113282,-0.648437 -0.08203,-0.183594 -0.203124,-0.332031 -0.367187,-0.441406 -0.164063,-0.109375 -0.378906,-0.164063 -0.644531,-0.164063 -0.144532,0 -0.285156,0.01953 -0.417969,0.05078 -0.132813,0.03516 -0.257813,0.08594 -0.375,0.148437 -0.125,0.06641 -0.242187,0.144531 -0.351563,0.242187 -0.109374,0.09375 -0.210937,0.199219 -0.304687,0.316407 l -0.664063,2.667969 c 0.03125,0.101562 0.07422,0.195312 0.125,0.285156 0.05469,0.08984 0.121094,0.164062 0.203126,0.226562 0.08984,0.07031 0.199218,0.128906 0.320312,0.167969 0.125,0.04297 0.269531,0.0625 0.433594,0.0625 0.261718,0 0.503906,-0.05469 0.722656,-0.167969 0.21875,-0.109375 0.414062,-0.257812 0.582031,-0.445312 0.171875,-0.1875 0.316407,-0.40625 0.4375,-0.652344 0.121094,-0.246094 0.214844,-0.503906 0.28125,-0.773438 z m -3.050781,-2.722656 h 0.867187 l -0.105469,0.601562 c 0.09766,-0.09375 0.203126,-0.179688 0.308594,-0.257812 0.109375,-0.07813 0.222656,-0.140626 0.335938,-0.195313 0.164062,-0.08203 0.339844,-0.144531 0.527344,-0.1875 0.1875,-0.04297 0.378906,-0.06641 0.582031,-0.06641 0.355469,0 0.648437,0.07031 0.886719,0.210937 0.238281,0.140625 0.417968,0.335938 0.542968,0.585938 0.121094,0.246094 0.1875,0.546875 0.195313,0.890625 0.0078,0.347656 -0.03906,0.726562 -0.140625,1.140625 l -0.02734,0.105468 c -0.101562,0.398438 -0.238281,0.765626 -0.421875,1.109376 -0.179687,0.34375 -0.394531,0.640624 -0.640625,0.894531 -0.25,0.25 -0.527344,0.449219 -0.832031,0.59375 -0.308594,0.140625 -0.636719,0.214843 -0.984375,0.214843 -0.210938,0 -0.402344,-0.02344 -0.574219,-0.06641 -0.171875,-0.04687 -0.320313,-0.109375 -0.445313,-0.191406 -0.07812,-0.05078 -0.148437,-0.109375 -0.210937,-0.171875 -0.0625,-0.0625 -0.117187,-0.132813 -0.167969,-0.207031 l -0.664062,2.664062 h -0.945313 z m 5.511718,2.757812 -0.03125,0.109375 c -0.09375,0.382813 -0.125,0.734375 -0.09766,1.058594 0.02734,0.316406 0.113282,0.589843 0.253906,0.820312 0.136719,0.226563 0.332032,0.402344 0.578126,0.53125 0.253906,0.132813 0.562506,0.199219 0.929696,0.199219 0.36718,0 0.71484,-0.07031 1.03906,-0.203125 0.33203,-0.136719 0.6289,-0.324219 0.89453,-0.566406 0.26562,-0.238281 0.49609,-0.523438 0.6875,-0.851563 0.19531,-0.328125 0.33984,-0.683594 0.43359,-1.066406 l 0.0312,-0.113281 c 0.0937,-0.378907 0.12891,-0.734375 0.0977,-1.058594 -0.0273,-0.316406 -0.10938,-0.589844 -0.25,-0.824219 -0.13672,-0.222656 -0.33203,-0.402344 -0.58203,-0.535156 -0.25391,-0.132812 -0.5625,-0.199219 -0.92578,-0.199219 -0.36719,0 -0.71485,0.07031 -1.04297,0.207031 -0.32813,0.136719 -0.625,0.324219 -0.88672,0.566407 -0.269536,0.242187 -0.503912,0.527343 -0.695318,0.855469 -0.195312,0.328124 -0.339844,0.683593 -0.433594,1.070312 z M 98.8125,17.355469 c 0.105469,-0.414063 0.261719,-0.800781 0.472656,-1.15625 0.207032,-0.355469 0.460938,-0.667969 0.753904,-0.929688 0.29297,-0.265625 0.6211,-0.476562 0.98438,-0.628906 0.36719,-0.152344 0.75781,-0.226563 1.16797,-0.226563 0.41797,0 0.77734,0.07813 1.07812,0.234376 0.30078,0.160156 0.53906,0.378906 0.71094,0.65625 0.16406,0.273437 0.26172,0.597656 0.29687,0.964843 0.0312,0.359375 -0.004,0.75 -0.10937,1.167969 l -0.0273,0.109375 c -0.10547,0.417969 -0.26172,0.800781 -0.46875,1.15625 -0.21094,0.355469 -0.46094,0.664063 -0.75391,0.929687 -0.29297,0.265626 -0.625,0.472657 -0.98828,0.621094 -0.36328,0.152344 -0.75391,0.230469 -1.16406,0.230469 -0.41797,0 -0.777349,-0.07813 -1.07813,-0.234375 C 99.382812,20.09375 99.148438,19.875 98.980469,19.597656 98.8125,19.320312 98.710938,19 98.675781,18.632812 c -0.03125,-0.359374 0.0039,-0.746093 0.109375,-1.164062 z m 0.917969,0.113281 0.03125,-0.113281 c 0.07031,-0.28125 0.171875,-0.550781 0.304691,-0.808594 0.13281,-0.261719 0.29297,-0.492187 0.48437,-0.691406 0.19141,-0.203125 0.40625,-0.363281 0.64453,-0.480469 0.2461,-0.125 0.51172,-0.183594 0.80078,-0.183594 0.29688,0 0.54297,0.0625 0.73829,0.191406 0.19531,0.128907 0.33984,0.300782 0.4414,0.515626 0.0898,0.210937 0.14063,0.449218 0.14453,0.71875 0.004,0.261718 -0.0273,0.535156 -0.0977,0.820312 l -0.0312,0.109375 c -0.0703,0.285156 -0.17188,0.558594 -0.30469,0.816406 -0.13281,0.261719 -0.29297,0.492188 -0.48047,0.691407 -0.19531,0.203124 -0.41016,0.363281 -0.65234,0.480468 -0.2461,0.121094 -0.51172,0.179688 -0.79688,0.179688 -0.29297,0 -0.53906,-0.0625 -0.73828,-0.1875 -0.19922,-0.128906 -0.34375,-0.300782 -0.441406,-0.519532 -0.09375,-0.207031 -0.144532,-0.445312 -0.148438,-0.714843 -0.0039,-0.261719 0.03125,-0.535157 0.101563,-0.824219 z m 0.320311,0.07813 c -0.06641,0.261719 -0.09766,0.507813 -0.09375,0.742187 0.0039,0.222657 0.04297,0.417969 0.1211,0.585938 0.0664,0.160156 0.17578,0.28125 0.3164,0.375 0.14453,0.08984 0.33203,0.136719 0.5625,0.136719 0.23438,0 0.45313,-0.04687 0.65235,-0.144531 0.20703,-0.101563 0.39062,-0.238282 0.55859,-0.414063 0.16406,-0.175781 0.30859,-0.378906 0.42969,-0.613281 0.12109,-0.234375 0.21093,-0.484375 0.27734,-0.746094 l 0.0273,-0.113281 c 0.0664,-0.253907 0.0937,-0.5 0.0898,-0.730469 -0.004,-0.226562 -0.043,-0.421875 -0.11719,-0.589844 -0.0703,-0.15625 -0.17969,-0.285156 -0.32031,-0.378906 -0.14453,-0.09375 -0.32813,-0.136719 -0.5586,-0.136719 -0.23828,0 -0.45312,0.04687 -0.65234,0.148438 -0.20703,0.101562 -0.39062,0.238281 -0.55469,0.414062 -0.16797,0.175781 -0.3125,0.378907 -0.43359,0.613281 -0.12109,0.238282 -0.21094,0.484376 -0.27734,0.742188 z m -0.160155,-0.03906 c -0.06641,0.273438 -0.101563,0.535157 -0.09766,0.78125 0.0039,0.246094 0.04687,0.464844 0.132812,0.652344 0.08594,0.1875 0.210943,0.335938 0.382813,0.445313 0.16797,0.109375 0.38672,0.164062 0.64844,0.164062 0.25781,0 0.5,-0.05469 0.72266,-0.164062 0.22656,-0.109375 0.42578,-0.257813 0.60547,-0.445313 0.17968,-0.1875 0.32812,-0.40625 0.45703,-0.652344 0.125,-0.246093 0.22265,-0.507812 0.29297,-0.78125 l 0.0273,-0.113281 c 0.0664,-0.269531 0.0977,-0.527343 0.0937,-0.773437 -0.004,-0.246094 -0.0469,-0.464844 -0.13281,-0.652344 -0.0859,-0.1875 -0.21094,-0.335938 -0.37891,-0.449219 -0.16797,-0.109375 -0.38672,-0.164062 -0.64844,-0.164062 -0.26171,0 -0.5039,0.05469 -0.72656,0.164062 -0.22265,0.113281 -0.42187,0.261719 -0.59765,0.449219 -0.17969,0.1875 -0.33594,0.40625 -0.46094,0.652344 -0.12891,0.246094 -0.222663,0.503906 -0.292975,0.773437 z m -0.917969,-0.113281 c 0.101563,-0.398437 0.25,-0.769531 0.453125,-1.113281 0.199219,-0.339844 0.441407,-0.640625 0.722659,-0.890625 0.28125,-0.253906 0.59375,-0.453125 0.9375,-0.597656 0.34765,-0.144531 0.71484,-0.21875 1.10547,-0.21875 0.39062,0 0.72656,0.07422 1.0039,0.21875 0.27344,0.144531 0.48828,0.34375 0.64453,0.597656 0.15235,0.25 0.24219,0.550781 0.27344,0.890625 0.0312,0.34375 -0.004,0.714844 -0.10547,1.113281 l -0.0273,0.113281 c -0.0977,0.402344 -0.25,0.769532 -0.44922,1.113282 -0.20312,0.339844 -0.44141,0.636718 -0.72266,0.890625 -0.28125,0.25 -0.59375,0.449219 -0.9414,0.59375 -0.34375,0.140625 -0.71094,0.214843 -1.10156,0.214843 -0.39454,0 -0.72657,-0.07422 -1.003911,-0.214843 -0.277344,-0.144531 -0.488281,-0.34375 -0.640625,-0.59375 -0.15625,-0.253907 -0.25,-0.550781 -0.28125,-0.890625 -0.03125,-0.34375 0.0039,-0.710938 0.105468,-1.113282 z m 5.851564,2.660157 h 0.94531 v 0.160156 l -0.15625,-0.03906 1,-4.003906 0.0234,-0.02734 c 0.10156,-0.128906 0.21094,-0.246093 0.32812,-0.351562 0.1211,-0.105469 0.24219,-0.195313 0.3711,-0.277344 h 0.004 c 0.16016,-0.09375 0.32813,-0.164063 0.5,-0.21875 0.17969,-0.05469 0.36329,-0.08203 0.55469,-0.08203 0.21875,0 0.40625,0.02734 0.56641,0.08203 0.17578,0.05859 0.3125,0.152344 0.41797,0.285156 0.0977,0.132813 0.15625,0.300781 0.17187,0.503907 0.0117,0.1875 -0.0156,0.410156 -0.0781,0.675781 l -0.875,3.496093 -0.16016,-0.04297 v -0.160156 h 0.94922 v 0.160156 l -0.16016,-0.03906 0.87891,-3.515625 c 0.0859,-0.351562 0.12109,-0.652344 0.0977,-0.898437 -0.0195,-0.238281 -0.082,-0.433594 -0.19141,-0.582031 -0.10156,-0.148438 -0.25,-0.257813 -0.43359,-0.328126 -0.19922,-0.07422 -0.4336,-0.113281 -0.70313,-0.113281 -0.19922,0.0039 -0.39453,0.03516 -0.58984,0.08984 -0.19532,0.05469 -0.38282,0.136719 -0.5625,0.238281 -0.1211,0.06641 -0.23828,0.148438 -0.35157,0.238282 -0.11718,0.09375 -0.22656,0.195312 -0.33203,0.304687 l -0.36718,0.386719 0.22656,-1.34375 0.16015,0.02734 v 0.164062 h -0.85156 v -0.164062 l 0.16016,0.03906 -1.38281,5.539062 -0.16016,-0.04297 z m -0.21094,0.324218 1.46875,-5.863281 h 1.17188 l -0.17188,1.007813 -0.16015,-0.02734 -0.1211,-0.113282 c 0.11719,-0.121093 0.23828,-0.230468 0.36719,-0.332031 0.12891,-0.105469 0.25781,-0.191406 0.39453,-0.269531 0.19922,-0.113281 0.41406,-0.203125 0.63281,-0.269531 0.22266,-0.0625 0.44922,-0.09766 0.67969,-0.09766 0.3125,0 0.58203,0.04297 0.82031,0.132813 0.2461,0.09375 0.44141,0.238281 0.58594,0.441406 0.14063,0.199219 0.22266,0.445313 0.25,0.742188 0.0234,0.285156 -0.0117,0.625 -0.10937,1.007812 l -0.91016,3.640625 h -1.28516 l 0.92578,-3.699218 c 0.0586,-0.226563 0.082,-0.417969 0.0703,-0.570313 -0.008,-0.140625 -0.043,-0.25 -0.10157,-0.328125 -0.0625,-0.07813 -0.15234,-0.136719 -0.26171,-0.175781 -0.12891,-0.03906 -0.28125,-0.0625 -0.46485,-0.0625 -0.16015,0 -0.3125,0.02344 -0.45703,0.06641 -0.15234,0.04687 -0.29687,0.109375 -0.43359,0.1875 l -0.082,-0.140625 0.0859,0.140625 c -0.11328,0.07031 -0.21875,0.148437 -0.32422,0.242187 -0.10546,0.09375 -0.20312,0.195313 -0.29296,0.308594 l -0.125,-0.101562 0.15625,0.03906 -1.02344,4.09375 z m 1.59375,-5.699218 h 0.85156 l -0.13671,0.816406 c 0.10937,-0.113282 0.22656,-0.222656 0.34765,-0.320313 0.1211,-0.09375 0.2461,-0.179687 0.3711,-0.25 0.1914,-0.109375 0.39062,-0.195312 0.60156,-0.253906 0.20703,-0.0625 0.41797,-0.09375 0.63281,-0.09766 0.28906,0 0.54297,0.04297 0.76172,0.125 0.21484,0.08203 0.38672,0.210937 0.50781,0.382812 0.125,0.175781 0.19922,0.394531 0.22266,0.664063 0.0234,0.265625 -0.0117,0.585937 -0.10156,0.953125 l -0.87891,3.515625 h -0.94922 l 0.875,-3.492188 c 0.0625,-0.246094 0.0859,-0.457031 0.0742,-0.625 -0.0117,-0.171875 -0.0586,-0.308594 -0.13672,-0.414062 -0.082,-0.109375 -0.19531,-0.183594 -0.33984,-0.230469 -0.14453,-0.05078 -0.31641,-0.07422 -0.51563,-0.07422 -0.17578,0 -0.34375,0.02734 -0.50781,0.07422 -0.16016,0.05078 -0.31641,0.117187 -0.46484,0.203125 -0.1211,0.07422 -0.23438,0.160156 -0.34766,0.261719 -0.11328,0.09766 -0.21484,0.207031 -0.30859,0.328125 l -0.9961,3.96875 h -0.94531 z m 7.32813,5.476562 c 0.51172,0 0.96875,-0.101562 1.36718,-0.308594 0.40235,-0.207031 0.72266,-0.441406 0.96485,-0.707031 l 0.12109,0.109375 -0.11328,0.117188 -0.46484,-0.449219 0.11328,-0.117188 0.11328,0.117188 c -0.24219,0.238281 -0.52344,0.429687 -0.83594,0.574219 -0.32031,0.144531 -0.66015,0.21875 -1.01953,0.21875 -0.28125,0 -0.53125,-0.05469 -0.74219,-0.160157 -0.21093,-0.109375 -0.38281,-0.261719 -0.5039,-0.453125 l 0.13672,-0.08984 -0.13672,0.09375 c -0.1211,-0.175781 -0.19922,-0.378906 -0.23438,-0.609374 -0.0352,-0.222657 -0.0312,-0.476563 0.0156,-0.761719 v -0.0078 l 0.043,-0.167968 h 4.08203 v 0.164062 l -0.15625,-0.03906 0.10547,-0.425782 c 0.0937,-0.371094 0.13281,-0.710937 0.11718,-1.027344 -0.0117,-0.304687 -0.082,-0.570312 -0.20312,-0.792968 -0.1211,-0.214844 -0.30078,-0.382813 -0.53516,-0.503906 -0.24219,-0.125 -0.54687,-0.191407 -0.92187,-0.191407 -0.29688,0 -0.60157,0.0625 -0.91797,0.183594 -0.31641,0.125 -0.61719,0.300781 -0.89844,0.535156 -0.28906,0.234375 -0.54297,0.519531 -0.76562,0.859375 -0.22266,0.339844 -0.38672,0.722656 -0.49219,1.152344 l -0.0547,0.214844 c -0.0937,0.363281 -0.11719,0.699218 -0.0703,1.003906 0.043,0.300781 0.14453,0.5625 0.30078,0.777344 0.15625,0.214844 0.36719,0.382812 0.63281,0.503906 0.26953,0.125 0.58985,0.1875 0.95313,0.1875 z m 0,0.328125 c -0.41016,0 -0.77344,-0.07422 -1.08985,-0.214844 -0.32031,-0.144531 -0.57422,-0.351562 -0.76172,-0.613281 -0.1875,-0.257812 -0.30859,-0.566406 -0.35937,-0.921875 -0.0508,-0.347656 -0.0273,-0.726563 0.0742,-1.132813 l 0.0547,-0.214843 c 0.11718,-0.464844 0.29687,-0.882813 0.53906,-1.25 0.23828,-0.367188 0.51562,-0.679688 0.82812,-0.933594 0.3125,-0.253906 0.64063,-0.449219 0.99219,-0.585937 0.35156,-0.136719 0.69922,-0.203126 1.03516,-0.203126 0.42578,0 0.78515,0.07422 1.07031,0.222657 0.29297,0.15625 0.51562,0.367187 0.67187,0.636719 0.14844,0.269531 0.23047,0.582031 0.2461,0.9375 0.0156,0.347656 -0.0273,0.722656 -0.12891,1.121093 l -0.13672,0.550781 h -4.08203 v -0.16407 l 0.15625,0.03906 -0.008,0.03516 -0.16016,-0.03906 0.16407,0.02734 c -0.043,0.25 -0.0469,0.472656 -0.0195,0.660156 0.0312,0.179688 0.0898,0.339844 0.1836,0.476563 h 0.004 c 0.0937,0.144531 0.21875,0.257812 0.37891,0.339843 0.16797,0.08203 0.36328,0.125 0.59375,0.125 0.3125,0 0.60938,-0.0625 0.88281,-0.191406 0.28125,-0.128906 0.52735,-0.296875 0.7461,-0.507812 l 0.11328,-0.113282 0.69531,0.671876 -0.10937,0.117187 c -0.26563,0.292969 -0.6211,0.554687 -1.0586,0.78125 -0.44531,0.226563 -0.94922,0.34375 -1.51562,0.34375 z m 1.12109,-5.292969 c 0.26953,0 0.49609,0.05078 0.67578,0.152344 0.17578,0.105469 0.31641,0.242188 0.41016,0.410156 0.0898,0.164063 0.14453,0.359375 0.16406,0.578125 0.0156,0.214844 0.004,0.414063 -0.043,0.601563 l -0.043,0.171875 h -3.34765 l 0.0859,-0.226563 c 0.10938,-0.265625 0.23829,-0.503906 0.38672,-0.710937 0.15235,-0.210938 0.32032,-0.386719 0.5,-0.53125 0.1836,-0.144531 0.37891,-0.253907 0.58203,-0.332031 0.20704,-0.07422 0.41797,-0.113282 0.62891,-0.113282 z m 0,0.328125 c -0.17187,0 -0.34375,0.03125 -0.51172,0.09375 -0.17578,0.0625 -0.33594,0.15625 -0.49219,0.277344 -0.16015,0.128906 -0.30859,0.285156 -0.4414,0.46875 -0.13281,0.183594 -0.25,0.398437 -0.34766,0.640625 l -0.15234,-0.05859 v -0.164062 h 2.98047 v 0.164062 l -0.16016,-0.03906 0.0117,-0.04687 c 0.0391,-0.152344 0.0508,-0.320313 0.0352,-0.496094 -0.0117,-0.175781 -0.0547,-0.320313 -0.1211,-0.445313 -0.0664,-0.117187 -0.16406,-0.210937 -0.28906,-0.285156 -0.12891,-0.07422 -0.30078,-0.109375 -0.51172,-0.109375 z m 0,-0.164062 c -0.19141,0 -0.38281,0.03516 -0.57031,0.105469 -0.1875,0.06641 -0.36719,0.167968 -0.53906,0.300781 -0.16797,0.136719 -0.32422,0.304687 -0.46875,0.5 -0.14063,0.195312 -0.26563,0.421875 -0.36719,0.679687 h 2.98047 l 0.0117,-0.04687 c 0.043,-0.171875 0.0547,-0.355469 0.0391,-0.550781 -0.0156,-0.195312 -0.0625,-0.363281 -0.14453,-0.507812 -0.0781,-0.144532 -0.19532,-0.261719 -0.34766,-0.347657 -0.15625,-0.08984 -0.35156,-0.132812 -0.59375,-0.132812 z m -1.12109,4.964843 c -0.38672,0 -0.73047,-0.06641 -1.02344,-0.199218 -0.28906,-0.132813 -0.52344,-0.320313 -0.69531,-0.558594 -0.17188,-0.238281 -0.28125,-0.523438 -0.33203,-0.851562 -0.0469,-0.328126 -0.0234,-0.683594 0.0742,-1.070313 l 0.0547,-0.214844 c 0.10938,-0.445312 0.28125,-0.847656 0.51563,-1.199219 0.23047,-0.351562 0.49609,-0.652343 0.79687,-0.898437 0.29688,-0.242187 0.60938,-0.429687 0.94531,-0.558594 0.33594,-0.128906 0.66016,-0.195312 0.97657,-0.195312 0.40234,0 0.73047,0.07031 0.99609,0.210937 0.26563,0.136719 0.46484,0.328125 0.60156,0.570313 0.13672,0.246093 0.21094,0.53125 0.22657,0.863281 0.0156,0.332031 -0.0273,0.691406 -0.1211,1.074219 l -0.10937,0.425781 h -3.95313 l -0.0117,0.03516 c -0.043,0.269532 -0.0469,0.507813 -0.0156,0.710938 0.0312,0.207031 0.10156,0.386718 0.21094,0.542968 0.10937,0.167969 0.2539,0.300782 0.4414,0.394532 0.1875,0.09766 0.41016,0.144531 0.66797,0.144531 0.33594,0 0.65625,-0.07031 0.95313,-0.207031 0.29687,-0.136719 0.55859,-0.316406 0.78906,-0.539063 l 0.4648,0.449207 c -0.2539,0.277344 -0.58984,0.527344 -1.01172,0.742188 -0.42187,0.21875 -0.90234,0.328124 -1.4414,0.328124 z m 3.87109,-0.265624 h 0.94531 v 0.160156 l -0.15625,-0.03906 1,-4.003906 0.0234,-0.02734 c 0.0977,-0.128906 0.20703,-0.246093 0.32813,-0.351562 0.11718,-0.105469 0.24218,-0.195313 0.37109,-0.277344 h 0.004 c 0.16015,-0.09375 0.32421,-0.164063 0.5,-0.21875 0.17968,-0.05469 0.36328,-0.08203 0.55078,-0.08203 0.22265,0 0.41015,0.02734 0.57031,0.08203 0.17578,0.05859 0.3125,0.152344 0.41797,0.285156 0.0977,0.132813 0.15625,0.300781 0.17187,0.503907 0.0117,0.1875 -0.0156,0.410156 -0.082,0.675781 l -0.87109,3.496093 -0.16016,-0.04297 v -0.160156 h 0.94531 v 0.160156 l -0.15625,-0.03906 0.87891,-3.515625 c 0.0859,-0.351562 0.12109,-0.652344 0.0977,-0.898437 -0.0195,-0.238281 -0.0859,-0.433594 -0.19141,-0.582031 -0.10547,-0.148438 -0.25,-0.257813 -0.43359,-0.328126 -0.19922,-0.07422 -0.4336,-0.113281 -0.70313,-0.113281 -0.19922,0.0039 -0.39453,0.03516 -0.58984,0.08984 -0.19531,0.05469 -0.38281,0.136719 -0.5625,0.238281 -0.1211,0.06641 -0.23828,0.148438 -0.35156,0.238282 -0.11719,0.09375 -0.22657,0.195312 -0.33204,0.304687 l -0.37109,0.386719 0.22656,-1.34375 0.16407,0.02734 v 0.164062 h -0.85157 v -0.164062 l 0.16016,0.03906 -1.38281,5.539062 -0.16016,-0.04297 z m -0.21094,0.324218 1.46875,-5.863281 h 1.16797 l -0.16797,1.007813 -0.16406,-0.02734 -0.11719,-0.113282 c 0.11719,-0.121093 0.23828,-0.230468 0.36719,-0.332031 0.125,-0.105469 0.25781,-0.191406 0.39063,-0.269531 0.20312,-0.113281 0.41406,-0.203125 0.63671,-0.269531 0.21875,-0.0625 0.44922,-0.09766 0.67969,-0.09766 0.3086,0 0.58203,0.04297 0.81641,0.132813 0.25,0.09375 0.44531,0.238281 0.58594,0.441406 0.14453,0.199219 0.22656,0.445313 0.2539,0.742188 0.0234,0.285156 -0.0117,0.625 -0.10937,1.007812 l -0.91016,3.640625 h -1.28516 l 0.92579,-3.699218 c 0.0586,-0.226563 0.082,-0.417969 0.0703,-0.570313 -0.0117,-0.140625 -0.043,-0.25 -0.10156,-0.328125 -0.0625,-0.07813 -0.15235,-0.136719 -0.26172,-0.175781 -0.12891,-0.03906 -0.28516,-0.0625 -0.46875,-0.0625 -0.15625,0 -0.3086,0.02344 -0.45703,0.06641 -0.14844,0.04687 -0.29297,0.109375 -0.42969,0.1875 l -0.082,-0.140625 0.0859,0.140625 c -0.11328,0.07031 -0.22265,0.148437 -0.32421,0.242187 -0.10547,0.09375 -0.20313,0.195313 -0.29297,0.308594 l -0.12891,-0.101562 0.16016,0.03906 -1.02344,4.09375 z m 1.59375,-5.699218 h 0.85157 L 119.5,15.496094 c 0.11328,-0.113282 0.23047,-0.222656 0.35156,-0.320313 0.1211,-0.09375 0.2461,-0.179687 0.3711,-0.25 0.1914,-0.109375 0.39062,-0.195312 0.59765,-0.253906 0.21094,-0.0625 0.42188,-0.09375 0.63672,-0.09766 0.28906,0 0.54297,0.04297 0.76172,0.125 0.21484,0.08203 0.38672,0.210937 0.50781,0.382812 0.125,0.175781 0.19922,0.394531 0.22266,0.664063 0.0234,0.265625 -0.0117,0.585937 -0.10547,0.953125 l -0.87891,3.515625 h -0.94531 l 0.875,-3.492188 c 0.0586,-0.246094 0.0859,-0.457031 0.0742,-0.625 -0.0117,-0.171875 -0.0586,-0.308594 -0.13672,-0.414062 -0.0859,-0.109375 -0.19531,-0.183594 -0.33984,-0.230469 -0.14453,-0.05078 -0.31641,-0.07422 -0.51953,-0.07422 -0.17188,0 -0.33985,0.02734 -0.50391,0.07422 -0.16016,0.05078 -0.31641,0.117187 -0.46484,0.203125 -0.1211,0.07422 -0.23828,0.160156 -0.34766,0.261719 -0.11328,0.09766 -0.21484,0.207031 -0.3125,0.328125 l -0.99219,3.96875 h -0.94531 z M 127.65625,13.5 h -0.94922 v -0.164062 l 0.15625,0.04297 L 126.5,14.84375 h -1.58203 v -0.164062 l 0.15625,0.03906 -0.17969,0.730469 -0.16015,-0.03906 v -0.164062 h 1.66406 l -0.80469,3.214844 c -0.0781,0.320312 -0.10547,0.589843 -0.0781,0.8125 0.0273,0.210937 0.0898,0.378906 0.1914,0.503906 0.0977,0.128906 0.23047,0.222656 0.39844,0.28125 0.17578,0.06641 0.37891,0.09766 0.60547,0.09766 0.14062,0 0.28515,-0.0078 0.43359,-0.01953 0.14453,-0.01563 0.28516,-0.03516 0.42188,-0.05859 v -0.0039 h 0.004 c 0.13282,-0.01953 0.25391,-0.05078 0.3711,-0.08203 0.10937,-0.03516 0.20703,-0.07031 0.28906,-0.113282 l 0.0742,0.144532 -0.16407,-0.0078 0.0352,-0.671875 0.16406,0.0078 0.0352,0.160157 c -0.0625,0.01563 -0.14063,0.03125 -0.23828,0.05078 -0.0977,0.01953 -0.19922,0.03516 -0.30859,0.05469 -0.11329,0.01562 -0.22657,0.03125 -0.33985,0.04297 -0.12109,0.01172 -0.23437,0.01953 -0.33984,0.01953 -0.15625,0 -0.30078,-0.01953 -0.42969,-0.05859 -0.14844,-0.04297 -0.26953,-0.117188 -0.36328,-0.226563 l 0.12109,-0.109375 -0.11718,0.109375 c -0.10157,-0.105469 -0.16016,-0.246093 -0.1836,-0.417969 -0.0234,-0.164062 -0.008,-0.359374 0.0508,-0.597656 l 0.78516,-3.132812 H 129.25 v 0.164062 l -0.16016,-0.03906 0.1836,-0.730469 0.16015,0.03906 v 0.164062 h -2.32031 l 0.38672,-1.546875 0.15625,0.03906 z m 0.21094,-0.328125 -0.38672,1.546875 -0.15625,-0.03906 v -0.164063 h 2.3164 l -0.26562,1.058594 h -2.23437 v -0.164063 l 0.15625,0.03906 -0.75,3.011719 c -0.0508,0.191406 -0.0664,0.351562 -0.0469,0.46875 0.0117,0.105468 0.0469,0.1875 0.0977,0.246093 h 0.004 c 0.0547,0.0625 0.1211,0.105469 0.20703,0.132813 0.10157,0.02734 0.21485,0.04297 0.33985,0.04297 0.0937,0 0.19531,-0.0039 0.30469,-0.01562 0.10937,-0.01172 0.21484,-0.02734 0.32421,-0.04297 0.10547,-0.01563 0.20313,-0.03516 0.29688,-0.05469 0.0937,-0.01563 0.17187,-0.03125 0.23047,-0.04687 l 0.21093,-0.04687 -0.0508,0.980469 -0.082,0.04297 c -0.10156,0.05078 -0.21875,0.09766 -0.34765,0.136719 -0.12891,0.03906 -0.26563,0.07031 -0.41016,0.09375 l -0.0273,-0.160157 0.0312,0.160157 c -0.14453,0.02734 -0.29688,0.05078 -0.45703,0.0625 -0.15625,0.01562 -0.3086,0.02344 -0.46094,0.02344 -0.26563,0 -0.50391,-0.03906 -0.71875,-0.117187 -0.22266,-0.07813 -0.40625,-0.207032 -0.54297,-0.386719 -0.13672,-0.171875 -0.22656,-0.394531 -0.25781,-0.667969 -0.0352,-0.261719 -0.004,-0.570312 0.0859,-0.933594 l 0.75,-3.007812 0.16016,0.03906 v 0.164063 h -1.66406 l 0.26562,-1.058594 h 1.58203 v 0.164063 l -0.16015,-0.03906 0.36719,-1.46875 z m -0.54297,1.507813 h 2.10937 L 129.25,15.410156 h -2.10937 l -0.75391,3.011719 c -0.0547,0.214844 -0.0703,0.390625 -0.0508,0.53125 0.0195,0.140625 0.0664,0.25 0.14062,0.332031 0.0742,0.08594 0.17188,0.144532 0.28516,0.179688 0.11719,0.03516 0.24609,0.05078 0.38672,0.05078 0.10156,0 0.20703,-0.0078 0.32031,-0.01953 0.11328,-0.01172 0.22266,-0.02344 0.33203,-0.04297 0.10938,-0.01563 0.21094,-0.03516 0.30469,-0.05469 0.0937,-0.01563 0.17187,-0.03125 0.23437,-0.04688 l -0.0352,0.671876 c -0.0898,0.04687 -0.19532,0.08984 -0.31641,0.125 -0.12109,0.03516 -0.2539,0.06641 -0.39062,0.08984 -0.14063,0.02734 -0.28516,0.04687 -0.4375,0.05859 -0.15235,0.01563 -0.30078,0.02344 -0.44922,0.02344 -0.2461,0 -0.46485,-0.03516 -0.66016,-0.105468 -0.19922,-0.07031 -0.35547,-0.183594 -0.47265,-0.335938 -0.1211,-0.148437 -0.19532,-0.34375 -0.22657,-0.585937 -0.0273,-0.242188 0,-0.53125 0.082,-0.871094 l 0.75391,-3.011719 h -1.45312 l 0.18359,-0.730468 h 1.45312 l 0.33594,-1.34375 h 0.94922 z m 0,0"
       id="path27" />
  </g>
</svg>
