<?xml version="1.0" encoding="UTF-8" standalone="no"?>
<svg
   width="151.919998pt"
   height="41.040001pt"
   viewBox="0 0 151.919998 41.040001"
   version="1.2"
   id="svg30"
   xmlns="http://www.w3.org/2000/svg"
   xmlns:svg="http://www.w3.org/2000/svg">
  <defs
     id="defs11">
    <clipPath
       id="clip1">
      <path
         d="M 0 0 L 151.921875 0 L 151.921875 32 L 0 32 Z M 0 0 "
         id="path2" />
    </clipPath>
    <clipPath
       id="clip2">
      <path
         d="M 0 30 L 151.921875 30 L 151.921875 39 L 0 39 Z M 0 30 "
         id="path5" />
    </clipPath>
    <clipPath
       id="clip3">
      <path
         d="M 0 30 L 151.921875 30 L 151.921875 32 L 0 32 Z M 0 30 "
         id="path8" />
    </clipPath>
  </defs>
  <g
     id="surface1">
    <path
       style="fill:#ffffff;fill-opacity:0;fill-rule:nonzero;stroke:none"
       d="M 1.125,31.074219 V 1.125 h 149.75 v 29.949219"
       id="path13" />
    <g
       clip-path="url(#clip1)"
       clip-rule="nonzero"
       id="g17">
      <path
         style="fill:none;stroke:#000000;stroke-width:1;stroke-linecap:butt;stroke-linejoin:miter;stroke-miterlimit:10;stroke-opacity:1"
         d="M 1.002467,41.00044 V 1.002467 H 200.99755 V 41.00044"
         transform="matrix(0.748768,0,0,0.748768,0.374384,0.374384)"
         id="path15" />
    </g>
    <g
       clip-path="url(#clip2)"
       clip-rule="nonzero"
       id="g21">
      <path
         style="fill:none;stroke:#000000;stroke-width:1;stroke-linecap:butt;stroke-linejoin:miter;stroke-miterlimit:10;stroke-opacity:1"
         d="M 1.002467,41.00044 V 51.001238 H 200.99755 V 41.00044"
         transform="matrix(0.748768,0,0,0.748768,0.374384,0.374384)"
         id="path19" />
    </g>
    <g
       clip-path="url(#clip3)"
       clip-rule="nonzero"
       id="g25">
      <path
         style="fill:none;stroke:#000000;stroke-width:1;stroke-linecap:butt;stroke-linejoin:miter;stroke-miterlimit:10;stroke-opacity:1"
         d="M 1.002467,41.00044 H 200.99755"
         transform="matrix(0.748768,0,0,0.748768,0.374384,0.374384)"
         id="path23" />
    </g>
    <path
       style="fill:#000000;fill-opacity:1;fill-rule:nonzero;stroke:none"
       d="m 37.308594,18.136719 h -0.945313 v -0.160157 l 0.160157,0.01953 c -0.03125,0.238281 -0.08984,0.460937 -0.167969,0.664062 -0.08203,0.210938 -0.195313,0.394532 -0.332031,0.550782 -0.144532,0.160156 -0.316407,0.285156 -0.519532,0.375 -0.203125,0.08594 -0.441406,0.128906 -0.714844,0.128906 -0.25,0 -0.472656,-0.03906 -0.664062,-0.125 C 33.9375,19.511719 33.769531,19.394531 33.628906,19.25 33.492188,19.113281 33.375,18.953125 33.285156,18.769531 c -0.08594,-0.175781 -0.15625,-0.367187 -0.210937,-0.566406 -0.05078,-0.195313 -0.08984,-0.398437 -0.113281,-0.601563 -0.02344,-0.203124 -0.03516,-0.398437 -0.03516,-0.589843 v -1.046875 c 0,-0.191406 0.01172,-0.386719 0.03516,-0.589844 0.02344,-0.207031 0.0625,-0.40625 0.113281,-0.601562 0.05469,-0.199219 0.125,-0.386719 0.214843,-0.5625 0.09375,-0.183594 0.207032,-0.34375 0.347657,-0.484376 0.136719,-0.140624 0.300781,-0.25 0.492187,-0.332031 0.195313,-0.08203 0.414063,-0.125 0.660156,-0.125 0.273438,0 0.511719,0.04687 0.714844,0.140625 0.207032,0.09375 0.378906,0.222656 0.519532,0.386719 0.140624,0.164063 0.25,0.347656 0.332031,0.5625 0.07813,0.207031 0.136719,0.425781 0.167969,0.664063 l -0.160157,0.02344 v -0.164063 h 0.945313 v 0.164063 l -0.164063,0.01953 C 37.105469,14.726562 37.027344,14.417969 36.90625,14.140625 36.785156,13.867188 36.625,13.628906 36.429688,13.433594 36.234375,13.242188 36,13.09375 35.730469,12.984375 c -0.277344,-0.105469 -0.589844,-0.160156 -0.941407,-0.160156 -0.292968,0 -0.554687,0.04297 -0.785156,0.121093 -0.230468,0.08203 -0.4375,0.195313 -0.617187,0.335938 -0.183594,0.144531 -0.34375,0.3125 -0.476563,0.507812 -0.132812,0.199219 -0.242187,0.417969 -0.332031,0.648438 -0.08984,0.238281 -0.160156,0.484375 -0.203125,0.746094 -0.04687,0.257812 -0.07031,0.523437 -0.07422,0.792968 v 1.035157 c 0.0039,0.265625 0.02734,0.53125 0.07422,0.792969 0.04297,0.257812 0.109375,0.503906 0.203125,0.742187 0.08594,0.234375 0.199219,0.449219 0.332031,0.644531 0.132813,0.195313 0.292969,0.363282 0.476563,0.507813 0.179687,0.140625 0.386719,0.253906 0.621093,0.335937 0.230469,0.07813 0.492188,0.121094 0.78125,0.121094 0.339844,0 0.644532,-0.05469 0.917969,-0.160156 0.269531,-0.105469 0.503907,-0.257813 0.703125,-0.449219 0.199219,-0.191406 0.359375,-0.421875 0.484375,-0.691406 0.125,-0.273438 0.210938,-0.574219 0.25,-0.902344 l 0.164063,0.02344 z m 0,-0.324219 h 0.1875 l -0.02344,0.183594 c -0.04687,0.359375 -0.140625,0.691406 -0.28125,0.996094 -0.140625,0.308593 -0.324218,0.570312 -0.550781,0.789062 -0.230469,0.222656 -0.503906,0.398438 -0.816406,0.519531 -0.308594,0.121094 -0.65625,0.183594 -1.035157,0.183594 -0.324218,0 -0.621093,-0.04687 -0.890624,-0.140625 -0.265626,-0.09375 -0.503907,-0.222656 -0.714844,-0.386719 -0.210938,-0.164062 -0.390625,-0.355469 -0.542969,-0.578125 -0.148437,-0.21875 -0.273437,-0.457031 -0.367187,-0.714844 -0.101563,-0.257812 -0.175782,-0.523437 -0.222657,-0.804687 -0.04687,-0.277344 -0.07422,-0.558594 -0.07422,-0.847656 v -1.039063 c 0,-0.285156 0.02734,-0.566406 0.07422,-0.847656 0.04687,-0.277344 0.121094,-0.546875 0.222657,-0.800781 0.09375,-0.257813 0.21875,-0.496094 0.367187,-0.71875 0.152344,-0.222657 0.332031,-0.417969 0.542969,-0.582031 0.207031,-0.164063 0.445312,-0.292969 0.714844,-0.386719 0.265624,-0.09375 0.5625,-0.140625 0.890624,-0.140625 0.394532,0 0.746094,0.0625 1.058594,0.183594 0.3125,0.125 0.585938,0.296874 0.8125,0.519531 0.226563,0.226562 0.410156,0.496093 0.542969,0.808593 0.136719,0.308594 0.226563,0.648438 0.269531,1.019532 l 0.01953,0.183594 H 36.21875 l -0.01953,-0.140626 c -0.02734,-0.214843 -0.07813,-0.410156 -0.148438,-0.59375 -0.07031,-0.175781 -0.160156,-0.332031 -0.273437,-0.464843 -0.113282,-0.128907 -0.246094,-0.230469 -0.40625,-0.300781 -0.164063,-0.07422 -0.355469,-0.113282 -0.582032,-0.113282 -0.203124,0 -0.378906,0.03125 -0.53125,0.09766 -0.152343,0.06641 -0.28125,0.152344 -0.390624,0.265626 -0.113282,0.113281 -0.207032,0.246093 -0.285157,0.398437 -0.07813,0.15625 -0.140625,0.324219 -0.191406,0.5 -0.04687,0.179687 -0.08203,0.363281 -0.105469,0.550781 -0.01953,0.191406 -0.03125,0.375 -0.03125,0.554688 v 1.046875 c 0,0.179687 0.01172,0.363281 0.03125,0.554687 0.02344,0.1875 0.05859,0.371094 0.105469,0.550782 0.05078,0.179687 0.113281,0.351562 0.191406,0.507812 0.07422,0.148438 0.167969,0.28125 0.28125,0.398438 0.109375,0.113281 0.242188,0.203124 0.390625,0.265624 0.152344,0.06641 0.328125,0.09766 0.535156,0.09766 0.226563,0 0.421876,-0.03516 0.582032,-0.105469 0.160156,-0.06641 0.296875,-0.164062 0.40625,-0.289062 0.113281,-0.125 0.203125,-0.277344 0.273437,-0.449219 0.07031,-0.179688 0.121094,-0.378907 0.148438,-0.589844 L 36.21875,17.8125 Z m 0,0.164062 c -0.04297,0.34375 -0.132813,0.660157 -0.265625,0.949219 -0.132813,0.285157 -0.304688,0.535157 -0.519531,0.738281 -0.214844,0.207032 -0.464844,0.371094 -0.757813,0.484376 -0.292969,0.113281 -0.617187,0.171874 -0.976563,0.171874 -0.304687,0 -0.585937,-0.04297 -0.835937,-0.132812 -0.25,-0.08594 -0.472656,-0.207031 -0.667969,-0.359375 -0.199218,-0.152344 -0.367187,-0.335937 -0.507812,-0.542969 -0.144532,-0.207031 -0.261719,-0.433594 -0.351563,-0.679687 -0.09766,-0.246094 -0.167969,-0.503907 -0.214843,-0.773438 -0.04297,-0.269531 -0.07031,-0.542969 -0.07422,-0.820312 v -1.039063 c 0.0039,-0.277344 0.03125,-0.546875 0.07422,-0.816406 0.04687,-0.269531 0.117187,-0.527344 0.214843,-0.773438 0.08984,-0.246093 0.207031,-0.476562 0.351563,-0.683593 0.140625,-0.210938 0.308594,-0.390625 0.507812,-0.546875 0.195313,-0.152344 0.417969,-0.273438 0.664063,-0.359375 0.25,-0.08594 0.53125,-0.132813 0.839843,-0.132813 0.371094,0 0.707032,0.05859 1,0.171875 0.292969,0.117188 0.546876,0.277344 0.757813,0.484375 0.210937,0.210938 0.378906,0.464844 0.507813,0.757813 0.128906,0.292969 0.210937,0.617187 0.253906,0.972656 h -0.945313 c -0.03125,-0.226563 -0.08594,-0.433594 -0.160156,-0.628906 -0.07422,-0.195313 -0.175781,-0.367188 -0.300781,-0.511719 -0.128906,-0.148438 -0.28125,-0.261719 -0.464844,-0.347656 -0.183594,-0.08203 -0.398438,-0.125 -0.648438,-0.125 -0.222656,0 -0.421874,0.03906 -0.59375,0.109375 C 34.019531,13.617188 33.875,13.71875 33.75,13.84375 c -0.125,0.125 -0.230469,0.273438 -0.3125,0.441406 -0.08594,0.167969 -0.152344,0.34375 -0.203125,0.53125 -0.05078,0.1875 -0.08984,0.378906 -0.109375,0.574219 -0.02344,0.199219 -0.03516,0.386719 -0.03516,0.574219 v 1.046875 c 0,0.183593 0.01172,0.375 0.03516,0.570312 0.01953,0.199219 0.05859,0.390625 0.109375,0.578125 0.05078,0.191406 0.117187,0.371094 0.199219,0.535156 0.08203,0.167969 0.1875,0.316407 0.3125,0.441407 0.125,0.128906 0.273437,0.230469 0.445312,0.304687 0.171875,0.07422 0.371094,0.109375 0.597656,0.109375 0.25,0 0.464844,-0.03906 0.648438,-0.117187 0.183594,-0.07813 0.335938,-0.1875 0.464844,-0.332032 0.125,-0.140624 0.226562,-0.308593 0.300781,-0.5 0.07422,-0.191406 0.128906,-0.402343 0.160156,-0.625 z m 1.777344,-5.621093 v 0.824219 H 38.921875 V 13.015625 H 40.96875 V 19.5625 h -2.046875 v -0.164062 h 0.164063 v 0.816406 h -0.164063 v -0.160156 h 4.636719 v 0.160156 h -0.164063 v -0.816406 h 0.164063 V 19.5625 H 41.585938 V 12.355469 H 41.75 v 0.164062 h -2.828125 v -0.164062 z m -0.328126,-0.164063 h 3.15625 v 7.207032 H 41.75 v -0.164063 h 1.972656 v 1.144531 h -4.964844 v -1.144531 h 2.046876 v 0.164063 h -0.164063 v -6.21875 h 0.164063 V 13.34375 H 38.757812 Z M 41.75,12.355469 v 7.042969 h 1.808594 v 0.816406 h -4.636719 v -0.816406 h 1.882813 v -6.21875 h -1.882813 v -0.824219 z m 6.953125,7.699219 h 0.988281 v 0.160156 h -0.164062 v -0.07813 h 0.164062 l -0.152344,0.05859 c -0.06641,-0.164062 -0.117187,-0.355468 -0.152343,-0.574218 -0.03906,-0.214844 -0.05469,-0.417969 -0.05469,-0.613282 v -2.574218 c 0,-0.285156 -0.05078,-0.53125 -0.152343,-0.742188 -0.101563,-0.210937 -0.242188,-0.386718 -0.417969,-0.527344 -0.179688,-0.140624 -0.394531,-0.246093 -0.640625,-0.316406 -0.257813,-0.07031 -0.53125,-0.109375 -0.832032,-0.109375 -0.324218,0 -0.617187,0.04687 -0.867187,0.136719 -0.253906,0.08984 -0.46875,0.203125 -0.640625,0.34375 -0.175781,0.144531 -0.304688,0.300781 -0.394531,0.476562 -0.08984,0.171876 -0.136719,0.347657 -0.140625,0.523438 l -0.164063,-0.0039 v -0.164063 h 0.953125 v 0.164063 h -0.164062 c 0,-0.144532 0.03516,-0.28125 0.105468,-0.410156 0.06641,-0.128907 0.160157,-0.242188 0.28125,-0.335938 0.117188,-0.08984 0.257813,-0.160156 0.425782,-0.214844 0.164062,-0.05078 0.351562,-0.07813 0.554687,-0.07813 0.21875,0 0.417969,0.02734 0.59375,0.08203 0.183594,0.05859 0.339844,0.140626 0.46875,0.246094 0.128907,0.113282 0.234375,0.246094 0.304688,0.402344 0.07031,0.152344 0.105469,0.328125 0.105469,0.519531 v 0.597657 h -1.195313 c -0.375,0 -0.710937,0.03516 -1.007813,0.105468 -0.292968,0.07422 -0.542968,0.175782 -0.75,0.316406 -0.199218,0.136719 -0.351562,0.308594 -0.460937,0.515626 -0.109375,0.203124 -0.164063,0.445312 -0.164063,0.71875 0,0.210937 0.04297,0.402343 0.121094,0.582031 0.08203,0.175781 0.195313,0.328125 0.34375,0.457031 0.152344,0.132812 0.335938,0.238281 0.550782,0.316406 0.21875,0.08203 0.46875,0.121094 0.742187,0.121094 0.167969,0 0.324219,-0.01953 0.472656,-0.05469 0.152344,-0.03516 0.292969,-0.08203 0.425781,-0.140624 0.128907,-0.0625 0.25,-0.128907 0.359376,-0.210938 0.109374,-0.07813 0.210937,-0.164062 0.300781,-0.253906 L 48.695312,19.25 l 0.03125,0.347656 c 0.01172,0.109375 0.02734,0.214844 0.04688,0.316406 0.01953,0.09375 0.04297,0.167969 0.07422,0.226563 l -0.144531,0.07422 z m 0,0.324218 h -0.101563 l -0.04297,-0.08594 c -0.04687,-0.08594 -0.08203,-0.1875 -0.105469,-0.3125 -0.02344,-0.113281 -0.04297,-0.230469 -0.05078,-0.351563 l 0.160156,-0.01563 0.117188,0.117188 c -0.101563,0.101562 -0.214844,0.195312 -0.339844,0.285156 -0.125,0.09375 -0.265625,0.171875 -0.414063,0.242187 -0.152343,0.07031 -0.316406,0.125 -0.488281,0.164063 -0.171875,0.03906 -0.355469,0.0625 -0.546875,0.0625 -0.3125,0 -0.597656,-0.04687 -0.851563,-0.140625 -0.257812,-0.08984 -0.476562,-0.21875 -0.652343,-0.375 -0.1875,-0.160156 -0.328125,-0.351562 -0.429688,-0.574219 -0.101562,-0.21875 -0.148437,-0.457031 -0.148437,-0.714843 0,-0.328126 0.06641,-0.621094 0.199218,-0.875 0.132813,-0.25 0.324219,-0.460938 0.566407,-0.632813 0.238281,-0.160156 0.523437,-0.28125 0.855469,-0.359375 0.324218,-0.07813 0.6875,-0.117188 1.085937,-0.117188 h 1.03125 v 0.164063 h -0.160156 v -0.433594 c 0,-0.144531 -0.02734,-0.273437 -0.07813,-0.382812 -0.05078,-0.113281 -0.125,-0.207031 -0.21875,-0.285157 -0.09375,-0.07812 -0.214844,-0.140624 -0.355469,-0.1875 -0.144531,-0.04297 -0.3125,-0.06641 -0.496094,-0.06641 -0.171875,0 -0.320312,0.01953 -0.453125,0.0625 -0.132812,0.04297 -0.242187,0.09766 -0.328125,0.164063 -0.08203,0.0625 -0.148437,0.136719 -0.191406,0.222656 -0.04297,0.08594 -0.06641,0.171875 -0.06641,0.261719 v 0.164062 h -1.28125 v -0.167968 c 0.0039,-0.226563 0.0625,-0.449219 0.175781,-0.664063 0.109375,-0.214844 0.269531,-0.410156 0.480469,-0.582031 0.203125,-0.164063 0.449219,-0.296875 0.738281,-0.398438 0.289062,-0.101562 0.613281,-0.152344 0.976562,-0.152344 0.328126,0 0.636719,0.03906 0.921876,0.121094 0.289062,0.08203 0.542968,0.207032 0.757812,0.375 0.214844,0.171875 0.382812,0.382813 0.503906,0.636719 0.125,0.257813 0.1875,0.550781 0.1875,0.886719 V 19.0078 c 0,0.175782 0.01563,0.363282 0.04687,0.558594 0.03516,0.195313 0.07813,0.363282 0.136719,0.507813 l 0.01172,0.02734 v 0.277344 z m -1.675781,-0.71875 c -0.203125,0 -0.382813,-0.02734 -0.539063,-0.08203 -0.160156,-0.05469 -0.296875,-0.132813 -0.40625,-0.234375 -0.109375,-0.09766 -0.191406,-0.214844 -0.246093,-0.355469 -0.05469,-0.136719 -0.08203,-0.28125 -0.08203,-0.441406 0,-0.167969 0.03125,-0.316406 0.09375,-0.453125 0.06641,-0.132812 0.15625,-0.25 0.28125,-0.347656 0.160156,-0.132813 0.375,-0.230469 0.644532,-0.292969 0.257812,-0.05859 0.554687,-0.08594 0.894531,-0.08594 H 48.71094 V 18.6875 l -0.01563,0.03516 c -0.0625,0.125 -0.144531,0.242188 -0.253906,0.355469 -0.105468,0.109375 -0.230468,0.210937 -0.371094,0.296875 -0.144531,0.08594 -0.304687,0.152344 -0.476562,0.207031 -0.175781,0.05078 -0.363281,0.07813 -0.566406,0.07813 z m 0,-0.328125 c 0.167968,0 0.324218,-0.02344 0.472656,-0.06641 0.144531,-0.04297 0.28125,-0.101563 0.402344,-0.171875 0.117187,-0.07031 0.214844,-0.152344 0.300781,-0.242188 0.08594,-0.08984 0.152344,-0.179687 0.199219,-0.273437 l 0.144531,0.07422 H 48.386719 V 17.53125 h 0.160156 v 0.160156 h -0.878906 c -0.316407,0 -0.589844,0.02734 -0.820313,0.08203 -0.21875,0.05078 -0.390625,0.125 -0.515625,0.226562 -0.08203,0.06641 -0.144531,0.144531 -0.1875,0.234375 -0.04297,0.08984 -0.0625,0.195313 -0.0625,0.3125 0,0.117187 0.01953,0.222656 0.05859,0.320313 0.03516,0.08984 0.08984,0.171874 0.164063,0.238281 0.07422,0.06641 0.171874,0.121093 0.289062,0.164062 0.125,0.03906 0.269531,0.0625 0.433594,0.0625 z m 0,0.164063 c 0.183594,0 0.359375,-0.02344 0.519531,-0.07422 0.160156,-0.04687 0.304687,-0.109375 0.4375,-0.1875 0.128906,-0.07813 0.242187,-0.167969 0.339844,-0.269531 0.09375,-0.101563 0.167969,-0.207032 0.222656,-0.3125 V 17.53125 h -0.878906 c -0.328125,0 -0.613281,0.02734 -0.855469,0.08203 -0.246094,0.05859 -0.4375,0.144531 -0.582031,0.257813 -0.101563,0.08203 -0.179688,0.179687 -0.234375,0.292968 -0.05078,0.113282 -0.07813,0.242188 -0.07813,0.382813 0,0.136719 0.02344,0.265625 0.07031,0.378906 0.04297,0.117188 0.113281,0.214844 0.207031,0.296875 0.08984,0.08594 0.207032,0.152344 0.347657,0.199219 0.140625,0.05078 0.300781,0.07422 0.484375,0.07422 z m 1.675781,0.71875 c -0.03906,-0.07031 -0.07031,-0.160156 -0.08984,-0.265625 -0.02344,-0.109375 -0.03906,-0.21875 -0.05078,-0.335938 -0.09375,0.09375 -0.199219,0.183594 -0.320312,0.269531 -0.117188,0.08594 -0.246094,0.160157 -0.382813,0.226563 -0.144531,0.06641 -0.296875,0.117187 -0.457031,0.152344 -0.160156,0.03906 -0.332032,0.05859 -0.511719,0.05859 -0.292969,0 -0.558594,-0.04297 -0.796875,-0.128906 -0.238281,-0.08594 -0.4375,-0.203125 -0.601562,-0.347656 -0.167969,-0.144531 -0.296876,-0.316406 -0.386719,-0.515625 -0.08984,-0.199219 -0.132813,-0.414063 -0.132813,-0.648437 0,-0.300782 0.05859,-0.570313 0.179688,-0.796876 0.121094,-0.230468 0.292968,-0.417968 0.515625,-0.574218 0.21875,-0.148438 0.488281,-0.261719 0.800781,-0.335938 0.3125,-0.07422 0.660156,-0.113281 1.046875,-0.113281 h 1.03125 v -0.433594 c 0,-0.167969 -0.02734,-0.320312 -0.08984,-0.453125 -0.0625,-0.132812 -0.148437,-0.246094 -0.261719,-0.34375 -0.113281,-0.08984 -0.25,-0.164062 -0.410156,-0.214844 -0.164062,-0.05078 -0.34375,-0.07422 -0.546875,-0.07422 -0.1875,0 -0.355469,0.02344 -0.503906,0.07031 -0.148437,0.04687 -0.273437,0.109375 -0.375,0.191406 -0.105469,0.07813 -0.183594,0.167969 -0.238281,0.277344 -0.05859,0.105469 -0.08594,0.21875 -0.08594,0.335938 h -0.953125 c 0.0039,-0.203125 0.05859,-0.398438 0.15625,-0.59375 0.101563,-0.195313 0.246094,-0.371094 0.4375,-0.527344 0.1875,-0.152344 0.417969,-0.277344 0.691407,-0.375 0.269531,-0.09375 0.578124,-0.144531 0.921874,-0.144531 0.3125,0 0.605469,0.03906 0.875,0.117187 0.269532,0.07813 0.503907,0.191406 0.703126,0.34375 0.191406,0.160156 0.347656,0.351563 0.460937,0.585938 0.109375,0.230468 0.167969,0.503906 0.167969,0.8125 v 2.574218 c 0,0.183594 0.01563,0.378907 0.05078,0.585938 0.03516,0.207031 0.08203,0.386719 0.144531,0.542969 v 0.07813 z m 6.496094,-1.46875 c 0,0.113281 -0.02344,0.21875 -0.06641,0.316406 -0.04297,0.09766 -0.101562,0.1875 -0.183593,0.265625 -0.125,0.125 -0.292969,0.222656 -0.503907,0.289063 -0.207031,0.06641 -0.441406,0.09766 -0.710937,0.09766 -0.171875,0 -0.34375,-0.01953 -0.519531,-0.05469 -0.183594,-0.03906 -0.347656,-0.101562 -0.5,-0.195312 C 52.558594,19.371094 52.429688,19.25 52.328125,19.097656 52.21875,18.9375 52.15625,18.746094 52.140625,18.523438 l 0.164063,-0.01172 v 0.164062 h -0.945313 v -0.164062 h 0.164063 c 0,0.210937 0.04687,0.414062 0.144531,0.609375 0.09375,0.195312 0.238281,0.367187 0.421875,0.515625 0.1875,0.15625 0.417968,0.28125 0.695312,0.375 0.273438,0.09766 0.589844,0.144531 0.949219,0.144531 0.3125,0 0.597656,-0.03906 0.859375,-0.113281 0.257812,-0.07422 0.480469,-0.175781 0.660156,-0.308594 0.179688,-0.128906 0.316406,-0.28125 0.417969,-0.460937 0.09766,-0.175782 0.144531,-0.375 0.144531,-0.59375 0,-0.199219 -0.04297,-0.375 -0.125,-0.523438 -0.08594,-0.152344 -0.210937,-0.289062 -0.375,-0.40625 -0.171875,-0.121094 -0.382812,-0.226562 -0.636718,-0.3125 -0.265626,-0.09375 -0.5625,-0.175781 -0.898438,-0.246094 -0.265625,-0.05078 -0.484375,-0.105468 -0.660156,-0.160156 -0.183594,-0.0625 -0.332032,-0.128906 -0.441406,-0.207031 -0.128907,-0.08203 -0.21875,-0.179688 -0.269532,-0.292969 -0.05469,-0.109375 -0.07813,-0.230469 -0.07813,-0.363281 0,-0.132813 0.03125,-0.261719 0.09375,-0.382813 0.0625,-0.121094 0.15625,-0.226562 0.28125,-0.316406 0.113281,-0.08594 0.253907,-0.15625 0.425781,-0.207031 0.167969,-0.04687 0.359376,-0.07031 0.574219,-0.07031 0.214844,0 0.40625,0.03125 0.578125,0.08984 0.175782,0.0625 0.324219,0.140625 0.449219,0.242188 0.125,0.101562 0.222656,0.222656 0.296875,0.355468 0.07422,0.136719 0.109375,0.28125 0.109375,0.425782 h -0.164063 v -0.164063 h 0.949219 v 0.164063 h -0.164062 c 0,-0.214844 -0.04687,-0.417969 -0.140625,-0.605469 -0.09375,-0.1875 -0.226563,-0.351563 -0.398438,-0.496094 -0.175781,-0.144531 -0.390625,-0.253906 -0.644531,-0.339844 -0.257813,-0.08203 -0.546875,-0.125 -0.871094,-0.125 -0.300781,0 -0.574219,0.04297 -0.820312,0.121094 -0.246094,0.08203 -0.457031,0.1875 -0.636719,0.324219 -0.171875,0.132812 -0.304688,0.285156 -0.398438,0.460937 -0.09375,0.171875 -0.140624,0.355469 -0.140624,0.554688 0,0.199219 0.04297,0.371093 0.132812,0.515625 0.08984,0.152344 0.21875,0.285156 0.382812,0.398437 0.175782,0.121094 0.386719,0.226563 0.632813,0.3125 0.253906,0.08984 0.535156,0.167969 0.84375,0.230469 0.269531,0.05078 0.492187,0.113281 0.675781,0.175781 0.1875,0.07031 0.339844,0.144531 0.457032,0.230469 0.128906,0.08984 0.222656,0.191406 0.277343,0.308594 0.05469,0.113281 0.08594,0.238281 0.08594,0.375 z m -0.328125,0 c 0,-0.08594 -0.01953,-0.164063 -0.05078,-0.230469 -0.03125,-0.06641 -0.08984,-0.128906 -0.171874,-0.1875 -0.09375,-0.06641 -0.222657,-0.128906 -0.382813,-0.1875 -0.164063,-0.05859 -0.375,-0.113281 -0.625,-0.164063 -0.324219,-0.06641 -0.621094,-0.148437 -0.890625,-0.242187 -0.273438,-0.09766 -0.511719,-0.214844 -0.703125,-0.351563 -0.210937,-0.140624 -0.371094,-0.304687 -0.484375,-0.5 -0.121094,-0.195312 -0.179688,-0.425781 -0.179688,-0.683593 0,-0.253907 0.0625,-0.488281 0.179688,-0.710938 0.117188,-0.214843 0.28125,-0.40625 0.488281,-0.566406 0.207031,-0.15625 0.453125,-0.28125 0.734375,-0.375 0.28125,-0.08984 0.589844,-0.132813 0.921875,-0.132813 0.359375,0 0.683594,0.04688 0.972657,0.140626 0.292968,0.09375 0.542968,0.226562 0.75,0.398437 0.207031,0.167969 0.371093,0.371094 0.484374,0.601563 0.117188,0.234374 0.175782,0.484374 0.175782,0.75 V 16.46875 H 54.8125 v -0.164062 c 0,-0.08984 -0.02344,-0.179688 -0.07031,-0.273438 -0.05078,-0.09375 -0.125,-0.179688 -0.214844,-0.253906 -0.09766,-0.07422 -0.210938,-0.136719 -0.347656,-0.1875 -0.140626,-0.04687 -0.296876,-0.07031 -0.472657,-0.07031 -0.183593,0 -0.347656,0.01953 -0.484375,0.05859 -0.132812,0.03906 -0.238281,0.08984 -0.324218,0.152344 -0.08203,0.0625 -0.140626,0.128906 -0.179688,0.207031 -0.03906,0.07422 -0.05859,0.152344 -0.05859,0.230469 0,0.08594 0.01563,0.15625 0.04297,0.222656 0.02734,0.05469 0.08203,0.113281 0.160156,0.164063 0.08594,0.05859 0.207031,0.113281 0.359375,0.164062 0.164063,0.05078 0.371094,0.105469 0.625,0.152344 0.351563,0.07422 0.660156,0.160156 0.9375,0.253906 0.285156,0.101562 0.527344,0.21875 0.722656,0.359375 0.203126,0.148437 0.359376,0.316406 0.46875,0.511719 0.113282,0.199218 0.167969,0.429687 0.167969,0.683594 0,0.273437 -0.0625,0.523437 -0.1875,0.75 -0.1211,0.222657 -0.292976,0.414063 -0.511726,0.570313 -0.210937,0.15625 -0.464843,0.273438 -0.761718,0.359375 -0.289063,0.08203 -0.605469,0.125 -0.949219,0.125 -0.394531,0 -0.746094,-0.05469 -1.058594,-0.160156 -0.3125,-0.109375 -0.574219,-0.25 -0.789062,-0.429688 -0.222657,-0.179687 -0.394531,-0.390625 -0.515625,-0.628906 -0.117188,-0.242187 -0.175782,-0.492187 -0.175782,-0.753906 v -0.164063 h 1.261719 L 52.46875,18.5 c 0.01172,0.164062 0.05469,0.304688 0.128906,0.410156 0.07813,0.113282 0.171875,0.207032 0.289063,0.277344 0.117187,0.07031 0.25,0.121094 0.394531,0.152344 0.152344,0.03125 0.304688,0.04687 0.453125,0.04687 0.234375,0 0.4375,-0.02734 0.609375,-0.08203 0.164062,-0.05078 0.289062,-0.121094 0.375,-0.207032 0.05078,-0.05078 0.08594,-0.105468 0.113281,-0.164062 0.02344,-0.05859 0.03906,-0.121094 0.03906,-0.1875 z m 0.164062,0 c 0,-0.109375 -0.02344,-0.210938 -0.06641,-0.304688 -0.04687,-0.08984 -0.121094,-0.171875 -0.226562,-0.246094 -0.105469,-0.07422 -0.246094,-0.144531 -0.417969,-0.207031 -0.175781,-0.0625 -0.394531,-0.121093 -0.652344,-0.171875 -0.316406,-0.06641 -0.605469,-0.144531 -0.867187,-0.234375 -0.261719,-0.09375 -0.484376,-0.203125 -0.667969,-0.335937 -0.1875,-0.125 -0.332031,-0.273438 -0.433594,-0.445313 -0.105469,-0.171875 -0.15625,-0.375 -0.15625,-0.601562 0,-0.226563 0.05469,-0.4375 0.160156,-0.632813 0.105469,-0.195312 0.253907,-0.367187 0.445313,-0.515625 0.191406,-0.144531 0.417968,-0.261719 0.683594,-0.347656 0.265624,-0.08594 0.554687,-0.128906 0.871093,-0.128906 0.34375,0 0.648438,0.04687 0.921875,0.136719 0.273438,0.08594 0.503906,0.210937 0.695313,0.367187 0.191406,0.15625 0.339843,0.339844 0.445312,0.550781 0.101563,0.207032 0.15625,0.433594 0.15625,0.675782 h -0.949219 c 0,-0.117188 -0.03125,-0.234376 -0.08984,-0.347657 -0.0625,-0.117187 -0.148438,-0.21875 -0.257813,-0.304687 -0.109375,-0.08984 -0.242187,-0.160156 -0.394531,-0.214844 -0.15625,-0.05469 -0.332031,-0.08203 -0.527344,-0.08203 -0.199219,0 -0.375,0.01953 -0.527343,0.06641 -0.152344,0.04297 -0.277344,0.101563 -0.378907,0.179687 -0.101562,0.07422 -0.179687,0.160157 -0.230469,0.257813 -0.05078,0.101563 -0.07422,0.203125 -0.07422,0.308594 0,0.109375 0.01953,0.207031 0.05859,0.292969 0.04297,0.08594 0.113281,0.160156 0.214843,0.230468 0.101563,0.06641 0.234375,0.128906 0.402344,0.183594 0.171875,0.05469 0.382813,0.105469 0.644531,0.15625 0.339844,0.07422 0.644532,0.15625 0.914063,0.25 0.269531,0.09375 0.496093,0.207031 0.683593,0.335938 0.183594,0.132812 0.324219,0.285156 0.421876,0.460937 0.09766,0.171875 0.144531,0.375 0.144531,0.601563 0,0.246093 -0.05469,0.46875 -0.167969,0.671874 -0.109375,0.203126 -0.261719,0.375 -0.460938,0.515626 -0.199218,0.144531 -0.433593,0.253906 -0.710937,0.335937 -0.277344,0.07813 -0.578125,0.117187 -0.90625,0.117187 -0.375,0 -0.710937,-0.05078 -1.003906,-0.152343 -0.292969,-0.101563 -0.539063,-0.234375 -0.742188,-0.402344 -0.203125,-0.164063 -0.359375,-0.355469 -0.46875,-0.574219 -0.105469,-0.214844 -0.160156,-0.445312 -0.160156,-0.679687 h 0.945313 c 0.01562,0.195312 0.06641,0.359375 0.15625,0.492187 0.08984,0.132813 0.203124,0.242188 0.339843,0.320313 0.132813,0.08203 0.28125,0.140625 0.445313,0.175781 0.164062,0.03516 0.328125,0.05078 0.488281,0.05078 0.25,0 0.472656,-0.03125 0.660156,-0.08984 0.1875,-0.05859 0.332031,-0.140626 0.441407,-0.246094 0.0625,-0.06641 0.113281,-0.136719 0.148437,-0.214844 0.03125,-0.07813 0.05078,-0.164062 0.05078,-0.253906 z m 6.453125,0 c 0,0.113281 -0.02344,0.21875 -0.06641,0.316406 -0.03906,0.09766 -0.101563,0.1875 -0.179687,0.265625 -0.125,0.125 -0.296876,0.222656 -0.507813,0.289063 -0.203125,0.06641 -0.441406,0.09766 -0.710937,0.09766 -0.171876,0 -0.34375,-0.01953 -0.519532,-0.05469 -0.18359,-0.03906 -0.347652,-0.101564 -0.49609,-0.195314 C 58.851562,19.371094 58.722656,19.25 58.617188,19.097656 58.511719,18.9375 58.449219,18.746094 58.433594,18.523438 l 0.164062,-0.01172 V 18.67578 H 57.648438 V 18.511719 H 57.8125 c 0,0.210937 0.04687,0.414062 0.144531,0.609375 0.09766,0.195312 0.238281,0.367187 0.425781,0.515625 0.1875,0.15625 0.417969,0.28125 0.691407,0.375 0.277343,0.09766 0.59375,0.144531 0.949219,0.144531 0.3125,0 0.601562,-0.03906 0.863281,-0.113281 0.257812,-0.07422 0.476562,-0.175781 0.660156,-0.308594 0.175781,-0.128906 0.316406,-0.28125 0.414063,-0.460937 0.09766,-0.175782 0.148437,-0.375 0.148437,-0.59375 0,-0.199219 -0.04297,-0.375 -0.125,-0.523438 C 61.898438,18.003906 61.773438,17.867188 61.605469,17.75 61.4375,17.628906 61.222656,17.523438 60.96875,17.4375 c -0.261719,-0.09375 -0.5625,-0.175781 -0.894531,-0.246094 -0.265625,-0.05078 -0.484375,-0.105468 -0.660157,-0.160156 -0.183593,-0.0625 -0.332031,-0.128906 -0.445312,-0.207031 -0.125,-0.08203 -0.214844,-0.179688 -0.269531,-0.292969 -0.05078,-0.109375 -0.07813,-0.230469 -0.07813,-0.363281 0,-0.132813 0.03125,-0.261719 0.09766,-0.382813 0.0625,-0.121094 0.152344,-0.226562 0.277344,-0.316406 0.113281,-0.08594 0.253906,-0.15625 0.425781,-0.207031 0.167969,-0.04687 0.359375,-0.07031 0.578125,-0.07031 0.210938,0 0.40625,0.03125 0.578125,0.08984 0.171875,0.0625 0.320313,0.140625 0.445313,0.242188 0.125,0.101562 0.226562,0.222656 0.296874,0.355468 0.07422,0.136719 0.113282,0.28125 0.113282,0.425782 H 61.26953 v -0.164063 h 0.945313 v 0.164063 H 62.05078 c 0,-0.214844 -0.04687,-0.417969 -0.136719,-0.605469 -0.09375,-0.1875 -0.230468,-0.351563 -0.402343,-0.496094 -0.175781,-0.144531 -0.390625,-0.253906 -0.640625,-0.339844 -0.257813,-0.08203 -0.546875,-0.125 -0.871094,-0.125 -0.300781,0 -0.574219,0.04297 -0.824219,0.121094 -0.246093,0.08203 -0.457031,0.1875 -0.632812,0.324219 -0.171875,0.132812 -0.308594,0.285156 -0.402344,0.460937 -0.08984,0.171875 -0.136719,0.355469 -0.136719,0.554688 0,0.199219 0.04297,0.371093 0.128906,0.515625 0.08984,0.152344 0.21875,0.285156 0.386719,0.398437 0.171875,0.121094 0.382813,0.226563 0.628907,0.3125 0.253906,0.08984 0.539062,0.167969 0.847656,0.230469 0.265625,0.05078 0.492187,0.113281 0.671875,0.175781 0.1875,0.07031 0.339843,0.144531 0.460937,0.230469 0.128906,0.08984 0.21875,0.191406 0.277344,0.308594 0.05469,0.113281 0.08203,0.238281 0.08203,0.375 z m -0.328125,0 c 0,-0.08594 -0.01563,-0.164063 -0.05078,-0.230469 -0.03125,-0.06641 -0.08984,-0.128906 -0.171875,-0.1875 -0.09375,-0.06641 -0.21875,-0.128906 -0.378906,-0.1875 -0.167969,-0.05859 -0.375,-0.113281 -0.628906,-0.164063 -0.324219,-0.06641 -0.621094,-0.148437 -0.890626,-0.242187 -0.273437,-0.09766 -0.507812,-0.214844 -0.703124,-0.351563 -0.207032,-0.140624 -0.371094,-0.304687 -0.484376,-0.5 -0.117187,-0.195312 -0.175781,-0.425781 -0.175781,-0.683593 0,-0.253907 0.05859,-0.488281 0.175781,-0.710938 0.117188,-0.214843 0.28125,-0.40625 0.492188,-0.566406 0.207031,-0.15625 0.449219,-0.28125 0.730469,-0.375 0.28125,-0.08984 0.589843,-0.132813 0.925781,-0.132813 0.355469,0 0.679688,0.04688 0.96875,0.140626 0.292969,0.09375 0.542969,0.226562 0.75,0.398437 0.210938,0.167969 0.371094,0.371094 0.488281,0.601563 0.113281,0.234374 0.171875,0.484374 0.171875,0.75 V 16.46875 H 61.10547 v -0.164062 c 0,-0.08984 -0.02344,-0.179688 -0.07422,-0.273438 -0.05078,-0.09375 -0.121094,-0.179688 -0.214844,-0.253906 -0.09375,-0.07422 -0.210937,-0.136719 -0.347656,-0.1875 -0.136719,-0.04687 -0.292969,-0.07031 -0.46875,-0.07031 -0.1875,0 -0.347656,0.01953 -0.484375,0.05859 -0.132813,0.03906 -0.242187,0.08984 -0.324219,0.152344 -0.08203,0.0625 -0.144531,0.128906 -0.183594,0.207031 -0.03906,0.07422 -0.05859,0.152344 -0.05859,0.230469 0,0.08594 0.01563,0.15625 0.04687,0.222656 0.02734,0.05469 0.07813,0.113281 0.160156,0.164063 0.08594,0.05859 0.203125,0.113281 0.359375,0.164062 0.160156,0.05078 0.371094,0.105469 0.625,0.152344 0.347656,0.07422 0.660156,0.160156 0.9375,0.253906 0.28125,0.101562 0.523437,0.21875 0.722656,0.359375 0.203125,0.148437 0.359375,0.316406 0.46875,0.511719 0.109375,0.199218 0.164063,0.429687 0.164063,0.683594 0,0.273437 -0.0625,0.523437 -0.183594,0.75 C 62.125,19.652344 61.957031,19.84375 61.738281,20 c -0.214843,0.15625 -0.46875,0.273438 -0.761719,0.359375 -0.292968,0.08203 -0.609374,0.125 -0.953124,0.125 -0.394532,0 -0.746094,-0.05469 -1.054688,-0.160156 -0.3125,-0.109375 -0.578125,-0.25 -0.792969,-0.429688 -0.222656,-0.179687 -0.394531,-0.390625 -0.511719,-0.628906 -0.121093,-0.242187 -0.179687,-0.492187 -0.179687,-0.753906 V 18.347656 H 58.75 L 58.757812,18.5 c 0.01172,0.164062 0.05469,0.304688 0.128907,0.410156 0.07813,0.113282 0.175781,0.207032 0.292969,0.277344 0.117187,0.07031 0.246093,0.121094 0.390624,0.152344 0.152344,0.03125 0.304688,0.04687 0.453126,0.04687 0.238281,0 0.441406,-0.02734 0.613281,-0.08203 0.160156,-0.05078 0.285156,-0.121094 0.371093,-0.207032 0.05078,-0.05078 0.08984,-0.105468 0.113282,-0.164062 0.02734,-0.05859 0.03906,-0.121094 0.03906,-0.1875 z m 0.164063,0 c 0,-0.109375 -0.02344,-0.210938 -0.06641,-0.304688 -0.04297,-0.08984 -0.121093,-0.171875 -0.226562,-0.246094 -0.105469,-0.07422 -0.246094,-0.144531 -0.417969,-0.207031 -0.175781,-0.0625 -0.390625,-0.121093 -0.648437,-0.171875 -0.320313,-0.06641 -0.609375,-0.144531 -0.871094,-0.234375 -0.257812,-0.09375 -0.480469,-0.203125 -0.667969,-0.335937 -0.1875,-0.125 -0.332031,-0.273438 -0.433593,-0.445313 -0.101563,-0.171875 -0.152344,-0.375 -0.152344,-0.601562 0,-0.226563 0.05078,-0.4375 0.15625,-0.632813 0.105468,-0.195312 0.253906,-0.367187 0.445312,-0.515625 0.191406,-0.144531 0.421875,-0.261719 0.683594,-0.347656 0.265625,-0.08594 0.554688,-0.128906 0.875,-0.128906 0.339844,0 0.648438,0.04687 0.921875,0.136719 0.269531,0.08594 0.503906,0.210937 0.695313,0.367187 0.191406,0.15625 0.335937,0.339844 0.441406,0.550781 0.105468,0.207032 0.15625,0.433594 0.15625,0.675782 h -0.945313 c 0,-0.117188 -0.03125,-0.234376 -0.09375,-0.347657 -0.0625,-0.117187 -0.148437,-0.21875 -0.253906,-0.304687 C 60.8125,15.5625 60.679688,15.492188 60.523438,15.4375 60.367188,15.382812 60.191406,15.355469 60,15.355469 c -0.203125,0 -0.378906,0.01953 -0.53125,0.06641 -0.152344,0.04297 -0.277344,0.101563 -0.375,0.179687 -0.101562,0.07422 -0.179688,0.160157 -0.230469,0.257813 -0.05078,0.101563 -0.07813,0.203125 -0.07813,0.308594 0,0.109375 0.01953,0.207031 0.0625,0.292969 0.03906,0.08594 0.113282,0.160156 0.214844,0.230468 0.09766,0.06641 0.234375,0.128906 0.402344,0.183594 0.167968,0.05469 0.382812,0.105469 0.640625,0.15625 0.34375,0.07422 0.648437,0.15625 0.917969,0.25 0.269531,0.09375 0.496093,0.207031 0.679687,0.335938 0.183594,0.132812 0.324219,0.285156 0.421875,0.460937 0.09766,0.171875 0.144531,0.375 0.144531,0.601563 0,0.246093 -0.05469,0.46875 -0.164062,0.671874 -0.113281,0.203126 -0.265625,0.375 -0.464844,0.515626 -0.195313,0.144531 -0.433594,0.253906 -0.710937,0.335937 -0.277344,0.07813 -0.578126,0.117187 -0.90625,0.117187 -0.375,0 -0.707032,-0.05078 -1.003907,-0.152343 C 58.726557,20.06641 58.480464,19.933598 58.277339,19.765629 58.074214,19.601566 57.917964,19.41016 57.812495,19.19141 57.70312,18.976566 57.648433,18.746098 57.648433,18.511723 h 0.949218 c 0.01172,0.195312 0.0625,0.359375 0.15625,0.492187 0.08984,0.132813 0.203125,0.242188 0.339844,0.320313 0.132812,0.08203 0.28125,0.140625 0.445312,0.175781 0.164063,0.03516 0.324219,0.05078 0.484376,0.05078 0.253906,0 0.472656,-0.03125 0.660156,-0.08984 0.1875,-0.05859 0.335937,-0.140626 0.441406,-0.246094 0.06641,-0.06641 0.113281,-0.136719 0.148438,-0.214844 0.03516,-0.07813 0.05078,-0.164062 0.05078,-0.253906 z m 7.4375,-0.609375 h -0.945313 v -0.160157 l 0.160156,0.01953 c -0.03125,0.238281 -0.08984,0.460937 -0.167968,0.664062 -0.08203,0.210938 -0.191406,0.394532 -0.332032,0.550782 -0.140624,0.160156 -0.316406,0.285156 -0.519531,0.375 -0.203125,0.08594 -0.441406,0.128906 -0.714843,0.128906 -0.25,0 -0.472657,-0.03906 -0.664063,-0.125 -0.1875,-0.07813 -0.355469,-0.195313 -0.496094,-0.339844 -0.136719,-0.136719 -0.253906,-0.296875 -0.34375,-0.480469 -0.08594,-0.175781 -0.15625,-0.367187 -0.210937,-0.566406 -0.05078,-0.195313 -0.08984,-0.398437 -0.113282,-0.601563 -0.02344,-0.203124 -0.03516,-0.398437 -0.03516,-0.589843 v -1.046875 c 0,-0.191406 0.01172,-0.386719 0.03516,-0.589844 0.02344,-0.207031 0.0625,-0.40625 0.113282,-0.601562 0.05469,-0.199219 0.128906,-0.386719 0.214844,-0.5625 0.09375,-0.183594 0.207031,-0.34375 0.347656,-0.484376 0.136718,-0.140624 0.300781,-0.25 0.492187,-0.332031 0.195313,-0.08203 0.414063,-0.125 0.660157,-0.125 0.273437,0 0.511718,0.04687 0.71875,0.140625 0.203124,0.09375 0.375,0.222656 0.515624,0.386719 0.140626,0.164063 0.25,0.347656 0.332032,0.5625 0.07813,0.207031 0.136718,0.425781 0.167968,0.664063 l -0.160156,0.02344 v -0.164063 h 0.945313 v 0.164063 l -0.164063,0.01953 C 68.558594,14.726562 68.480469,14.417969 68.359375,14.140625 68.238281,13.867188 68.082031,13.628906 67.882812,13.433594 67.6875,13.242188 67.453125,13.09375 67.183594,12.984375 66.90625,12.878906 66.59375,12.824219 66.242188,12.824219 c -0.289063,0 -0.550782,0.04297 -0.785157,0.121093 -0.230469,0.08203 -0.4375,0.195313 -0.617187,0.335938 -0.183594,0.144531 -0.34375,0.3125 -0.476563,0.507812 -0.132812,0.199219 -0.242187,0.417969 -0.332031,0.648438 -0.08984,0.238281 -0.160156,0.484375 -0.203125,0.746094 -0.04687,0.257812 -0.07031,0.523437 -0.07422,0.792968 v 1.035157 c 0.0039,0.265625 0.02734,0.53125 0.07422,0.792969 0.04297,0.257812 0.113281,0.503906 0.203125,0.742187 0.08984,0.234375 0.199219,0.449219 0.332031,0.644531 0.132813,0.195313 0.292969,0.363282 0.476563,0.507813 0.179687,0.140625 0.386718,0.253906 0.621094,0.335937 0.234374,0.07813 0.492187,0.121094 0.78125,0.121094 0.339843,0 0.644531,-0.05469 0.917968,-0.160156 0.269532,-0.105469 0.503906,-0.257813 0.703125,-0.449219 0.199219,-0.191406 0.359375,-0.421875 0.484375,-0.691406 0.125,-0.273438 0.210938,-0.574219 0.25,-0.902344 l 0.164063,0.02344 z m 0,-0.324219 h 0.1875 l -0.02344,0.183594 c -0.04687,0.359375 -0.140625,0.691406 -0.28125,0.996094 -0.140625,0.308593 -0.324219,0.570312 -0.550781,0.789062 -0.230469,0.222656 -0.503906,0.398438 -0.816406,0.519531 -0.308594,0.121094 -0.65625,0.183594 -1.035156,0.183594 -0.324219,0 -0.621094,-0.04687 -0.890626,-0.140625 C 65.085938,20.25 64.847656,20.121094 64.636719,19.957031 64.425781,19.792969 64.246094,19.601562 64.09375,19.378906 63.945312,19.160156 63.820312,18.921875 63.726562,18.664062 63.625,18.40625 63.550781,18.140625 63.503906,17.859375 c -0.04687,-0.277344 -0.07031,-0.558594 -0.07422,-0.847656 v -1.039063 c 0.0039,-0.285156 0.02734,-0.566406 0.07422,-0.847656 0.04687,-0.277344 0.121094,-0.546875 0.222656,-0.800781 0.09375,-0.257813 0.21875,-0.496094 0.367188,-0.71875 0.152344,-0.222657 0.332031,-0.417969 0.542969,-0.582031 0.210937,-0.164063 0.445312,-0.292969 0.714843,-0.386719 0.265626,-0.09375 0.5625,-0.140625 0.890626,-0.140625 0.394531,0 0.746093,0.0625 1.058593,0.183594 0.316407,0.125 0.585938,0.296874 0.8125,0.519531 0.226563,0.226562 0.410157,0.496093 0.546875,0.808593 0.132813,0.308594 0.222656,0.648438 0.265625,1.019532 l 0.01953,0.183594 h -1.273437 l -0.01953,-0.140626 c -0.02734,-0.214843 -0.07813,-0.410156 -0.148438,-0.59375 -0.07031,-0.175781 -0.160156,-0.332031 -0.273437,-0.464843 -0.109375,-0.128907 -0.246094,-0.230469 -0.40625,-0.300781 -0.164063,-0.07422 -0.355469,-0.113282 -0.582031,-0.113282 -0.203126,0 -0.378907,0.03125 -0.53125,0.09766 -0.152344,0.06641 -0.28125,0.152344 -0.390626,0.265626 -0.113281,0.113281 -0.207031,0.246093 -0.285156,0.398437 -0.07813,0.15625 -0.140625,0.324219 -0.191406,0.5 -0.04687,0.179687 -0.08203,0.363281 -0.105469,0.550781 -0.01953,0.191406 -0.03125,0.375 -0.03125,0.554688 v 1.046875 c 0,0.179687 0.01172,0.363281 0.03125,0.554687 0.02344,0.1875 0.05859,0.371094 0.105469,0.550782 0.05078,0.179687 0.113281,0.351562 0.191406,0.507812 0.07422,0.148438 0.167969,0.28125 0.28125,0.398438 0.109375,0.113281 0.242188,0.203124 0.394532,0.265624 0.148437,0.06641 0.328124,0.09766 0.53125,0.09766 0.226562,0 0.421874,-0.03516 0.582031,-0.105469 0.160156,-0.06641 0.296875,-0.164062 0.410156,-0.289062 0.109375,-0.125 0.203125,-0.277344 0.269531,-0.449219 0.07031,-0.179688 0.121094,-0.378907 0.148438,-0.589844 l 0.01953,-0.140625 z m 0,0.164062 c -0.04297,0.34375 -0.132813,0.660157 -0.265625,0.949219 -0.132813,0.285157 -0.304688,0.535157 -0.515625,0.738281 -0.21875,0.207032 -0.46875,0.371094 -0.761719,0.484376 -0.292969,0.113281 -0.617188,0.171874 -0.976562,0.171874 -0.304688,0 -0.585938,-0.04297 -0.835938,-0.132812 -0.25,-0.08594 -0.472656,-0.207031 -0.667969,-0.359375 -0.199219,-0.152344 -0.367187,-0.335937 -0.507812,-0.542969 -0.144531,-0.207031 -0.257813,-0.433594 -0.351563,-0.679687 -0.09766,-0.246094 -0.167968,-0.503907 -0.210937,-0.773438 -0.04687,-0.269531 -0.07422,-0.542969 -0.07422,-0.820312 v -1.039063 c 0,-0.277344 0.02734,-0.546875 0.07422,-0.816406 0.04297,-0.269531 0.113281,-0.527344 0.210937,-0.773438 0.09375,-0.246093 0.207032,-0.476562 0.351563,-0.683593 0.140625,-0.210938 0.308593,-0.390625 0.507812,-0.546875 C 64.933594,13 65.15625,12.878906 65.402344,12.792969 c 0.25,-0.08594 0.53125,-0.132813 0.839844,-0.132813 0.375,0 0.707031,0.05859 1,0.171875 0.292968,0.117188 0.546874,0.277344 0.757812,0.484375 0.210938,0.210938 0.378906,0.464844 0.507812,0.757813 0.128907,0.292969 0.214844,0.617187 0.253907,0.972656 h -0.945313 c -0.03125,-0.226563 -0.08594,-0.433594 -0.160156,-0.628906 -0.07422,-0.195313 -0.175781,-0.367188 -0.300781,-0.511719 -0.128907,-0.148438 -0.28125,-0.261719 -0.464844,-0.347656 -0.183594,-0.08203 -0.398437,-0.125 -0.648437,-0.125 -0.222657,0 -0.421876,0.03906 -0.59375,0.109375 -0.171876,0.07422 -0.320313,0.175781 -0.445313,0.300781 -0.125,0.125 -0.230469,0.273438 -0.3125,0.441406 -0.08594,0.167969 -0.152344,0.34375 -0.203125,0.53125 -0.05078,0.1875 -0.08984,0.378906 -0.109375,0.574219 -0.02344,0.199219 -0.03516,0.386719 -0.03516,0.574219 v 1.046875 c 0,0.183593 0.01172,0.375 0.03516,0.570312 0.01953,0.199219 0.05859,0.390625 0.109375,0.578125 0.05078,0.191406 0.117188,0.371094 0.199219,0.535156 0.08203,0.167969 0.1875,0.316407 0.3125,0.441407 0.125,0.128906 0.273437,0.230469 0.445312,0.304687 0.171875,0.07422 0.371094,0.109375 0.597657,0.109375 0.25,0 0.464843,-0.03906 0.648437,-0.117187 0.183594,-0.07813 0.335937,-0.1875 0.464844,-0.332032 0.125,-0.140624 0.226562,-0.308593 0.300781,-0.5 0.07422,-0.191406 0.128906,-0.402343 0.160156,-0.625 z M 70.125,17.394531 v 0.113281 c 0,0.382813 0.05469,0.734376 0.164062,1.058594 0.109376,0.320313 0.265626,0.601563 0.46875,0.835938 0.199219,0.234375 0.445313,0.417968 0.738282,0.554687 0.289062,0.132813 0.617187,0.199219 0.988281,0.199219 0.363281,0 0.691406,-0.06641 0.980469,-0.199219 0.289062,-0.136719 0.535156,-0.320312 0.738281,-0.554687 0.199219,-0.234375 0.355469,-0.515625 0.464844,-0.835938 0.109375,-0.324218 0.164062,-0.675781 0.164062,-1.058594 v -0.113281 c 0,-0.378906 -0.05469,-0.734375 -0.164062,-1.058593 -0.109375,-0.324219 -0.265625,-0.601563 -0.46875,-0.839844 C 74,15.261719 73.75,15.078125 73.460938,14.941406 c -0.289063,-0.132812 -0.621094,-0.203125 -0.988282,-0.203125 -0.363281,0 -0.691406,0.07031 -0.980468,0.203125 -0.289063,0.136719 -0.53125,0.320313 -0.734376,0.554688 -0.203124,0.238281 -0.359374,0.515625 -0.46875,0.839844 C 70.179688,16.660156 70.125,17.015625 70.125,17.394531 Z m -0.328125,0 c 0,-0.414062 0.05859,-0.804687 0.179687,-1.164062 0.125,-0.363281 0.300782,-0.679688 0.535157,-0.945313 0.230469,-0.273437 0.511719,-0.484375 0.84375,-0.640625 0.332031,-0.15625 0.703125,-0.230469 1.117187,-0.230469 0.417969,0 0.792969,0.07422 1.125,0.230469 0.335938,0.15625 0.617188,0.367188 0.851563,0.640625 0.230469,0.265625 0.40625,0.582032 0.527343,0.945313 0.121094,0.359375 0.183594,0.75 0.183594,1.164062 v 0.113281 c 0,0.417969 -0.0625,0.804688 -0.183594,1.164063 -0.121093,0.363281 -0.296874,0.675781 -0.527343,0.945313 -0.234375,0.269531 -0.515625,0.484374 -0.847657,0.636718 -0.332031,0.152344 -0.707031,0.230469 -1.117187,0.230469 -0.417969,0 -0.792969,-0.07813 -1.125,-0.230469 -0.335937,-0.15625 -0.617187,-0.367187 -0.847656,-0.636718 -0.234375,-0.269532 -0.410157,-0.582032 -0.535157,-0.945313 -0.121093,-0.359375 -0.179687,-0.746094 -0.179687,-1.164063 z m 0.945313,0.113281 v -0.113281 c 0,-0.28125 0.03516,-0.554687 0.101562,-0.816406 0.07031,-0.265625 0.179688,-0.5 0.324219,-0.703125 0.140625,-0.207031 0.320312,-0.375 0.539062,-0.496094 0.21875,-0.125 0.472657,-0.1875 0.765625,-0.1875 0.292969,0 0.546875,0.0625 0.769532,0.1875 0.21875,0.121094 0.398437,0.289063 0.546874,0.496094 0.140626,0.203125 0.246094,0.4375 0.320313,0.703125 0.07031,0.261719 0.105469,0.535156 0.105469,0.816406 v 0.113281 c 0,0.289063 -0.03516,0.5625 -0.105469,0.824219 -0.07031,0.265625 -0.175781,0.5 -0.316406,0.703125 -0.144531,0.210938 -0.328125,0.375 -0.546875,0.496094 -0.222656,0.121094 -0.476563,0.183594 -0.761719,0.183594 -0.292969,0 -0.550781,-0.0625 -0.773437,-0.183594 -0.21875,-0.121094 -0.402344,-0.285156 -0.546876,-0.496094 -0.140624,-0.203125 -0.25,-0.4375 -0.320312,-0.703125 -0.06641,-0.261719 -0.101562,-0.535156 -0.101562,-0.824219 z m 0.328124,0 c 0,0.261719 0.03125,0.507813 0.08984,0.742188 0.0625,0.226562 0.152344,0.425781 0.273438,0.597656 0.117187,0.167969 0.261718,0.300782 0.4375,0.394532 0.171875,0.09766 0.378906,0.144531 0.613281,0.144531 0.230469,0 0.429687,-0.04687 0.601563,-0.140625 0.175781,-0.09766 0.320312,-0.230469 0.4375,-0.398438 0.121093,-0.171875 0.210937,-0.371094 0.269531,-0.597656 0.0625,-0.234375 0.09375,-0.480469 0.09375,-0.742188 v -0.113281 c 0,-0.253906 -0.03125,-0.496093 -0.09375,-0.730469 -0.0625,-0.230468 -0.152344,-0.429687 -0.273438,-0.601562 -0.117187,-0.167969 -0.265625,-0.300781 -0.4375,-0.398438 -0.171875,-0.09766 -0.375,-0.144531 -0.609375,-0.144531 -0.234375,0 -0.433594,0.04687 -0.605468,0.144531 -0.171876,0.09766 -0.316407,0.230469 -0.433594,0.398438 -0.121094,0.171875 -0.210938,0.371094 -0.273438,0.601562 -0.05859,0.230469 -0.08984,0.476563 -0.08984,0.730469 z m -0.164062,0 c 0,0.273438 0.03125,0.535157 0.09766,0.78125 0.06641,0.246094 0.164063,0.464844 0.296875,0.652344 0.128907,0.1875 0.292969,0.335938 0.492188,0.445313 0.195312,0.109375 0.425781,0.164062 0.691406,0.164062 0.257813,0 0.484375,-0.05469 0.683594,-0.164062 0.195312,-0.109375 0.359375,-0.257813 0.492187,-0.445313 0.128906,-0.1875 0.226563,-0.40625 0.292969,-0.652344 0.0625,-0.246093 0.09766,-0.507812 0.09766,-0.78125 v -0.113281 c 0,-0.269531 -0.03516,-0.527343 -0.101562,-0.773437 C 73.882812,16.375 73.785156,16.15625 73.65625,15.96875 c -0.132812,-0.1875 -0.300781,-0.335938 -0.496094,-0.449219 -0.195312,-0.109375 -0.425781,-0.164062 -0.6875,-0.164062 -0.261718,0 -0.492187,0.05469 -0.6875,0.164062 -0.191406,0.113281 -0.355468,0.261719 -0.484375,0.449219 -0.132812,0.1875 -0.230469,0.40625 -0.296875,0.652344 -0.06641,0.246094 -0.09766,0.503906 -0.09766,0.773437 z m -0.945312,-0.113281 c 0,-0.398437 0.05469,-0.769531 0.171874,-1.113281 0.117188,-0.339844 0.285157,-0.640625 0.503907,-0.890625 0.214843,-0.253906 0.476562,-0.453125 0.785156,-0.597656 0.3125,-0.144531 0.660156,-0.21875 1.050781,-0.21875 0.390625,0 0.746094,0.07422 1.058594,0.21875 0.3125,0.144531 0.574219,0.34375 0.792969,0.597656 0.214843,0.25 0.382812,0.550781 0.496093,0.890625 0.117188,0.34375 0.175782,0.714844 0.175782,1.113281 v 0.113281 c 0,0.402344 -0.05859,0.769532 -0.175782,1.113282 -0.113281,0.339844 -0.28125,0.636718 -0.496093,0.890625 -0.21875,0.25 -0.480469,0.449219 -0.792969,0.59375 -0.308594,0.140625 -0.660156,0.214843 -1.046875,0.214843 -0.394531,0 -0.746094,-0.07422 -1.058594,-0.214843 -0.3125,-0.144531 -0.574219,-0.34375 -0.789062,-0.59375 -0.21875,-0.253907 -0.386719,-0.550781 -0.503907,-0.890625 -0.117187,-0.34375 -0.171874,-0.710938 -0.171874,-1.113282 z m 6.992187,-2.550781 h -0.851563 v -0.164062 h 0.164063 v 5.535156 h -0.164063 v -0.160156 h 0.902344 v 0.160156 H 76.839844 V 15.78125 l 0.0078,-0.02734 c 0.02734,-0.07031 0.05859,-0.132812 0.09766,-0.191406 0.04297,-0.05859 0.08984,-0.113281 0.144532,-0.160156 0.07813,-0.0625 0.167968,-0.109375 0.273437,-0.140625 0.09766,-0.03125 0.210938,-0.04687 0.339844,-0.04687 0.121094,0 0.226563,0.01563 0.320313,0.04687 0.105468,0.03516 0.191406,0.08984 0.261718,0.164062 0.07031,0.07813 0.125,0.171875 0.15625,0.289063 0.03125,0.101562 0.04687,0.21875 0.04687,0.351562 v 4.148438 h -0.164062 v -0.160156 h 0.898437 v 0.160156 h -0.164062 v -4.257813 l 0.0039,-0.0078 c 0.01172,-0.101563 0.03516,-0.195313 0.07422,-0.28125 0.03906,-0.08594 0.08984,-0.167969 0.160156,-0.234375 l 0.0039,-0.0039 c 0.07031,-0.06641 0.15625,-0.117188 0.261719,-0.15625 0.09766,-0.03906 0.214844,-0.05859 0.347656,-0.05859 0.125,0 0.234375,0.01953 0.332032,0.05078 0.105468,0.03516 0.191406,0.08984 0.265624,0.160156 l 0.0078,0.0078 c 0.06641,0.07813 0.117187,0.171875 0.148437,0.28125 0.03516,0.105468 0.05078,0.222656 0.05078,0.355468 v 4.144532 H 80.550742 V 20.0547 h 0.898438 v 0.160156 h -0.164063 v -4.132813 c 0,-0.25 -0.02734,-0.464843 -0.08203,-0.644531 -0.05469,-0.171875 -0.132813,-0.3125 -0.230469,-0.417969 -0.08594,-0.08984 -0.195312,-0.15625 -0.324218,-0.207031 -0.136719,-0.04687 -0.289063,-0.07422 -0.460938,-0.07422 V 14.57423 l 0.0039,0.164062 c -0.128906,0.0039 -0.242187,0.01953 -0.347656,0.05078 -0.101562,0.03125 -0.195312,0.07031 -0.277344,0.121094 l -0.08594,-0.140625 0.08984,0.136719 c -0.0625,0.04297 -0.125,0.09766 -0.179687,0.15625 -0.05859,0.05859 -0.109375,0.125 -0.148437,0.191406 l -0.164063,0.269532 -0.128906,-0.289063 c -0.03125,-0.07031 -0.07031,-0.136719 -0.113281,-0.195313 -0.04297,-0.05469 -0.08984,-0.101562 -0.144532,-0.140624 l 0.09766,-0.132813 -0.09375,0.132813 c -0.07422,-0.05078 -0.160156,-0.08984 -0.257812,-0.117188 -0.105469,-0.02734 -0.222656,-0.04297 -0.355469,-0.04297 -0.226562,0.0039 -0.421875,0.05469 -0.578125,0.148438 -0.160156,0.09375 -0.285156,0.226562 -0.386718,0.394531 l -0.277344,0.480469 -0.05078,-1.074219 0.164063,-0.0078 z m 0.152344,-0.328125 0.03516,0.675781 -0.164063,0.0078 -0.140624,-0.08203 c 0.125,-0.21875 0.292968,-0.390626 0.5,-0.511719 0.207031,-0.125 0.457031,-0.1875 0.746093,-0.191407 0.160157,0 0.308594,0.01563 0.441407,0.05469 0.136718,0.03516 0.253906,0.08984 0.359374,0.160156 v 0.0039 h 0.0039 c 0.07813,0.05859 0.144531,0.125 0.207031,0.207032 0.0625,0.07813 0.113281,0.167968 0.15625,0.265625 l -0.148438,0.0625 -0.140624,-0.08203 c 0.05469,-0.08984 0.117187,-0.171876 0.191406,-0.25 0.07031,-0.07422 0.152344,-0.144532 0.234375,-0.199219 l 0.0078,-0.0078 c 0.109375,-0.0625 0.226563,-0.117187 0.359375,-0.152344 0.132813,-0.03906 0.273438,-0.05859 0.429688,-0.0625 h 0.0039 c 0.210938,0 0.398438,0.03125 0.570312,0.09375 0.179688,0.0625 0.328126,0.160157 0.453126,0.289063 0.132812,0.140625 0.234374,0.320313 0.304687,0.542969 0.06641,0.210937 0.09766,0.457031 0.09766,0.742187 v 4.296875 H 80.386702 V 16.07031 c 0,-0.09766 -0.01172,-0.183593 -0.03516,-0.257812 -0.01953,-0.06641 -0.04687,-0.121094 -0.08203,-0.160156 l 0.121094,-0.109375 -0.117187,0.117187 c -0.03516,-0.03906 -0.08203,-0.06641 -0.136719,-0.08594 -0.0625,-0.01953 -0.140625,-0.03125 -0.226563,-0.03125 -0.09375,0 -0.171875,0.01172 -0.234375,0.03516 -0.0625,0.02344 -0.113281,0.05469 -0.152343,0.08984 l -0.109376,-0.121094 0.113282,0.117187 c -0.03906,0.03906 -0.07031,0.08594 -0.09375,0.136719 -0.02344,0.05469 -0.03906,0.117188 -0.04687,0.1875 l -0.164063,-0.01953 h 0.164063 v 4.410156 h -1.226563 v -4.3125 c 0,-0.101562 -0.01172,-0.1875 -0.03125,-0.261718 -0.01953,-0.0625 -0.04687,-0.117188 -0.08594,-0.152344 -0.03125,-0.03516 -0.07031,-0.0625 -0.121094,-0.07813 -0.0625,-0.01953 -0.132813,-0.03125 -0.21875,-0.03125 -0.09375,0 -0.179687,0.01172 -0.246094,0.03125 -0.0625,0.01953 -0.113281,0.04687 -0.152343,0.07813 -0.03516,0.02734 -0.0625,0.05859 -0.08594,0.09766 -0.02734,0.03516 -0.04687,0.07422 -0.0625,0.117188 l -0.152344,-0.05859 H 77.16795 V 20.37891 H 75.9375 v -5.863281 z m -0.128907,0.683594 c 0.113282,-0.191407 0.261719,-0.34375 0.441407,-0.453125 0.183593,-0.109375 0.40625,-0.167969 0.664062,-0.171875 0.148438,0 0.28125,0.01953 0.398438,0.05078 0.117187,0.03125 0.21875,0.07813 0.308593,0.140625 0.06641,0.04687 0.125,0.105469 0.175782,0.175781 0.05469,0.06641 0.09766,0.144532 0.136718,0.226563 0.04688,-0.07813 0.105469,-0.148438 0.167969,-0.21875 0.06641,-0.06641 0.136719,-0.128907 0.210938,-0.179688 0.09375,-0.05859 0.203125,-0.101562 0.320312,-0.136719 0.117188,-0.03516 0.246094,-0.05469 0.386719,-0.05859 0.191406,0 0.363281,0.03125 0.515625,0.08594 0.152344,0.05859 0.285156,0.140625 0.390625,0.25 0.113281,0.121094 0.203125,0.28125 0.265625,0.476563 0.05859,0.195312 0.08984,0.429687 0.08984,0.695312 v 4.132813 h -0.898438 v -4.144532 c 0,-0.117187 -0.01563,-0.21875 -0.04297,-0.308593 -0.02734,-0.08594 -0.06641,-0.160157 -0.117187,-0.21875 -0.05469,-0.05469 -0.121094,-0.09375 -0.203125,-0.121094 -0.07813,-0.02734 -0.171875,-0.04297 -0.277344,-0.04297 -0.113281,0 -0.210937,0.01563 -0.292968,0.04687 -0.08203,0.03125 -0.148438,0.07031 -0.203126,0.121094 -0.05469,0.05469 -0.09766,0.117187 -0.128906,0.1875 -0.03125,0.07031 -0.05078,0.148437 -0.0625,0.234375 0,0.01563 0,0.03125 0,0.04687 0,0.01563 0,0.03516 0,0.05469 v 4.144532 h -0.898437 v -4.148438 c 0,-0.117187 -0.01563,-0.21875 -0.03906,-0.308594 -0.02734,-0.08984 -0.06641,-0.160156 -0.121094,-0.21875 -0.05078,-0.05469 -0.113281,-0.09375 -0.191406,-0.121093 -0.07813,-0.02734 -0.167968,-0.03906 -0.269531,-0.03906 -0.113281,0 -0.210937,0.01172 -0.292969,0.03906 -0.08594,0.02734 -0.15625,0.0625 -0.214844,0.109375 -0.04297,0.03906 -0.08203,0.08203 -0.113281,0.128906 -0.03125,0.04687 -0.05859,0.09766 -0.07813,0.152344 v 4.40625 h -0.902344 v -5.535156 h 0.851563 z m 5.824219,6.984375 H 83.75 v 0.164062 h -0.164062 v -3.085937 l 0.285156,0.3125 c 0.0625,0.07031 0.128906,0.132812 0.199218,0.191406 0.07422,0.05469 0.148438,0.109375 0.230469,0.15625 0.132813,0.07422 0.285157,0.128906 0.453125,0.171875 0.167969,0.03906 0.351563,0.0625 0.550782,0.0625 0.320312,0 0.605468,-0.06641 0.851562,-0.195312 0.25,-0.132813 0.460938,-0.316407 0.628906,-0.546876 0.171875,-0.238281 0.304688,-0.515624 0.394532,-0.839843 0.08984,-0.328125 0.136718,-0.683594 0.136718,-1.066407 v -0.105468 c 0,-0.398438 -0.04687,-0.765625 -0.136718,-1.097656 -0.08984,-0.324219 -0.222657,-0.605469 -0.394532,-0.835938 -0.167968,-0.230469 -0.378906,-0.410156 -0.628906,-0.535156 -0.25,-0.128906 -0.539062,-0.195313 -0.867188,-0.195313 -0.1875,0 -0.363281,0.01953 -0.527343,0.0625 -0.160157,0.03906 -0.304688,0.09375 -0.433594,0.167969 h -0.0039 v 0.0039 c -0.09375,0.04687 -0.179688,0.105469 -0.257813,0.175782 -0.08203,0.07031 -0.15625,0.148437 -0.226562,0.234374 l -0.257813,0.332032 -0.07813,-1.023438 0.164063,-0.01172 v 0.164062 H 82.800782 V 14.67968 h 0.164063 v 7.667968 h -0.164063 z m -0.164062,0.328125 v -7.996094 h 1.183593 l 0.05469,0.753906 -0.160156,0.01172 -0.128906,-0.101562 c 0.07812,-0.101563 0.167968,-0.195313 0.265624,-0.28125 0.09766,-0.08203 0.203126,-0.15625 0.316407,-0.214844 l 0.07813,0.144531 -0.08203,-0.144531 c 0.15625,-0.08984 0.332032,-0.15625 0.519532,-0.203125 0.191406,-0.04687 0.390625,-0.06641 0.605468,-0.06641 0.382813,0 0.71875,0.07422 1.015626,0.226563 0.296874,0.152344 0.542968,0.363281 0.742187,0.632813 0.199219,0.265624 0.347656,0.578124 0.449219,0.945312 0.09766,0.359375 0.148437,0.753906 0.148437,1.183594 v 0.105468 c 0,0.410157 -0.05078,0.796876 -0.148437,1.152344 -0.101563,0.363282 -0.25,0.679688 -0.445313,0.945313 -0.199219,0.273437 -0.445312,0.488281 -0.742187,0.644531 -0.292969,0.15625 -0.628906,0.234375 -1.003906,0.234375 -0.222657,0 -0.433594,-0.02344 -0.628907,-0.07422 -0.199219,-0.04687 -0.375,-0.113281 -0.539062,-0.207031 -0.09375,-0.05469 -0.183594,-0.117187 -0.269531,-0.183594 C 83.78125,19.949219 83.703125,19.875 83.628906,19.792969 L 83.75,19.683594 h 0.164062 v 2.828125 z m 4.058593,-5.109375 v 0.105468 c 0,0.285157 -0.03125,0.554688 -0.09375,0.8125 -0.0625,0.265626 -0.160156,0.496094 -0.292968,0.703126 -0.140625,0.207031 -0.3125,0.375 -0.527344,0.5 -0.214844,0.125 -0.472656,0.1875 -0.761719,0.1875 -0.179687,0 -0.347656,-0.02344 -0.496093,-0.07031 -0.152344,-0.04297 -0.285157,-0.109375 -0.410157,-0.1875 -0.105469,-0.07031 -0.203125,-0.15625 -0.289062,-0.257813 -0.08203,-0.09375 -0.15625,-0.199218 -0.21875,-0.308593 l -0.01953,-0.03906 V 16.09375 l 0.01953,-0.03516 c 0.07031,-0.128906 0.152343,-0.242188 0.246093,-0.347656 0.09766,-0.109376 0.207032,-0.199219 0.332032,-0.273438 l 0.08203,0.140625 -0.08984,-0.136719 c 0.113281,-0.07422 0.242188,-0.128906 0.382813,-0.167968 0.136718,-0.03906 0.289062,-0.05859 0.449218,-0.05859 0.296876,0 0.550782,0.0625 0.765626,0.1875 0.214843,0.121094 0.390624,0.285156 0.53125,0.488281 0.132812,0.207031 0.234374,0.441406 0.296874,0.703125 0.0625,0.253906 0.09375,0.523438 0.09375,0.808594 z m -0.324218,0 c 0,-0.257813 -0.03125,-0.5 -0.08594,-0.730469 -0.05469,-0.226563 -0.140625,-0.425781 -0.25,-0.59375 C 85.921873,15.914062 85.781248,15.78125 85.613279,15.6875 85.44531,15.58984 85.246092,15.542969 85.00781,15.542969 c -0.132812,0 -0.253906,0.01563 -0.363281,0.04687 -0.109375,0.02734 -0.203125,0.07031 -0.289062,0.125 l -0.0039,0.0039 h -0.0039 c -0.09375,0.05859 -0.175781,0.128906 -0.25,0.210938 -0.07813,0.08594 -0.148437,0.183593 -0.207031,0.289062 L 83.75,16.136719 h 0.164062 v 2.667969 H 83.75 l 0.140625,-0.08203 c 0.05469,0.09375 0.113281,0.179688 0.183594,0.261719 0.0625,0.07813 0.136719,0.140625 0.21875,0.195313 0.09766,0.0625 0.207031,0.113281 0.324219,0.148437 0.121093,0.03516 0.253906,0.05469 0.402343,0.05469 0.230469,0 0.429688,-0.04687 0.597657,-0.144531 0.167968,-0.09766 0.308593,-0.230469 0.414062,-0.394531 0.113281,-0.171875 0.199219,-0.375 0.253906,-0.601562 0.05469,-0.230469 0.08594,-0.476563 0.08594,-0.734376 z m 0.164062,0 c 0,-0.269532 -0.03125,-0.527344 -0.08984,-0.769532 -0.0625,-0.246093 -0.152343,-0.460937 -0.277343,-0.648437 -0.125,-0.183594 -0.28125,-0.332031 -0.472657,-0.441406 -0.191406,-0.109375 -0.421874,-0.164063 -0.6875,-0.164063 -0.148437,0 -0.28125,0.01953 -0.40625,0.05078 -0.125,0.03516 -0.238281,0.08594 -0.335937,0.148437 -0.109375,0.06641 -0.207031,0.144531 -0.292969,0.242187 -0.08594,0.09375 -0.160156,0.199219 -0.222656,0.316407 v 2.667969 c 0.05859,0.101562 0.125,0.195312 0.199219,0.285156 0.07422,0.08984 0.160156,0.164062 0.253906,0.226562 0.109375,0.07031 0.230469,0.128906 0.367187,0.167969 0.132813,0.04297 0.285157,0.0625 0.449219,0.0625 0.261719,0 0.488281,-0.05469 0.679688,-0.167969 0.191406,-0.109375 0.347656,-0.257812 0.46875,-0.445312 0.125,-0.1875 0.214843,-0.40625 0.277343,-0.652344 0.05859,-0.246094 0.08984,-0.503906 0.08984,-0.773438 z m -3.734375,-2.722656 h 0.867188 l 0.04687,0.601562 c 0.07422,-0.09375 0.15625,-0.179688 0.242187,-0.257812 0.08984,-0.07813 0.1875,-0.140626 0.289063,-0.195313 0.140625,-0.08203 0.300781,-0.144531 0.476562,-0.1875 0.175782,-0.04297 0.367188,-0.06641 0.566406,-0.06641 0.355469,0 0.667969,0.07031 0.941407,0.210937 0.273437,0.140625 0.503906,0.335938 0.6875,0.585938 0.183593,0.246094 0.324219,0.546875 0.417969,0.890625 0.09766,0.347656 0.144531,0.726562 0.144531,1.140625 v 0.105468 c 0,0.398438 -0.04687,0.765626 -0.144531,1.109376 -0.09375,0.34375 -0.234376,0.640624 -0.417969,0.894531 -0.183594,0.25 -0.414063,0.449219 -0.683594,0.59375 -0.273437,0.140625 -0.582031,0.214843 -0.929687,0.214843 -0.210938,0 -0.410157,-0.02344 -0.589844,-0.06641 -0.183594,-0.04687 -0.347656,-0.109375 -0.496094,-0.191406 -0.08594,-0.05078 -0.171875,-0.109375 -0.25,-0.171875 -0.07813,-0.0625 -0.152344,-0.132813 -0.21875,-0.207031 v 2.664062 h -0.949219 z m 6.195313,2.714843 v 0.113281 c 0,0.382813 0.05469,0.734376 0.164062,1.058594 0.109375,0.320313 0.265625,0.601563 0.472656,0.835938 0.199219,0.234375 0.441407,0.417968 0.734376,0.554687 0.289062,0.132813 0.617187,0.199219 0.988281,0.199219 0.363281,0 0.691406,-0.06641 0.980469,-0.199219 0.289062,-0.136719 0.535156,-0.320312 0.738281,-0.554687 0.199219,-0.234375 0.355469,-0.515625 0.464843,-0.835938 0.109376,-0.324218 0.164063,-0.675781 0.164063,-1.058594 v -0.113281 c 0,-0.378906 -0.05469,-0.734375 -0.164063,-1.058593 -0.109374,-0.324219 -0.265624,-0.601563 -0.464843,-0.839844 -0.203125,-0.234375 -0.449219,-0.417969 -0.742188,-0.554688 -0.289062,-0.132812 -0.617187,-0.203125 -0.988281,-0.203125 -0.363281,0 -0.691406,0.07031 -0.980469,0.203125 -0.289062,0.136719 -0.53125,0.320313 -0.730469,0.554688 -0.207031,0.238281 -0.363281,0.515625 -0.472656,0.839844 -0.109375,0.324218 -0.164062,0.679687 -0.164062,1.058593 z m -0.328125,0 c 0,-0.414062 0.0625,-0.804687 0.183593,-1.164062 0.121094,-0.363281 0.300782,-0.679688 0.53125,-0.945313 0.230469,-0.273437 0.511719,-0.484375 0.84375,-0.640625 0.332032,-0.15625 0.703126,-0.230469 1.117188,-0.230469 0.417969,0 0.792969,0.07422 1.125,0.230469 0.335938,0.15625 0.621094,0.367188 0.851562,0.640625 0.230469,0.265625 0.40625,0.582032 0.527344,0.945313 0.125,0.359375 0.183594,0.75 0.183594,1.164062 v 0.113281 c 0,0.417969 -0.05859,0.804688 -0.183594,1.164063 -0.121094,0.363281 -0.296875,0.675781 -0.527344,0.945313 -0.234374,0.269531 -0.515624,0.484374 -0.847656,0.636718 -0.332031,0.152344 -0.703125,0.230469 -1.117187,0.230469 -0.417969,0 -0.792969,-0.07813 -1.125,-0.230469 -0.335938,-0.15625 -0.617188,-0.367187 -0.847657,-0.636718 -0.230468,-0.269532 -0.410156,-0.582032 -0.53125,-0.945313 -0.121093,-0.359375 -0.183593,-0.746094 -0.183593,-1.164063 z m 0.945312,0.113281 v -0.113281 c 0,-0.28125 0.03516,-0.554687 0.105469,-0.816406 0.06641,-0.265625 0.175781,-0.5 0.320312,-0.703125 0.144532,-0.207031 0.324219,-0.375 0.539063,-0.496094 0.21875,-0.125 0.476563,-0.1875 0.765625,-0.1875 0.292969,0 0.546875,0.0625 0.769531,0.1875 0.21875,0.121094 0.398438,0.289063 0.546875,0.496094 0.140625,0.203125 0.246094,0.4375 0.320313,0.703125 0.07031,0.261719 0.105469,0.535156 0.105469,0.816406 v 0.113281 c 0,0.289063 -0.03516,0.5625 -0.105469,0.824219 -0.06641,0.265625 -0.171875,0.5 -0.3125,0.703125 -0.148438,0.210938 -0.332031,0.375 -0.550781,0.496094 -0.21875,0.121094 -0.476563,0.183594 -0.761719,0.183594 -0.292969,0 -0.546875,-0.0625 -0.769531,-0.183594 -0.222657,-0.121094 -0.402344,-0.285156 -0.546876,-0.496094 -0.144531,-0.203125 -0.253906,-0.4375 -0.320312,-0.703125 -0.07031,-0.261719 -0.105469,-0.535156 -0.105469,-0.824219 z m 0.328125,0 c 0,0.261719 0.03125,0.507813 0.09375,0.742188 0.05859,0.226562 0.148438,0.425781 0.273438,0.597656 0.113281,0.167969 0.257812,0.300782 0.433594,0.394532 0.175781,0.09766 0.378906,0.144531 0.613281,0.144531 0.230469,0 0.429687,-0.04687 0.601562,-0.140625 0.175781,-0.09766 0.324219,-0.230469 0.441407,-0.398438 0.117187,-0.171875 0.207031,-0.371094 0.265624,-0.597656 0.0625,-0.234375 0.09375,-0.480469 0.09375,-0.742188 v -0.113281 c 0,-0.253906 -0.03125,-0.496093 -0.09375,-0.730469 -0.0625,-0.230468 -0.152343,-0.429687 -0.269531,-0.601562 -0.121093,-0.167969 -0.265625,-0.300781 -0.441406,-0.398438 -0.171875,-0.09766 -0.375,-0.144531 -0.609375,-0.144531 -0.234375,0 -0.433594,0.04687 -0.605469,0.144531 -0.171875,0.09766 -0.316406,0.230469 -0.433593,0.398438 -0.121094,0.171875 -0.210938,0.371094 -0.269532,0.601562 -0.0625,0.230469 -0.09375,0.476563 -0.09375,0.730469 z m -0.164062,0 c 0,0.273438 0.03516,0.535157 0.09766,0.78125 0.06641,0.246094 0.164062,0.464844 0.296875,0.652344 0.128906,0.1875 0.292969,0.335938 0.492187,0.445313 0.199219,0.109375 0.429688,0.164062 0.691407,0.164062 0.257812,0 0.488281,-0.05469 0.683593,-0.164062 0.195313,-0.109375 0.359376,-0.257813 0.492188,-0.445313 0.128906,-0.1875 0.226562,-0.40625 0.292969,-0.652344 0.06641,-0.246093 0.09766,-0.507812 0.09766,-0.78125 v -0.113281 c 0,-0.269531 -0.03516,-0.527343 -0.101563,-0.773437 -0.06641,-0.246094 -0.16407,-0.464844 -0.292976,-0.652344 -0.132813,-0.1875 -0.296875,-0.335938 -0.496094,-0.449219 -0.195312,-0.109375 -0.425781,-0.164062 -0.6875,-0.164062 -0.261719,0 -0.492188,0.05469 -0.683594,0.164062 -0.195312,0.113281 -0.359375,0.261719 -0.488281,0.449219 -0.132813,0.1875 -0.230469,0.40625 -0.296875,0.652344 -0.0625,0.246094 -0.09766,0.503906 -0.09766,0.773437 z m -0.945313,-0.113281 c 0,-0.398437 0.05859,-0.769531 0.171875,-1.113281 0.117188,-0.339844 0.285156,-0.640625 0.503906,-0.890625 0.214844,-0.253906 0.476563,-0.453125 0.789063,-0.597656 0.308594,-0.144531 0.660156,-0.21875 1.046875,-0.21875 0.394531,0 0.746094,0.07422 1.058594,0.21875 0.3125,0.144531 0.578125,0.34375 0.796875,0.597656 0.214843,0.25 0.378906,0.550781 0.496093,0.890625 0.113282,0.34375 0.171876,0.714844 0.171876,1.113281 v 0.113281 c 0,0.402344 -0.05859,0.769532 -0.171876,1.113282 -0.117187,0.339844 -0.28125,0.636718 -0.496093,0.890625 -0.21875,0.25 -0.484375,0.449219 -0.796875,0.59375 -0.308594,0.140625 -0.660156,0.214843 -1.046875,0.214843 -0.394531,0 -0.746094,-0.07422 -1.058594,-0.214843 -0.3125,-0.144531 -0.574219,-0.34375 -0.789063,-0.59375 -0.21875,-0.253907 -0.386718,-0.550781 -0.503906,-0.890625 -0.113281,-0.34375 -0.171875,-0.710938 -0.171875,-1.113282 z m 6.554688,2.660157 h 0.949219 v 0.160156 h -0.164063 v -4.011719 l 0.01953,-0.03516 c 0.07031,-0.132813 0.152344,-0.25 0.25,-0.359375 0.09375,-0.109375 0.195313,-0.203125 0.308594,-0.285156 h 0.0039 v -0.0039 c 0.140625,-0.09375 0.292969,-0.167969 0.457032,-0.222656 0.167968,-0.05469 0.34375,-0.08203 0.535156,-0.08203 0.21875,0 0.414062,0.02734 0.585937,0.07813 0.179688,0.05859 0.332031,0.148437 0.460938,0.269531 0.125,0.128906 0.21875,0.289062 0.28125,0.484375 0.0625,0.1875 0.08984,0.410156 0.08984,0.675781 v 3.492188 h -0.160156 v -0.160156 h 0.945313 v 0.160156 h -0.164063 v -3.515625 c 0,-0.347657 -0.04297,-0.648438 -0.128906,-0.902344 -0.08203,-0.242187 -0.199219,-0.445313 -0.347656,-0.601563 -0.148438,-0.152343 -0.328125,-0.269531 -0.542969,-0.339843 -0.21875,-0.07813 -0.464844,-0.117188 -0.734375,-0.117188 -0.199219,0.0039 -0.386719,0.03516 -0.566406,0.08984 -0.175782,0.05469 -0.339844,0.132813 -0.492188,0.230469 -0.09766,0.06641 -0.195312,0.144531 -0.285156,0.234375 -0.08984,0.08984 -0.171875,0.191406 -0.25,0.300781 l -0.257812,0.367188 -0.105469,-1.269532 0.164062,-0.01172 v 0.164062 h -0.851562 v -0.164062 h 0.164062 v 5.535156 h -0.164062 z m -0.164063,0.324218 v -5.863281 h 1.167969 l 0.07813,0.96875 -0.164062,0.01172 -0.132813,-0.09375 c 0.08594,-0.121094 0.183594,-0.238282 0.285156,-0.339844 0.105469,-0.105469 0.21875,-0.195312 0.335938,-0.273438 0.175781,-0.117187 0.367187,-0.210937 0.578125,-0.273437 0.207031,-0.06641 0.425781,-0.101563 0.660156,-0.101563 0.304688,0 0.589844,0.04297 0.84375,0.128907 0.261719,0.08984 0.484375,0.234375 0.667969,0.425781 0.1875,0.191406 0.328125,0.433594 0.425781,0.722656 0.09766,0.285156 0.144535,0.621094 0.144535,1.007813 v 3.679687 h -1.273441 v -3.65625 c 0,-0.230468 -0.02734,-0.421875 -0.07422,-0.578125 C 98.71875,16 98.652344,15.886719 98.566406,15.800781 c -0.08984,-0.08984 -0.203125,-0.152343 -0.332031,-0.191406 -0.140625,-0.04297 -0.300781,-0.06641 -0.488281,-0.06641 -0.15625,0 -0.300782,0.02344 -0.433594,0.06641 -0.136719,0.04297 -0.261719,0.105469 -0.375,0.183594 l -0.08984,-0.136719 0.09766,0.132812 c -0.09375,0.06641 -0.179687,0.144532 -0.257812,0.234376 -0.08203,0.08984 -0.148438,0.191406 -0.207031,0.300781 l -0.144531,-0.07813 H 96.5 v 4.132812 z m 0.164063,-5.699218 h 0.851562 l 0.06641,0.816406 c 0.08203,-0.113282 0.171874,-0.222656 0.269531,-0.320313 0.09766,-0.09375 0.199219,-0.179687 0.308593,-0.25 0.164063,-0.109375 0.34375,-0.195312 0.535157,-0.253906 0.191406,-0.0625 0.398437,-0.09375 0.613281,-0.09766 0.289062,0 0.550781,0.04297 0.789062,0.125 0.238282,0.08203 0.4375,0.210937 0.605469,0.382812 0.167969,0.175781 0.296875,0.394531 0.386719,0.664063 0.08984,0.265625 0.136719,0.585937 0.136719,0.953125 v 3.515625 h -0.945313 v -3.492188 c 0,-0.246094 -0.02734,-0.457031 -0.08203,-0.625 C 98.867189,15.925777 98.78516,15.789058 98.679692,15.68359 98.570312,15.574219 98.4375,15.5 98.28125,15.453125 c -0.152344,-0.05078 -0.332031,-0.07422 -0.535156,-0.07422 -0.171875,0 -0.335938,0.02734 -0.484375,0.07422 -0.148438,0.05078 -0.289063,0.117187 -0.414063,0.203125 -0.101562,0.07422 -0.199218,0.160156 -0.285156,0.261719 -0.08594,0.09766 -0.164062,0.207031 -0.226562,0.328125 v 3.96875 H 95.386719 Z M 104.125,20.15625 c 0.51172,0 0.93359,-0.101562 1.27734,-0.304688 0.34375,-0.203124 0.60157,-0.433593 0.77344,-0.691406 l 0.13672,0.08984 -0.10156,0.128906 -0.57813,-0.449218 0.10157,-0.128907 0.1289,0.09766 c -0.1914,0.246093 -0.42578,0.441406 -0.71094,0.589843 -0.28515,0.148438 -0.60937,0.222657 -0.97656,0.222657 -0.27734,0 -0.53515,-0.05469 -0.76953,-0.160157 -0.23047,-0.105469 -0.42969,-0.25 -0.59375,-0.433593 -0.16016,-0.167969 -0.28516,-0.367188 -0.375,-0.589844 -0.0898,-0.21875 -0.14844,-0.472656 -0.17578,-0.757813 v -0.214843 h 4.12109 v 0.164062 h -0.16406 v -0.425781 c 0,-0.367188 -0.0469,-0.710938 -0.14062,-1.027344 -0.0898,-0.308594 -0.22657,-0.578125 -0.41016,-0.808594 -0.18359,-0.222656 -0.41016,-0.398437 -0.6875,-0.523437 -0.27734,-0.128906 -0.60156,-0.195313 -0.97656,-0.195313 -0.29688,0 -0.58594,0.0625 -0.86719,0.183594 -0.28125,0.121094 -0.53125,0.292969 -0.75,0.519531 -0.22656,0.230469 -0.40625,0.511719 -0.53906,0.847656 -0.13672,0.332032 -0.20313,0.710938 -0.20313,1.136719 v 0.214844 c 0,0.367187 0.0586,0.703125 0.17969,1.011719 0.125,0.304687 0.29297,0.570312 0.50781,0.796875 0.21875,0.222656 0.47656,0.394531 0.78125,0.519531 0.3086,0.125 0.64453,0.1875 1.01172,0.187501 z m 0,0.328125 c -0.41016,0 -0.78906,-0.07031 -1.13281,-0.214844 -0.34766,-0.140625 -0.64453,-0.339843 -0.89453,-0.59375 -0.2461,-0.253906 -0.4375,-0.554687 -0.57422,-0.902343 -0.14063,-0.347657 -0.20703,-0.726563 -0.20703,-1.132813 v -0.214844 c 0,-0.46875 0.0742,-0.886719 0.22656,-1.261719 0.15234,-0.371093 0.35156,-0.6875 0.60547,-0.949218 0.2539,-0.257813 0.53906,-0.457032 0.85937,-0.59375 0.32422,-0.140625 0.65625,-0.207032 0.9961,-0.207032 0.42187,0 0.79297,0.07422 1.11328,0.222657 0.32422,0.148437 0.58984,0.351562 0.80469,0.613281 0.21093,0.265625 0.36718,0.570312 0.47265,0.921875 0.10156,0.347656 0.15235,0.722656 0.15235,1.121094 v 0.589843 h -4.1211 V 17.71875 h 0.16406 v 0.03516 h -0.16406 l 0.16406,-0.01172 c 0.0234,0.25 0.0703,0.472656 0.14844,0.660156 0.0781,0.1875 0.1836,0.351562 0.31641,0.496094 0.13672,0.152343 0.29687,0.269531 0.48828,0.355468 0.19141,0.08594 0.40234,0.128906 0.63281,0.128906 0.3125,0 0.58594,-0.0625 0.82813,-0.1875 0.23828,-0.125 0.4414,-0.289062 0.59765,-0.496093 l 0.10157,-0.128907 0.82812,0.644532 -0.082,0.125 c -0.19922,0.300781 -0.49219,0.566406 -0.88281,0.796875 -0.39063,0.230469 -0.8711,0.347656 -1.44141,0.347656 z m -0.12109,-5.292969 c 0.26562,0 0.5,0.05078 0.69922,0.148438 0.19531,0.101562 0.35937,0.230468 0.49218,0.390625 0.12891,0.160156 0.22657,0.347656 0.30078,0.5625 0.0703,0.214843 0.10547,0.414062 0.10547,0.601562 v 0.210938 h -3.33593 l 0.0273,-0.1875 c 0.043,-0.273438 0.11328,-0.515625 0.21484,-0.726563 0.10157,-0.210937 0.22657,-0.394531 0.375,-0.542968 0.15235,-0.148438 0.32422,-0.261719 0.51563,-0.339844 0.1914,-0.07813 0.39062,-0.117188 0.60547,-0.117188 z m 0,0.328125 c -0.17188,0 -0.33203,0.03125 -0.48047,0.08984 -0.15235,0.0625 -0.28906,0.152344 -0.40625,0.269531 -0.125,0.125 -0.23047,0.273438 -0.31641,0.453125 -0.0859,0.183594 -0.14844,0.394531 -0.18359,0.632813 l -0.16016,-0.02344 v -0.164062 h 2.98047 V 16.9414 h -0.16406 v -0.04687 c 0,-0.152343 -0.0312,-0.320312 -0.0898,-0.5 -0.0586,-0.175781 -0.14062,-0.328125 -0.24218,-0.457031 -0.10157,-0.125 -0.23047,-0.226562 -0.38672,-0.304688 -0.15235,-0.07812 -0.33594,-0.113281 -0.55078,-0.113281 z m 0,-0.164062 c -0.19141,0 -0.375,0.03516 -0.54297,0.105469 -0.17188,0.06641 -0.32422,0.167968 -0.46094,0.300781 -0.13672,0.136719 -0.25391,0.304687 -0.34766,0.5 -0.0937,0.195312 -0.15625,0.421875 -0.19531,0.679687 h 2.98047 v -0.04687 c 0,-0.171875 -0.0352,-0.355469 -0.0977,-0.550781 -0.0664,-0.195312 -0.15625,-0.363281 -0.27343,-0.507812 -0.11328,-0.144532 -0.26172,-0.261719 -0.4375,-0.347657 -0.17578,-0.08984 -0.38282,-0.132812 -0.625,-0.132812 z m 0.12109,4.964843 c -0.38672,0 -0.74609,-0.06641 -1.07031,-0.199218 -0.32813,-0.132813 -0.60547,-0.320313 -0.83985,-0.558594 -0.23046,-0.238281 -0.41015,-0.523438 -0.53906,-0.851562 -0.13281,-0.328126 -0.19531,-0.683594 -0.19531,-1.070313 v -0.214844 c 0,-0.445312 0.0703,-0.847656 0.21484,-1.199219 0.14063,-0.351562 0.33203,-0.652343 0.57422,-0.898437 0.23438,-0.242187 0.50391,-0.429687 0.80469,-0.558594 0.30078,-0.128906 0.60937,-0.195312 0.92969,-0.195312 0.39843,0 0.74609,0.07031 1.04687,0.210937 0.29688,0.136719 0.54688,0.328125 0.74219,0.570313 0.19922,0.246093 0.34766,0.53125 0.44531,0.863281 0.0977,0.332031 0.14453,0.691406 0.14453,1.074219 v 0.425781 h -3.95703 v 0.03516 c 0.0234,0.269532 0.0781,0.507813 0.16016,0.710938 0.0859,0.207031 0.19922,0.386718 0.34765,0.542968 0.14844,0.167969 0.33204,0.300782 0.54297,0.394532 0.21094,0.09766 0.44532,0.144531 0.69922,0.144531 0.33985,0 0.64063,-0.07031 0.90235,-0.207031 0.26171,-0.136719 0.48046,-0.316406 0.65625,-0.539063 L 106.3125,19.25 c -0.18359,0.277344 -0.46094,0.527344 -0.82812,0.742188 -0.36719,0.21875 -0.82032,0.328124 -1.35938,0.328124 z m 3.84375,-0.265624 h 0.94922 v 0.160156 h -0.16406 v -4.011719 l 0.0195,-0.03516 c 0.0703,-0.132813 0.15234,-0.25 0.24609,-0.359375 0.0977,-0.109375 0.19922,-0.203125 0.3125,-0.285156 h 0.004 v -0.0039 c 0.14062,-0.09375 0.29297,-0.167969 0.45703,-0.222656 0.16406,-0.05469 0.34375,-0.08203 0.53516,-0.08203 0.21875,0 0.41406,0.02734 0.58593,0.07813 0.17969,0.05859 0.33203,0.148437 0.46094,0.269531 0.125,0.128906 0.21875,0.289062 0.28125,0.484375 0.0625,0.1875 0.0898,0.410156 0.0898,0.675781 v 3.492188 h -0.16406 v -0.160156 h 0.94922 v 0.160156 h -0.16406 v -3.515625 c 0,-0.347657 -0.043,-0.648438 -0.12891,-0.902344 -0.082,-0.242187 -0.19922,-0.445313 -0.34765,-0.601563 -0.14844,-0.152343 -0.33204,-0.269531 -0.54297,-0.339843 -0.21875,-0.07813 -0.46485,-0.117188 -0.73828,-0.117188 -0.19532,0.0039 -0.38282,0.03516 -0.5625,0.08984 -0.17579,0.05469 -0.33985,0.132813 -0.49219,0.230469 -0.10156,0.06641 -0.19531,0.144531 -0.28516,0.234375 -0.0898,0.08984 -0.17187,0.191406 -0.25,0.300781 l -0.26172,0.367188 -0.10156,-1.269532 0.16406,-0.01172 v 0.164062 h -0.85156 v -0.164062 h 0.16406 v 5.535156 h -0.16406 z m -0.16406,0.324218 v -5.863281 h 1.16406 l 0.082,0.96875 -0.16406,0.01172 -0.13281,-0.09375 c 0.0859,-0.121094 0.17968,-0.238282 0.28515,-0.339844 0.10547,-0.105469 0.21485,-0.195312 0.33594,-0.273438 0.17578,-0.117187 0.36719,-0.210937 0.57422,-0.273437 0.21094,-0.06641 0.42969,-0.101563 0.66016,-0.101563 0.30859,0 0.58984,0.04297 0.84375,0.128907 0.26562,0.08984 0.48828,0.234375 0.67187,0.425781 0.18359,0.191406 0.32813,0.433594 0.42578,0.722656 0.0937,0.285156 0.14453,0.621094 0.14453,1.007813 v 3.679687 h -1.27734 v -3.65625 c 0,-0.230468 -0.0234,-0.421875 -0.0742,-0.578125 -0.043,-0.144531 -0.10937,-0.257812 -0.19531,-0.34375 -0.0937,-0.08984 -0.20313,-0.152343 -0.33203,-0.191406 -0.14063,-0.04297 -0.30078,-0.06641 -0.48828,-0.06641 -0.15625,0 -0.30079,0.02344 -0.4336,0.06641 -0.13672,0.04297 -0.26172,0.105469 -0.375,0.183594 l -0.0898,-0.136719 0.0937,0.132812 c -0.0898,0.06641 -0.17578,0.144532 -0.25781,0.234376 -0.0781,0.08984 -0.14454,0.191406 -0.20704,0.300781 l -0.14062,-0.07813 h 0.16406 v 4.132812 z m 0.16406,-5.699218 h 0.85156 l 0.0664,0.816406 c 0.082,-0.113282 0.17187,-0.222656 0.26953,-0.320313 0.0937,-0.09375 0.19922,-0.179687 0.30859,-0.25 0.16407,-0.109375 0.33985,-0.195312 0.53516,-0.253906 0.19141,-0.0625 0.39453,-0.09375 0.60938,-0.09766 0.29296,0 0.55468,0.04297 0.79296,0.125 0.23829,0.08203 0.4375,0.210937 0.60547,0.382812 0.16797,0.175781 0.29688,0.394531 0.38672,0.664063 0.0898,0.265625 0.13672,0.585937 0.13672,0.953125 v 3.515625 h -0.94922 v -3.492188 c 0,-0.246094 -0.0273,-0.457031 -0.082,-0.625 -0.0547,-0.171875 -0.13281,-0.308594 -0.23828,-0.414062 -0.10938,-0.109375 -0.24219,-0.183594 -0.39844,-0.230469 -0.15625,-0.05078 -0.33203,-0.07422 -0.53515,-0.07422 -0.17188,0 -0.33594,0.02734 -0.48438,0.07422 -0.15234,0.05078 -0.28906,0.117187 -0.41406,0.203125 -0.10547,0.07422 -0.19922,0.160156 -0.28516,0.261719 -0.0859,0.09766 -0.16406,0.207031 -0.22656,0.328125 v 3.96875 h -0.94922 z M 116.50391,13.5 h -0.95313 v -0.164062 h 0.16406 v 1.507812 h -1.61718 v -0.164062 h 0.16406 v 0.730468 h -0.16406 v -0.164062 h 1.61718 v 3.175781 c 0,0.320313 0.0391,0.589844 0.125,0.8125 0.082,0.21875 0.19141,0.394531 0.33204,0.527344 0.13671,0.136719 0.30078,0.234375 0.49218,0.296875 0.19532,0.06641 0.41016,0.09766 0.63672,0.09766 0.14063,0 0.28516,-0.0078 0.42578,-0.01953 0.14453,-0.01563 0.27735,-0.03516 0.40625,-0.05859 h 0.004 v -0.0039 c 0.125,-0.01953 0.24219,-0.05078 0.34766,-0.08203 0.10156,-0.03125 0.18359,-0.07031 0.25,-0.109376 l 0.0859,0.140626 -0.16015,0.03125 -0.13282,-0.671876 0.16016,-0.03125 0.0391,0.160157 c -0.0625,0.01172 -0.13672,0.03125 -0.22656,0.05078 -0.0937,0.01563 -0.19141,0.03516 -0.29687,0.05469 -0.10938,0.01562 -0.21875,0.03125 -0.33204,0.04297 -0.11328,0.01172 -0.22656,0.01953 -0.33593,0.01953 -0.15235,0 -0.30078,-0.01953 -0.4375,-0.05859 -0.15235,-0.03906 -0.28125,-0.113282 -0.39844,-0.214844 -0.11328,-0.09766 -0.20313,-0.230469 -0.26953,-0.394531 -0.0586,-0.160157 -0.0898,-0.355469 -0.0898,-0.589844 v -3.175781 h 2.26954 v 0.164062 h -0.16407 v -0.730468 h 0.16407 v 0.164062 h -2.26954 v -1.507812 h 0.16407 z m 0.16015,-0.328125 v 1.507813 h -0.16015 v -0.164063 h 2.26953 v 1.058594 h -2.26953 v -0.164063 h 0.16015 v 3.011719 c 0,0.191406 0.0273,0.351563 0.0742,0.472656 0.043,0.113281 0.10547,0.203125 0.17969,0.269531 0.0781,0.06641 0.16406,0.113282 0.26562,0.140626 0.10938,0.03125 0.22657,0.04687 0.35157,0.04687 0.0977,0 0.19922,-0.0039 0.30078,-0.01562 0.10547,-0.01172 0.21094,-0.02734 0.3125,-0.04297 0.10156,-0.01563 0.19531,-0.03516 0.28515,-0.05469 0.0859,-0.01563 0.16016,-0.03125 0.21485,-0.04687 l 0.16797,-0.03906 0.1875,0.949218 -0.0977,0.0625 c -0.0898,0.05078 -0.19531,0.101563 -0.32422,0.140626 -0.11719,0.03516 -0.24609,0.07031 -0.38672,0.09375 l -0.0312,-0.160157 0.0352,0.160157 c -0.14063,0.02734 -0.28516,0.05078 -0.44141,0.0625 -0.15234,0.01562 -0.30468,0.02344 -0.45703,0.02344 -0.26172,0 -0.50781,-0.03906 -0.73828,-0.113281 -0.23828,-0.07813 -0.44531,-0.203125 -0.61719,-0.375 -0.17578,-0.167969 -0.3125,-0.382813 -0.41406,-0.644532 -0.0977,-0.261718 -0.14453,-0.570312 -0.14453,-0.929687 v -3.011719 h 0.16406 v 0.164063 h -1.61719 v -1.058594 h 1.61719 v 0.164063 h -0.16406 v -1.507813 z m -0.16015,1.507813 h 2.10547 v 0.730468 h -2.10547 v 3.011719 c 0,0.214844 0.0273,0.390625 0.082,0.53125 0.0547,0.140625 0.1289,0.25 0.22265,0.332031 0.0977,0.08594 0.20704,0.144532 0.33204,0.179688 0.125,0.03516 0.2539,0.05078 0.39453,0.05078 0.10156,0 0.21093,-0.0078 0.3164,-0.01953 0.10938,-0.01172 0.21875,-0.02344 0.32422,-0.04297 0.10156,-0.01563 0.19922,-0.03516 0.28906,-0.05469 0.0898,-0.01563 0.16407,-0.03125 0.22266,-0.04688 l 0.13281,0.671876 c -0.0781,0.04687 -0.17187,0.08984 -0.28515,0.125 -0.11328,0.03516 -0.23828,0.06641 -0.3711,0.08984 -0.13281,0.02734 -0.27343,0.04687 -0.42187,0.05859 -0.14844,0.01563 -0.29297,0.02344 -0.44141,0.02344 -0.24609,0 -0.47656,-0.03516 -0.6875,-0.105468 -0.21484,-0.07031 -0.39844,-0.183594 -0.55469,-0.335938 -0.16015,-0.148437 -0.28125,-0.34375 -0.37109,-0.585937 -0.0937,-0.242188 -0.13672,-0.53125 -0.13672,-0.871094 v -3.011719 h -1.45312 v -0.730468 h 1.45312 v -1.34375 h 0.95313 z m 0,0"
       id="path27" />
  </g>
</svg>
