<?xml version="1.0" encoding="UTF-8"?><svg height="24" width="36" id="a" xmlns="http://www.w3.org/2000/svg" viewBox="0 0 36 24"><defs><style>.c{fill:#fff;}.d{fill:#00a368;}</style></defs><rect class="d" x="0" y="0" width="36" height="24" rx="12" ry="12"/><g id="b"><path class="c" d="M16.56,11.87c-2.07,0-3.75-1.68-3.75-3.75s1.68-3.75,3.75-3.75,3.75,1.68,3.75,3.75c0,2.07-1.68,3.74-3.75,3.75Zm0-6c-1.24,0-2.25,1.01-2.25,2.25s1.01,2.25,2.25,2.25,2.25-1.01,2.25-2.25-1.01-2.25-2.25-2.25Z"/><path class="c" d="M9.56,18.87c-.41,0-.75-.34-.75-.75,0-4.75,5.43-4.75,7.75-4.75,.72,0,1.36,0,1.94,.07,.41,.03,.72,.39,.69,.8-.04,.41-.4,.72-.81,.69-.54,0-1.14-.06-1.82-.06-5.18,0-6.25,1.3-6.25,3.25,0,.41-.32,.74-.73,.75,0,0-.01,0-.02,0Z"/><path class="c" d="M18.67,19.63c-.2,0-.39-.08-.53-.22-.16-.15-.24-.37-.22-.59l.16-1.92c.01-.18,.09-.34,.21-.47l5.52-5.52c.79-.73,2.01-.73,2.8,0,.38,.38,.59,.9,.58,1.44,0,.5-.18,.98-.53,1.33l-5.52,5.52c-.12,.13-.29,.2-.46,.22l-1.94,.18-.07,.03Zm1.94-.93h0Zm-1.06-1.41l-.06,.76,.78-.07,5.33-5.33c.06-.08,.1-.17,.09-.27,0-.14-.05-.27-.14-.38-.2-.15-.48-.15-.68,0l-5.32,5.29Z"/></g></svg>