<?xml version="1.0" encoding="utf-8"?>
<!-- Generator: Adobe Illustrator 26.2.1, SVG Export Plug-In . SVG Version: 6.00 Build 0)  -->
<svg version="1.1" id="Layer_1" xmlns="http://www.w3.org/2000/svg" xmlns:xlink="http://www.w3.org/1999/xlink" x="0px" y="0px"
	 viewBox="0 0 36 24" style="enable-background:new 0 0 36 24;" xml:space="preserve">
<style type="text/css">
	.st0{fill:#FFA800;}
	.st1{fill:#FFFFFF;}
	.st2{fill:#FFD635;}
	.st3{fill:#D4D4D4;}
	.st4{fill:#BE0039;}
	.st5{fill:#00A368;}
	.st6{fill:#FF4500;}
	.st7{fill:#00CC78;}
	.st8{fill:#7EED56;}
	.st9{fill:#00756F;}
	.st10{fill:#009EAA;}
	.st11{fill:#2450A4;}
	.st12{fill:#3690EA;}
	.st13{fill:#51E9F4;}
	.st14{fill:#493AC1;}
	.st15{fill:#6A5CFF;}
	.st16{fill:#811E9F;}
	.st17{fill:#B44AC0;}
	.st18{fill:#FF3881;}
	.st19{fill:#FF99AA;}
</style>
<g>
	<path class="st0" d="M24-30H12C5.4-30,0-24.6,0-18v0C0-11.4,5.4-6,12-6h12c6.6,0,12-5.4,12-12v0C36-24.6,30.6-30,24-30z"/>
	<g id="user-edit">
		<path class="st1" d="M16.6-18.1c-2.1,0-3.8-1.7-3.8-3.8s1.7-3.8,3.8-3.8s3.8,1.7,3.8,3.8C20.3-19.8,18.6-18.1,16.6-18.1z
			 M16.6-24.1c-1.2,0-2.3,1-2.3,2.2c0,1.2,1,2.3,2.3,2.3c1.2,0,2.2-1,2.2-2.3C18.8-23.1,17.8-24.1,16.6-24.1z"/>
		<path class="st1" d="M9.6-11.1c-0.4,0-0.8-0.3-0.8-0.8c0-4.8,5.4-4.8,7.8-4.8c0.7,0,1.4,0,1.9,0.1c0.4,0,0.7,0.4,0.7,0.8
			c0,0.4-0.4,0.7-0.8,0.7c-0.5,0-1.1-0.1-1.8-0.1c-5.2,0-6.2,1.3-6.2,3.2C10.3-11.5,10-11.1,9.6-11.1C9.6-11.1,9.6-11.1,9.6-11.1z"
			/>
		<path class="st1" d="M18.7-10.4c-0.2,0-0.4-0.1-0.5-0.2c-0.2-0.2-0.2-0.4-0.2-0.6l0.2-1.9c0-0.2,0.1-0.3,0.2-0.5l5.5-5.5
			c0.8-0.7,2-0.7,2.8,0c0.4,0.4,0.6,0.9,0.6,1.4c0,0.5-0.2,1-0.5,1.3l-5.5,5.5c-0.1,0.1-0.3,0.2-0.5,0.2L18.7-10.4L18.7-10.4z
			 M20.6-11.3L20.6-11.3z M19.6-12.7L19.5-12l0.8-0.1l5.3-5.3c0.1-0.1,0.1-0.2,0.1-0.3c0-0.1,0-0.3-0.1-0.4c-0.2-0.2-0.5-0.2-0.7,0
			L19.6-12.7z"/>
	</g>
</g>
<g>
	<path class="st2" d="M-16-30h-12c-6.6,0-12,5.4-12,12v0c0,6.6,5.4,12,12,12h12c6.6,0,12-5.4,12-12v0C-4-24.6-9.4-30-16-30z"/>
	<g id="user-edit_00000038379243682838491910000005843710201852385443_">
		<path class="st1" d="M-23.4-18.1c-2.1,0-3.8-1.7-3.8-3.8s1.7-3.8,3.8-3.8s3.8,1.7,3.8,3.8C-19.7-19.8-21.4-18.1-23.4-18.1z
			 M-23.4-24.1c-1.2,0-2.2,1-2.2,2.2c0,1.2,1,2.3,2.2,2.3c1.2,0,2.2-1,2.2-2.3C-21.2-23.1-22.2-24.1-23.4-24.1z"/>
		<path class="st1" d="M-30.4-11.1c-0.4,0-0.8-0.3-0.8-0.8c0-4.8,5.4-4.8,7.8-4.8c0.7,0,1.4,0,1.9,0.1c0.4,0,0.7,0.4,0.7,0.8
			c0,0.4-0.4,0.7-0.8,0.7c-0.5,0-1.1-0.1-1.8-0.1c-5.2,0-6.2,1.3-6.2,3.2C-29.7-11.5-30-11.1-30.4-11.1
			C-30.4-11.1-30.4-11.1-30.4-11.1z"/>
		<path class="st1" d="M-21.3-10.4c-0.2,0-0.4-0.1-0.5-0.2c-0.2-0.2-0.2-0.4-0.2-0.6l0.2-1.9c0-0.2,0.1-0.3,0.2-0.5l5.5-5.5
			c0.8-0.7,2-0.7,2.8,0c0.4,0.4,0.6,0.9,0.6,1.4c0,0.5-0.2,1-0.5,1.3l-5.5,5.5c-0.1,0.1-0.3,0.2-0.5,0.2L-21.3-10.4L-21.3-10.4z
			 M-19.4-11.3L-19.4-11.3z M-20.4-12.7l-0.1,0.8l0.8-0.1l5.3-5.3c0.1-0.1,0.1-0.2,0.1-0.3c0-0.1,0-0.3-0.1-0.4
			c-0.2-0.2-0.5-0.2-0.7,0L-20.4-12.7z"/>
	</g>
</g>
<g>
	<path class="st3" d="M24,0L12,0C5.4,0,0,5.4,0,12v0c0,6.6,5.4,12,12,12h12c6.6,0,12-5.4,12-12v0C36,5.4,30.6,0,24,0z"/>
	<g id="user-edit_00000136400041359753090670000001117137501478593968_">
		<path class="st1" d="M16.6,11.9c-2.1,0-3.8-1.7-3.8-3.8s1.7-3.8,3.8-3.8s3.8,1.7,3.8,3.8C20.3,10.2,18.6,11.9,16.6,11.9z
			 M16.6,5.9c-1.2,0-2.3,1-2.3,2.2s1,2.2,2.3,2.2c1.2,0,2.2-1,2.2-2.2S17.8,5.9,16.6,5.9z"/>
		<path class="st1" d="M9.6,18.9c-0.4,0-0.8-0.3-0.8-0.8c0-4.8,5.4-4.8,7.7-4.8c0.7,0,1.4,0,1.9,0.1c0.4,0,0.7,0.4,0.7,0.8
			c0,0.4-0.4,0.7-0.8,0.7c-0.5,0-1.1-0.1-1.8-0.1c-5.2,0-6.2,1.3-6.2,3.2C10.3,18.5,10,18.9,9.6,18.9C9.6,18.9,9.6,18.9,9.6,18.9z"
			/>
		<path class="st1" d="M18.7,19.6c-0.2,0-0.4-0.1-0.5-0.2c-0.2-0.2-0.2-0.4-0.2-0.6l0.2-1.9c0-0.2,0.1-0.3,0.2-0.5l5.5-5.5
			c0.8-0.7,2-0.7,2.8,0c0.4,0.4,0.6,0.9,0.6,1.4c0,0.5-0.2,1-0.5,1.3l-5.5,5.5c-0.1,0.1-0.3,0.2-0.5,0.2L18.7,19.6L18.7,19.6z
			 M20.6,18.7L20.6,18.7z M19.6,17.3L19.5,18l0.8-0.1l5.3-5.3c0.1-0.1,0.1-0.2,0.1-0.3c0-0.1,0-0.3-0.1-0.4c-0.2-0.2-0.5-0.2-0.7,0
			L19.6,17.3z"/>
	</g>
</g>
<g>
	<path class="st3" d="M-16,2c5.5,0,10,4.5,10,10c0,5.5-4.5,10-10,10h-12c-5.5,0-10-4.5-10-10c0-5.5,4.5-10,10-10H-16 M-16,0h-12
		c-6.6,0-12,5.4-12,12v0c0,6.6,5.4,12,12,12h12c6.6,0,12-5.4,12-12v0C-4,5.4-9.4,0-16,0L-16,0z"/>
	<g id="user-edit_00000033343600198129092970000008361357486332861350_">
		<path class="st3" d="M-23.4,11.9c-2.1,0-3.8-1.7-3.8-3.8s1.7-3.8,3.8-3.8s3.8,1.7,3.8,3.8C-19.7,10.2-21.4,11.9-23.4,11.9z
			 M-23.4,5.9c-1.2,0-2.2,1-2.2,2.2s1,2.2,2.2,2.2c1.2,0,2.2-1,2.2-2.2S-22.2,5.9-23.4,5.9z"/>
		<path class="st3" d="M-30.4,18.9c-0.4,0-0.8-0.3-0.8-0.8c0-4.8,5.4-4.8,7.8-4.8c0.7,0,1.4,0,1.9,0.1c0.4,0,0.7,0.4,0.7,0.8
			c0,0.4-0.4,0.7-0.8,0.7c-0.5,0-1.1-0.1-1.8-0.1c-5.2,0-6.2,1.3-6.2,3.2C-29.7,18.5-30,18.9-30.4,18.9
			C-30.4,18.9-30.4,18.9-30.4,18.9z"/>
		<path class="st3" d="M-21.3,19.6c-0.2,0-0.4-0.1-0.5-0.2c-0.2-0.2-0.2-0.4-0.2-0.6l0.2-1.9c0-0.2,0.1-0.3,0.2-0.5l5.5-5.5
			c0.8-0.7,2-0.7,2.8,0c0.4,0.4,0.6,0.9,0.6,1.4c0,0.5-0.2,1-0.5,1.3l-5.5,5.5c-0.1,0.1-0.3,0.2-0.5,0.2L-21.3,19.6L-21.3,19.6z
			 M-19.4,18.7L-19.4,18.7z M-20.4,17.3l-0.1,0.8l0.8-0.1l5.3-5.3c0.1-0.1,0.1-0.2,0.1-0.3c0-0.1,0-0.3-0.1-0.4
			c-0.2-0.2-0.5-0.2-0.7,0L-20.4,17.3z"/>
	</g>
</g>
<g>
	<path class="st4" d="M-56,0l-12,0c-6.6,0-12,5.4-12,12v0c0,6.6,5.4,12,12,12h12c6.6,0,12-5.4,12-12v0C-44,5.4-49.4,0-56,0z"/>
	<g id="user-edit_00000075842478182041001310000014923365944076924312_">
		<path class="st1" d="M-63.4,11.9c-2.1,0-3.8-1.7-3.8-3.8s1.7-3.8,3.8-3.8c2.1,0,3.8,1.7,3.8,3.8C-59.7,10.2-61.4,11.9-63.4,11.9z
			 M-63.4,5.9c-1.2,0-2.3,1-2.3,2.2s1,2.2,2.3,2.2s2.2-1,2.2-2.2S-62.2,5.9-63.4,5.9z"/>
		<path class="st1" d="M-70.4,18.9c-0.4,0-0.8-0.3-0.8-0.8c0-4.8,5.4-4.8,7.8-4.8c0.7,0,1.4,0,1.9,0.1c0.4,0,0.7,0.4,0.7,0.8
			c0,0.4-0.4,0.7-0.8,0.7c-0.5,0-1.1-0.1-1.8-0.1c-5.2,0-6.3,1.3-6.3,3.2C-69.7,18.5-70,18.9-70.4,18.9
			C-70.4,18.9-70.4,18.9-70.4,18.9z"/>
		<path class="st1" d="M-61.3,19.6c-0.2,0-0.4-0.1-0.5-0.2c-0.2-0.2-0.2-0.4-0.2-0.6l0.2-1.9c0-0.2,0.1-0.3,0.2-0.5l5.5-5.5
			c0.8-0.7,2-0.7,2.8,0c0.4,0.4,0.6,0.9,0.6,1.4c0,0.5-0.2,1-0.5,1.3l-5.5,5.5c-0.1,0.1-0.3,0.2-0.5,0.2L-61.3,19.6L-61.3,19.6z
			 M-59.4,18.7L-59.4,18.7z M-60.4,17.3l-0.1,0.8l0.8-0.1l5.3-5.3c0.1-0.1,0.1-0.2,0.1-0.3c0-0.1,0-0.3-0.1-0.4
			c-0.2-0.2-0.5-0.2-0.7,0L-60.4,17.3z"/>
	</g>
</g>
<g>
	<path class="st5" d="M-56-30h-12c-6.6,0-12,5.4-12,12v0c0,6.6,5.4,12,12,12h12c6.6,0,12-5.4,12-12v0C-44-24.6-49.4-30-56-30z"/>
	<g id="user-edit_00000082343629569430450760000014002953549451041171_">
		<path class="st1" d="M-63.4-18.1c-2.1,0-3.8-1.7-3.8-3.8s1.7-3.8,3.8-3.8c2.1,0,3.8,1.7,3.8,3.8C-59.7-19.8-61.4-18.1-63.4-18.1z
			 M-63.4-24.1c-1.2,0-2.3,1-2.3,2.2c0,1.2,1,2.3,2.3,2.3s2.2-1,2.2-2.3C-61.2-23.1-62.2-24.1-63.4-24.1z"/>
		<path class="st1" d="M-70.4-11.1c-0.4,0-0.8-0.3-0.8-0.8c0-4.8,5.4-4.8,7.8-4.8c0.7,0,1.4,0,1.9,0.1c0.4,0,0.7,0.4,0.7,0.8
			c0,0.4-0.4,0.7-0.8,0.7c-0.5,0-1.1-0.1-1.8-0.1c-5.2,0-6.3,1.3-6.3,3.2C-69.7-11.5-70-11.1-70.4-11.1
			C-70.4-11.1-70.4-11.1-70.4-11.1z"/>
		<path class="st1" d="M-61.3-10.4c-0.2,0-0.4-0.1-0.5-0.2c-0.2-0.2-0.2-0.4-0.2-0.6l0.2-1.9c0-0.2,0.1-0.3,0.2-0.5l5.5-5.5
			c0.8-0.7,2-0.7,2.8,0c0.4,0.4,0.6,0.9,0.6,1.4c0,0.5-0.2,1-0.5,1.3l-5.5,5.5c-0.1,0.1-0.3,0.2-0.5,0.2L-61.3-10.4L-61.3-10.4z
			 M-59.4-11.3L-59.4-11.3z M-60.4-12.7l-0.1,0.8l0.8-0.1l5.3-5.3c0.1-0.1,0.1-0.2,0.1-0.3c0-0.1,0-0.3-0.1-0.4
			c-0.2-0.2-0.5-0.2-0.7,0L-60.4-12.7z"/>
	</g>
</g>
<g>
	<path class="st6" d="M-96,0l-12,0c-6.6,0-12,5.4-12,12v0c0,6.6,5.4,12,12,12h12c6.6,0,12-5.4,12-12v0C-84,5.4-89.4,0-96,0z"/>
	<g id="user-edit_00000126319526051199971090000007843739819972111020_">
		<path class="st1" d="M-103.4,11.9c-2.1,0-3.8-1.7-3.8-3.8s1.7-3.8,3.8-3.8s3.8,1.7,3.8,3.8C-99.7,10.2-101.4,11.9-103.4,11.9z
			 M-103.4,5.9c-1.2,0-2.2,1-2.2,2.2s1,2.2,2.2,2.2c1.2,0,2.2-1,2.2-2.2S-102.2,5.9-103.4,5.9z"/>
		<path class="st1" d="M-110.4,18.9c-0.4,0-0.8-0.3-0.8-0.8c0-4.8,5.4-4.8,7.8-4.8c0.7,0,1.4,0,1.9,0.1c0.4,0,0.7,0.4,0.7,0.8
			c0,0.4-0.4,0.7-0.8,0.7c-0.5,0-1.1-0.1-1.8-0.1c-5.2,0-6.2,1.3-6.2,3.2C-109.7,18.5-110,18.9-110.4,18.9
			C-110.4,18.9-110.4,18.9-110.4,18.9z"/>
		<path class="st1" d="M-101.3,19.6c-0.2,0-0.4-0.1-0.5-0.2c-0.2-0.2-0.2-0.4-0.2-0.6l0.2-1.9c0-0.2,0.1-0.3,0.2-0.5l5.5-5.5
			c0.8-0.7,2-0.7,2.8,0c0.4,0.4,0.6,0.9,0.6,1.4c0,0.5-0.2,1-0.5,1.3l-5.5,5.5c-0.1,0.1-0.3,0.2-0.5,0.2L-101.3,19.6L-101.3,19.6z
			 M-99.4,18.7L-99.4,18.7z M-100.4,17.3l-0.1,0.8l0.8-0.1l5.3-5.3c0.1-0.1,0.1-0.2,0.1-0.3c0-0.1,0-0.3-0.1-0.4
			c-0.2-0.2-0.5-0.2-0.7,0L-100.4,17.3z"/>
	</g>
</g>
<g>
	<path class="st7" d="M-96-30h-12c-6.6,0-12,5.4-12,12v0c0,6.6,5.4,12,12,12h12c6.6,0,12-5.4,12-12v0C-84-24.6-89.4-30-96-30z"/>
	<g id="user-edit_00000044155833079935519230000005137450569661482910_">
		<path class="st1" d="M-103.4-18.1c-2.1,0-3.8-1.7-3.8-3.8s1.7-3.8,3.8-3.8s3.8,1.7,3.8,3.8C-99.7-19.8-101.4-18.1-103.4-18.1z
			 M-103.4-24.1c-1.2,0-2.2,1-2.2,2.2c0,1.2,1,2.3,2.2,2.3c1.2,0,2.2-1,2.2-2.3C-101.2-23.1-102.2-24.1-103.4-24.1z"/>
		<path class="st1" d="M-110.4-11.1c-0.4,0-0.8-0.3-0.8-0.8c0-4.8,5.4-4.8,7.8-4.8c0.7,0,1.4,0,1.9,0.1c0.4,0,0.7,0.4,0.7,0.8
			c0,0.4-0.4,0.7-0.8,0.7c-0.5,0-1.1-0.1-1.8-0.1c-5.2,0-6.2,1.3-6.2,3.2C-109.7-11.5-110-11.1-110.4-11.1
			C-110.4-11.1-110.4-11.1-110.4-11.1z"/>
		<path class="st1" d="M-101.3-10.4c-0.2,0-0.4-0.1-0.5-0.2c-0.2-0.2-0.2-0.4-0.2-0.6l0.2-1.9c0-0.2,0.1-0.3,0.2-0.5l5.5-5.5
			c0.8-0.7,2-0.7,2.8,0c0.4,0.4,0.6,0.9,0.6,1.4c0,0.5-0.2,1-0.5,1.3l-5.5,5.5c-0.1,0.1-0.3,0.2-0.5,0.2L-101.3-10.4L-101.3-10.4z
			 M-99.4-11.3L-99.4-11.3z M-100.4-12.7l-0.1,0.8l0.8-0.1l5.3-5.3c0.1-0.1,0.1-0.2,0.1-0.3c0-0.1,0-0.3-0.1-0.4
			c-0.2-0.2-0.5-0.2-0.7,0L-100.4-12.7z"/>
	</g>
</g>
<g>
	<path class="st8" d="M24-60H12C5.4-60,0-54.6,0-48v0c0,6.6,5.4,12,12,12h12c6.6,0,12-5.4,12-12v0C36-54.6,30.6-60,24-60z"/>
	<g id="user-edit_00000052081115867219914680000014978630646385738411_">
		<path class="st1" d="M16.6-48.1c-2.1,0-3.8-1.7-3.8-3.8s1.7-3.8,3.8-3.8s3.8,1.7,3.8,3.8C20.3-49.8,18.6-48.1,16.6-48.1z
			 M16.6-54.1c-1.2,0-2.3,1-2.3,2.2s1,2.2,2.3,2.2c1.2,0,2.2-1,2.2-2.2S17.8-54.1,16.6-54.1z"/>
		<path class="st1" d="M9.6-41.1c-0.4,0-0.8-0.3-0.8-0.8c0-4.8,5.4-4.8,7.8-4.8c0.7,0,1.4,0,1.9,0.1c0.4,0,0.7,0.4,0.7,0.8
			c0,0.4-0.4,0.7-0.8,0.7c-0.5,0-1.1-0.1-1.8-0.1c-5.2,0-6.2,1.3-6.2,3.2C10.3-41.5,10-41.1,9.6-41.1C9.6-41.1,9.6-41.1,9.6-41.1z"
			/>
		<path class="st1" d="M18.7-40.4c-0.2,0-0.4-0.1-0.5-0.2c-0.2-0.2-0.2-0.4-0.2-0.6l0.2-1.9c0-0.2,0.1-0.3,0.2-0.5l5.5-5.5
			c0.8-0.7,2-0.7,2.8,0c0.4,0.4,0.6,0.9,0.6,1.4c0,0.5-0.2,1-0.5,1.3l-5.5,5.5c-0.1,0.1-0.3,0.2-0.5,0.2L18.7-40.4L18.7-40.4z
			 M20.6-41.3L20.6-41.3z M19.6-42.7L19.5-42l0.8-0.1l5.3-5.3c0.1-0.1,0.1-0.2,0.1-0.3c0-0.1,0-0.3-0.1-0.4c-0.2-0.2-0.5-0.2-0.7,0
			L19.6-42.7z"/>
	</g>
</g>
<g>
	<path class="st9" d="M-16-60h-12c-6.6,0-12,5.4-12,12v0c0,6.6,5.4,12,12,12h12c6.6,0,12-5.4,12-12v0C-4-54.6-9.4-60-16-60z"/>
	<g id="user-edit_00000063634484645775098170000014632934449466498963_">
		<path class="st1" d="M-23.4-48.1c-2.1,0-3.8-1.7-3.8-3.8s1.7-3.8,3.8-3.8s3.8,1.7,3.8,3.8C-19.7-49.8-21.4-48.1-23.4-48.1z
			 M-23.4-54.1c-1.2,0-2.2,1-2.2,2.2s1,2.2,2.2,2.2c1.2,0,2.2-1,2.2-2.2S-22.2-54.1-23.4-54.1z"/>
		<path class="st1" d="M-30.4-41.1c-0.4,0-0.8-0.3-0.8-0.8c0-4.8,5.4-4.8,7.8-4.8c0.7,0,1.4,0,1.9,0.1c0.4,0,0.7,0.4,0.7,0.8
			c0,0.4-0.4,0.7-0.8,0.7c-0.5,0-1.1-0.1-1.8-0.1c-5.2,0-6.2,1.3-6.2,3.2C-29.7-41.5-30-41.1-30.4-41.1
			C-30.4-41.1-30.4-41.1-30.4-41.1z"/>
		<path class="st1" d="M-21.3-40.4c-0.2,0-0.4-0.1-0.5-0.2c-0.2-0.2-0.2-0.4-0.2-0.6l0.2-1.9c0-0.2,0.1-0.3,0.2-0.5l5.5-5.5
			c0.8-0.7,2-0.7,2.8,0c0.4,0.4,0.6,0.9,0.6,1.4c0,0.5-0.2,1-0.5,1.3l-5.5,5.5c-0.1,0.1-0.3,0.2-0.5,0.2L-21.3-40.4L-21.3-40.4z
			 M-19.4-41.3L-19.4-41.3z M-20.4-42.7l-0.1,0.8l0.8-0.1l5.3-5.3c0.1-0.1,0.1-0.2,0.1-0.3c0-0.1,0-0.3-0.1-0.4
			c-0.2-0.2-0.5-0.2-0.7,0L-20.4-42.7z"/>
	</g>
</g>
<g>
	<path class="st10" d="M-56-60h-12c-6.6,0-12,5.4-12,12v0c0,6.6,5.4,12,12,12h12c6.6,0,12-5.4,12-12v0C-44-54.6-49.4-60-56-60z"/>
	<g id="user-edit_00000006669014185747830510000009543448299003143064_">
		<path class="st1" d="M-63.4-48.1c-2.1,0-3.8-1.7-3.8-3.8s1.7-3.8,3.8-3.8c2.1,0,3.8,1.7,3.8,3.8C-59.7-49.8-61.4-48.1-63.4-48.1z
			 M-63.4-54.1c-1.2,0-2.3,1-2.3,2.2s1,2.2,2.3,2.2s2.2-1,2.2-2.2S-62.2-54.1-63.4-54.1z"/>
		<path class="st1" d="M-70.4-41.1c-0.4,0-0.8-0.3-0.8-0.8c0-4.8,5.4-4.8,7.8-4.8c0.7,0,1.4,0,1.9,0.1c0.4,0,0.7,0.4,0.7,0.8
			c0,0.4-0.4,0.7-0.8,0.7c-0.5,0-1.1-0.1-1.8-0.1c-5.2,0-6.3,1.3-6.3,3.2C-69.7-41.5-70-41.1-70.4-41.1
			C-70.4-41.1-70.4-41.1-70.4-41.1z"/>
		<path class="st1" d="M-61.3-40.4c-0.2,0-0.4-0.1-0.5-0.2c-0.2-0.2-0.2-0.4-0.2-0.6l0.2-1.9c0-0.2,0.1-0.3,0.2-0.5l5.5-5.5
			c0.8-0.7,2-0.7,2.8,0c0.4,0.4,0.6,0.9,0.6,1.4c0,0.5-0.2,1-0.5,1.3l-5.5,5.5c-0.1,0.1-0.3,0.2-0.5,0.2L-61.3-40.4L-61.3-40.4z
			 M-59.4-41.3L-59.4-41.3z M-60.4-42.7l-0.1,0.8l0.8-0.1l5.3-5.3c0.1-0.1,0.1-0.2,0.1-0.3c0-0.1,0-0.3-0.1-0.4
			c-0.2-0.2-0.5-0.2-0.7,0L-60.4-42.7z"/>
	</g>
</g>
<g>
	<path class="st11" d="M-96-60h-12c-6.6,0-12,5.4-12,12v0c0,6.6,5.4,12,12,12h12c6.6,0,12-5.4,12-12v0C-84-54.6-89.4-60-96-60z"/>
	<g id="user-edit_00000127725326222682394150000012928932518171926971_">
		<path class="st1" d="M-103.4-48.1c-2.1,0-3.8-1.7-3.8-3.8s1.7-3.8,3.8-3.8s3.8,1.7,3.8,3.8C-99.7-49.8-101.4-48.1-103.4-48.1z
			 M-103.4-54.1c-1.2,0-2.2,1-2.2,2.2s1,2.2,2.2,2.2c1.2,0,2.2-1,2.2-2.2S-102.2-54.1-103.4-54.1z"/>
		<path class="st1" d="M-110.4-41.1c-0.4,0-0.8-0.3-0.8-0.8c0-4.8,5.4-4.8,7.8-4.8c0.7,0,1.4,0,1.9,0.1c0.4,0,0.7,0.4,0.7,0.8
			c0,0.4-0.4,0.7-0.8,0.7c-0.5,0-1.1-0.1-1.8-0.1c-5.2,0-6.2,1.3-6.2,3.2C-109.7-41.5-110-41.1-110.4-41.1
			C-110.4-41.1-110.4-41.1-110.4-41.1z"/>
		<path class="st1" d="M-101.3-40.4c-0.2,0-0.4-0.1-0.5-0.2c-0.2-0.2-0.2-0.4-0.2-0.6l0.2-1.9c0-0.2,0.1-0.3,0.2-0.5l5.5-5.5
			c0.8-0.7,2-0.7,2.8,0c0.4,0.4,0.6,0.9,0.6,1.4c0,0.5-0.2,1-0.5,1.3l-5.5,5.5c-0.1,0.1-0.3,0.2-0.5,0.2L-101.3-40.4L-101.3-40.4z
			 M-99.4-41.3L-99.4-41.3z M-100.4-42.7l-0.1,0.8l0.8-0.1l5.3-5.3c0.1-0.1,0.1-0.2,0.1-0.3c0-0.1,0-0.3-0.1-0.4
			c-0.2-0.2-0.5-0.2-0.7,0L-100.4-42.7z"/>
	</g>
</g>
<g>
	<path class="st12" d="M24-90H12C5.4-90,0-84.6,0-78v0c0,6.6,5.4,12,12,12h12c6.6,0,12-5.4,12-12v0C36-84.6,30.6-90,24-90z"/>
	<g id="user-edit_00000177483223376952107540000003892335986365061005_">
		<path class="st1" d="M16.6-78.1c-2.1,0-3.8-1.7-3.8-3.8s1.7-3.8,3.8-3.8s3.8,1.7,3.8,3.8C20.3-79.8,18.6-78.1,16.6-78.1z
			 M16.6-84.1c-1.2,0-2.3,1-2.3,2.2c0,1.2,1,2.2,2.3,2.2c1.2,0,2.2-1,2.2-2.2C18.8-83.1,17.8-84.1,16.6-84.1z"/>
		<path class="st1" d="M9.6-71.1c-0.4,0-0.8-0.3-0.8-0.8c0-4.8,5.4-4.8,7.8-4.8c0.7,0,1.4,0,1.9,0.1c0.4,0,0.7,0.4,0.7,0.8
			c0,0.4-0.4,0.7-0.8,0.7c-0.5,0-1.1-0.1-1.8-0.1c-5.2,0-6.2,1.3-6.2,3.2C10.3-71.5,10-71.1,9.6-71.1C9.6-71.1,9.6-71.1,9.6-71.1z"
			/>
		<path class="st1" d="M18.7-70.4c-0.2,0-0.4-0.1-0.5-0.2c-0.2-0.2-0.2-0.4-0.2-0.6l0.2-1.9c0-0.2,0.1-0.3,0.2-0.5l5.5-5.5
			c0.8-0.7,2-0.7,2.8,0c0.4,0.4,0.6,0.9,0.6,1.4c0,0.5-0.2,1-0.5,1.3l-5.5,5.5c-0.1,0.1-0.3,0.2-0.5,0.2L18.7-70.4L18.7-70.4z
			 M20.6-71.3L20.6-71.3z M19.6-72.7l-0.1,0.8l0.8-0.1l5.3-5.3c0.1-0.1,0.1-0.2,0.1-0.3c0-0.1,0-0.3-0.1-0.4c-0.2-0.2-0.5-0.2-0.7,0
			L19.6-72.7z"/>
	</g>
</g>
<g>
	<path class="st13" d="M-16-90h-12c-6.6,0-12,5.4-12,12v0c0,6.6,5.4,12,12,12h12c6.6,0,12-5.4,12-12v0C-4-84.6-9.4-90-16-90z"/>
	<g id="user-edit_00000116235358925006523720000009890531489467327362_">
		<path class="st1" d="M-23.4-78.1c-2.1,0-3.8-1.7-3.8-3.8s1.7-3.8,3.8-3.8s3.8,1.7,3.8,3.8C-19.7-79.8-21.4-78.1-23.4-78.1z
			 M-23.4-84.1c-1.2,0-2.2,1-2.2,2.2c0,1.2,1,2.2,2.2,2.2c1.2,0,2.2-1,2.2-2.2C-21.2-83.1-22.2-84.1-23.4-84.1z"/>
		<path class="st1" d="M-30.4-71.1c-0.4,0-0.8-0.3-0.8-0.8c0-4.8,5.4-4.8,7.8-4.8c0.7,0,1.4,0,1.9,0.1c0.4,0,0.7,0.4,0.7,0.8
			c0,0.4-0.4,0.7-0.8,0.7c-0.5,0-1.1-0.1-1.8-0.1c-5.2,0-6.2,1.3-6.2,3.2C-29.7-71.5-30-71.1-30.4-71.1
			C-30.4-71.1-30.4-71.1-30.4-71.1z"/>
		<path class="st1" d="M-21.3-70.4c-0.2,0-0.4-0.1-0.5-0.2c-0.2-0.2-0.2-0.4-0.2-0.6l0.2-1.9c0-0.2,0.1-0.3,0.2-0.5l5.5-5.5
			c0.8-0.7,2-0.7,2.8,0c0.4,0.4,0.6,0.9,0.6,1.4c0,0.5-0.2,1-0.5,1.3l-5.5,5.5c-0.1,0.1-0.3,0.2-0.5,0.2L-21.3-70.4L-21.3-70.4z
			 M-19.4-71.3L-19.4-71.3z M-20.4-72.7l-0.1,0.8l0.8-0.1l5.3-5.3c0.1-0.1,0.1-0.2,0.1-0.3c0-0.1,0-0.3-0.1-0.4
			c-0.2-0.2-0.5-0.2-0.7,0L-20.4-72.7z"/>
	</g>
</g>
<g>
	<path class="st14" d="M-56-90h-12c-6.6,0-12,5.4-12,12v0c0,6.6,5.4,12,12,12h12c6.6,0,12-5.4,12-12v0C-44-84.6-49.4-90-56-90z"/>
	<g id="user-edit_00000078759050008448593830000014709573709013372595_">
		<path class="st1" d="M-63.4-78.1c-2.1,0-3.8-1.7-3.8-3.8s1.7-3.8,3.8-3.8c2.1,0,3.8,1.7,3.8,3.8C-59.7-79.8-61.4-78.1-63.4-78.1z
			 M-63.4-84.1c-1.2,0-2.3,1-2.3,2.2c0,1.2,1,2.2,2.3,2.2s2.2-1,2.2-2.2C-61.2-83.1-62.2-84.1-63.4-84.1z"/>
		<path class="st1" d="M-70.4-71.1c-0.4,0-0.8-0.3-0.8-0.8c0-4.8,5.4-4.8,7.8-4.8c0.7,0,1.4,0,1.9,0.1c0.4,0,0.7,0.4,0.7,0.8
			c0,0.4-0.4,0.7-0.8,0.7c-0.5,0-1.1-0.1-1.8-0.1c-5.2,0-6.3,1.3-6.3,3.2C-69.7-71.5-70-71.1-70.4-71.1
			C-70.4-71.1-70.4-71.1-70.4-71.1z"/>
		<path class="st1" d="M-61.3-70.4c-0.2,0-0.4-0.1-0.5-0.2c-0.2-0.2-0.2-0.4-0.2-0.6l0.2-1.9c0-0.2,0.1-0.3,0.2-0.5l5.5-5.5
			c0.8-0.7,2-0.7,2.8,0c0.4,0.4,0.6,0.9,0.6,1.4c0,0.5-0.2,1-0.5,1.3l-5.5,5.5c-0.1,0.1-0.3,0.2-0.5,0.2L-61.3-70.4L-61.3-70.4z
			 M-59.4-71.3L-59.4-71.3z M-60.4-72.7l-0.1,0.8l0.8-0.1l5.3-5.3c0.1-0.1,0.1-0.2,0.1-0.3c0-0.1,0-0.3-0.1-0.4
			c-0.2-0.2-0.5-0.2-0.7,0L-60.4-72.7z"/>
	</g>
</g>
<g>
	<path class="st15" d="M-96-90h-12c-6.6,0-12,5.4-12,12v0c0,6.6,5.4,12,12,12h12c6.6,0,12-5.4,12-12v0C-84-84.6-89.4-90-96-90z"/>
	<g id="user-edit_00000146483611248771757800000010856394264254713260_">
		<path class="st1" d="M-103.4-78.1c-2.1,0-3.8-1.7-3.8-3.8s1.7-3.8,3.8-3.8s3.8,1.7,3.8,3.8C-99.7-79.8-101.4-78.1-103.4-78.1z
			 M-103.4-84.1c-1.2,0-2.2,1-2.2,2.2c0,1.2,1,2.2,2.2,2.2c1.2,0,2.2-1,2.2-2.2C-101.2-83.1-102.2-84.1-103.4-84.1z"/>
		<path class="st1" d="M-110.4-71.1c-0.4,0-0.8-0.3-0.8-0.8c0-4.8,5.4-4.8,7.8-4.8c0.7,0,1.4,0,1.9,0.1c0.4,0,0.7,0.4,0.7,0.8
			c0,0.4-0.4,0.7-0.8,0.7c-0.5,0-1.1-0.1-1.8-0.1c-5.2,0-6.2,1.3-6.2,3.2C-109.7-71.5-110-71.1-110.4-71.1
			C-110.4-71.1-110.4-71.1-110.4-71.1z"/>
		<path class="st1" d="M-101.3-70.4c-0.2,0-0.4-0.1-0.5-0.2c-0.2-0.2-0.2-0.4-0.2-0.6l0.2-1.9c0-0.2,0.1-0.3,0.2-0.5l5.5-5.5
			c0.8-0.7,2-0.7,2.8,0c0.4,0.4,0.6,0.9,0.6,1.4c0,0.5-0.2,1-0.5,1.3l-5.5,5.5c-0.1,0.1-0.3,0.2-0.5,0.2L-101.3-70.4L-101.3-70.4z
			 M-99.4-71.3L-99.4-71.3z M-100.4-72.7l-0.1,0.8l0.8-0.1l5.3-5.3c0.1-0.1,0.1-0.2,0.1-0.3c0-0.1,0-0.3-0.1-0.4
			c-0.2-0.2-0.5-0.2-0.7,0L-100.4-72.7z"/>
	</g>
</g>
<g>
	<path class="st16" d="M24-120H12c-6.6,0-12,5.4-12,12v0c0,6.6,5.4,12,12,12h12c6.6,0,12-5.4,12-12v0C36-114.6,30.6-120,24-120z"/>
	<g id="user-edit_00000011725716568067338870000012659298494721839793_">
		<path class="st1" d="M16.6-108.1c-2.1,0-3.8-1.7-3.8-3.8s1.7-3.8,3.8-3.8s3.8,1.7,3.8,3.8C20.3-109.8,18.6-108.1,16.6-108.1z
			 M16.6-114.1c-1.2,0-2.3,1-2.3,2.2c0,1.2,1,2.2,2.3,2.2c1.2,0,2.2-1,2.2-2.2C18.8-113.1,17.8-114.1,16.6-114.1z"/>
		<path class="st1" d="M9.6-101.1c-0.4,0-0.8-0.3-0.8-0.8c0-4.8,5.4-4.8,7.7-4.8c0.7,0,1.4,0,1.9,0.1c0.4,0,0.7,0.4,0.7,0.8
			c0,0.4-0.4,0.7-0.8,0.7c-0.5,0-1.1-0.1-1.8-0.1c-5.2,0-6.2,1.3-6.2,3.2C10.3-101.5,10-101.1,9.6-101.1
			C9.6-101.1,9.6-101.1,9.6-101.1z"/>
		<path class="st1" d="M18.7-100.4c-0.2,0-0.4-0.1-0.5-0.2c-0.2-0.2-0.2-0.4-0.2-0.6l0.2-1.9c0-0.2,0.1-0.3,0.2-0.5l5.5-5.5
			c0.8-0.7,2-0.7,2.8,0c0.4,0.4,0.6,0.9,0.6,1.4c0,0.5-0.2,1-0.5,1.3l-5.5,5.5c-0.1,0.1-0.3,0.2-0.5,0.2L18.7-100.4L18.7-100.4z
			 M20.6-101.3L20.6-101.3z M19.6-102.7l-0.1,0.8l0.8-0.1l5.3-5.3c0.1-0.1,0.1-0.2,0.1-0.3c0-0.1,0-0.3-0.1-0.4
			c-0.2-0.2-0.5-0.2-0.7,0L19.6-102.7z"/>
	</g>
</g>
<g>
	<path class="st17" d="M-16-120h-12c-6.6,0-12,5.4-12,12v0c0,6.6,5.4,12,12,12h12c6.6,0,12-5.4,12-12v0C-4-114.6-9.4-120-16-120z"/>
	<g id="user-edit_00000176016920715831107240000016231814082820468653_">
		<path class="st1" d="M-23.4-108.1c-2.1,0-3.8-1.7-3.8-3.8s1.7-3.8,3.8-3.8s3.8,1.7,3.8,3.8C-19.7-109.8-21.4-108.1-23.4-108.1z
			 M-23.4-114.1c-1.2,0-2.2,1-2.2,2.2c0,1.2,1,2.2,2.2,2.2c1.2,0,2.2-1,2.2-2.2C-21.2-113.1-22.2-114.1-23.4-114.1z"/>
		<path class="st1" d="M-30.4-101.1c-0.4,0-0.8-0.3-0.8-0.8c0-4.8,5.4-4.8,7.8-4.8c0.7,0,1.4,0,1.9,0.1c0.4,0,0.7,0.4,0.7,0.8
			c0,0.4-0.4,0.7-0.8,0.7c-0.5,0-1.1-0.1-1.8-0.1c-5.2,0-6.2,1.3-6.2,3.2C-29.7-101.5-30-101.1-30.4-101.1
			C-30.4-101.1-30.4-101.1-30.4-101.1z"/>
		<path class="st1" d="M-21.3-100.4c-0.2,0-0.4-0.1-0.5-0.2c-0.2-0.2-0.2-0.4-0.2-0.6l0.2-1.9c0-0.2,0.1-0.3,0.2-0.5l5.5-5.5
			c0.8-0.7,2-0.7,2.8,0c0.4,0.4,0.6,0.9,0.6,1.4c0,0.5-0.2,1-0.5,1.3l-5.5,5.5c-0.1,0.1-0.3,0.2-0.5,0.2L-21.3-100.4L-21.3-100.4z
			 M-19.4-101.3L-19.4-101.3z M-20.4-102.7l-0.1,0.8l0.8-0.1l5.3-5.3c0.1-0.1,0.1-0.2,0.1-0.3c0-0.1,0-0.3-0.1-0.4
			c-0.2-0.2-0.5-0.2-0.7,0L-20.4-102.7z"/>
	</g>
</g>
<g>
	<path class="st18" d="M-56-120h-12c-6.6,0-12,5.4-12,12v0c0,6.6,5.4,12,12,12h12c6.6,0,12-5.4,12-12v0C-44-114.6-49.4-120-56-120z"
		/>
	<g id="user-edit_00000042723727548542202420000011369047362828236986_">
		<path class="st1" d="M-63.4-108.1c-2.1,0-3.8-1.7-3.8-3.8s1.7-3.8,3.8-3.8c2.1,0,3.8,1.7,3.8,3.8
			C-59.7-109.8-61.4-108.1-63.4-108.1z M-63.4-114.1c-1.2,0-2.3,1-2.3,2.2c0,1.2,1,2.2,2.3,2.2s2.2-1,2.2-2.2
			C-61.2-113.1-62.2-114.1-63.4-114.1z"/>
		<path class="st1" d="M-70.4-101.1c-0.4,0-0.8-0.3-0.8-0.8c0-4.8,5.4-4.8,7.8-4.8c0.7,0,1.4,0,1.9,0.1c0.4,0,0.7,0.4,0.7,0.8
			c0,0.4-0.4,0.7-0.8,0.7c-0.5,0-1.1-0.1-1.8-0.1c-5.2,0-6.3,1.3-6.3,3.2C-69.7-101.5-70-101.1-70.4-101.1
			C-70.4-101.1-70.4-101.1-70.4-101.1z"/>
		<path class="st1" d="M-61.3-100.4c-0.2,0-0.4-0.1-0.5-0.2c-0.2-0.2-0.2-0.4-0.2-0.6l0.2-1.9c0-0.2,0.1-0.3,0.2-0.5l5.5-5.5
			c0.8-0.7,2-0.7,2.8,0c0.4,0.4,0.6,0.9,0.6,1.4c0,0.5-0.2,1-0.5,1.3l-5.5,5.5c-0.1,0.1-0.3,0.2-0.5,0.2L-61.3-100.4L-61.3-100.4z
			 M-59.4-101.3L-59.4-101.3z M-60.4-102.7l-0.1,0.8l0.8-0.1l5.3-5.3c0.1-0.1,0.1-0.2,0.1-0.3c0-0.1,0-0.3-0.1-0.4
			c-0.2-0.2-0.5-0.2-0.7,0L-60.4-102.7z"/>
	</g>
</g>
<g>
	<path class="st19" d="M-96-120h-12c-6.6,0-12,5.4-12,12v0c0,6.6,5.4,12,12,12h12c6.6,0,12-5.4,12-12v0C-84-114.6-89.4-120-96-120z"
		/>
	<g id="user-edit_00000023965270734694594060000006944894685392362661_">
		<path class="st1" d="M-103.4-108.1c-2.1,0-3.8-1.7-3.8-3.8s1.7-3.8,3.8-3.8s3.8,1.7,3.8,3.8C-99.7-109.8-101.4-108.1-103.4-108.1z
			 M-103.4-114.1c-1.2,0-2.2,1-2.2,2.2c0,1.2,1,2.2,2.2,2.2c1.2,0,2.2-1,2.2-2.2C-101.2-113.1-102.2-114.1-103.4-114.1z"/>
		<path class="st1" d="M-110.4-101.1c-0.4,0-0.8-0.3-0.8-0.8c0-4.8,5.4-4.8,7.8-4.8c0.7,0,1.4,0,1.9,0.1c0.4,0,0.7,0.4,0.7,0.8
			c0,0.4-0.4,0.7-0.8,0.7c-0.5,0-1.1-0.1-1.8-0.1c-5.2,0-6.2,1.3-6.2,3.2C-109.7-101.5-110-101.1-110.4-101.1
			C-110.4-101.1-110.4-101.1-110.4-101.1z"/>
		<path class="st1" d="M-101.3-100.4c-0.2,0-0.4-0.1-0.5-0.2c-0.2-0.2-0.2-0.4-0.2-0.6l0.2-1.9c0-0.2,0.1-0.3,0.2-0.5l5.5-5.5
			c0.8-0.7,2-0.7,2.8,0c0.4,0.4,0.6,0.9,0.6,1.4c0,0.5-0.2,1-0.5,1.3l-5.5,5.5c-0.1,0.1-0.3,0.2-0.5,0.2L-101.3-100.4L-101.3-100.4z
			 M-99.4-101.3L-99.4-101.3z M-100.4-102.7l-0.1,0.8l0.8-0.1l5.3-5.3c0.1-0.1,0.1-0.2,0.1-0.3c0-0.1,0-0.3-0.1-0.4
			c-0.2-0.2-0.5-0.2-0.7,0L-100.4-102.7z"/>
	</g>
</g>
</svg>
